<?xml version="1.0" ?><svg data-name="010" id="_010" viewBox="0 0 128 128" xmlns="http://www.w3.org/2000/svg" xmlns:xlink="http://www.w3.org/1999/xlink"><defs><style>.cls-1{fill:none;}.cls-2{clip-path:url(#clip-path);}.cls-3{fill:#ffece0;}.cls-12,.cls-28,.cls-31,.cls-4{opacity:0.3;}.cls-5{fill:#c7bff3;}.cls-6{fill:#6d6da8;}.cls-7{fill:#fff8cf;}.cls-8{fill:#87d9b8;}.cls-9{fill:#afefa6;}.cls-10{fill:#ecf4ff;}.cls-11,.cls-14,.cls-29{fill:#fff;}.cls-12,.cls-28{fill:#768ea6;}.cls-13{fill:#fff07d;}.cls-14,.cls-24,.cls-29,.cls-30{opacity:0.5;}.cls-15{fill:#94d5ff;}.cls-16{fill:#c5e7ff;}.cls-17{fill:#ff88ca;}.cls-18{fill:#ffcfe1;}.cls-19{fill:#97c1ff;}.cls-20{fill:#2c4b75;}.cls-20,.cls-22,.cls-25{opacity:0.2;}.cls-21{fill:#f9e2dc;}.cls-23,.cls-25{fill:#cc7e54;}.cls-26,.cls-30{fill:#6d6daa;}.cls-27{fill:#ccd6ec;}.cls-27,.cls-28,.cls-29{fill-rule:evenodd;}.cls-31{fill:#48ba33;}</style><clipPath id="clip-path"><path class="cls-1" d="M10.62-113.77a30,30,0,0,0-1.83,34.3A19.79,19.79,0,0,1,11.62-67c-.41,3.85-1.45,7.79-.85,11.89C14-33,32.72-25,50.81-26.25a36.88,36.88,0,0,0,16.34-5,20.41,20.41,0,0,1,17.16-1.68c15.15,5.31,34-2.74,38.08-24.57a16.59,16.59,0,0,0-.85-8,20.58,20.58,0,0,1,.93-14.76,28.41,28.41,0,0,0-.71-24.7,28.48,28.48,0,0,0-19.63-14.83,20,20,0,0,1-13.62-10A29,29,0,0,0,68-144.49a29,29,0,0,0-28.9,12.23,19.63,19.63,0,0,1-11.83,7.8A29.8,29.8,0,0,0,10.62-113.77Z"/></clipPath></defs><title/><g class="cls-2"><path class="cls-3" d="M37-29.08c21.65-12.11,46.52-19,60.13-17.27C77.92-52.44,46.63-47.94,24-35.27S-4.85-6.17,8.53,3.19C4-3.65,15.35-17,37-29.08Z"/><path class="cls-3" d="M70-21.93C45.33-8.13,19.21,7.58,15.61,5.87s17.22-19,41.92-32.8,47.4-17.71,51-16S94.73-35.74,70-21.93Z"/></g><g class="cls-4"><path class="cls-5" d="M116,47A39,39,0,1,0,38.93,35,20.59,20.59,0,0,1,23.54,51.71a30.75,30.75,0,1,0,22,57c7.6-4,17-2.68,22.63,3.83A33.75,33.75,0,0,0,121.6,71.44,33.65,33.65,0,0,1,116,47Z"/><rect class="cls-5" height="12" width="15" x="11.99" y="15"/><path class="cls-6" d="M27,28H12a1,1,0,0,1-1-1V15a1,1,0,0,1,1-1H27a1,1,0,0,1,1,1V27A1,1,0,0,1,27,28ZM13,26H26V16H13Z"/><rect class="cls-5" height="5" width="17" x="10.99" y="10"/><path class="cls-6" d="M28,16H11a1,1,0,0,1-1-1V10a1,1,0,0,1,1-1H28a1,1,0,0,1,1,1v5A1,1,0,0,1,28,16ZM12,14H27V11H12Z"/><rect class="cls-7" height="6" width="122.01" x="2.99" y="27"/><path class="cls-6" d="M125,34H3a1,1,0,0,1-1-1V27a1,1,0,0,1,1-1H125a1,1,0,0,1,1,1v6A1,1,0,0,1,125,34ZM4,32H124V28H4Z"/><rect class="cls-7" height="6" width="122.01" x="2.99" y="69"/><path class="cls-6" d="M125,76H3a1,1,0,0,1-1-1V69a1,1,0,0,1,1-1H125a1,1,0,0,1,1,1v6A1,1,0,0,1,125,76ZM4,74H124V70H4Z"/><path class="cls-6" d="M22,20H17a1,1,0,1,1,0-2h5a1,1,0,0,1,0,2Z"/><rect class="cls-8" height="3.99" width="41.99" x="41.99" y="10"/><path class="cls-6" d="M84,15H42a1,1,0,0,1-1-1V10a1,1,0,0,1,1-1H84a1,1,0,0,1,1,1v4A1,1,0,0,1,84,15ZM43,13H83V11H43Z"/><rect class="cls-9" height="3.99" width="41.99" x="41.99" y="6"/><path class="cls-6" d="M84,11H42a1,1,0,0,1-1-1V6a1,1,0,0,1,1-1H84a1,1,0,0,1,1,1v4A1,1,0,0,1,84,11ZM43,9H83V7H43Z"/><rect class="cls-8" height="3.99" width="41.99" x="41.99" y="2"/><path class="cls-6" d="M84,7H42a1,1,0,0,1-1-1V2a1,1,0,0,1,1-1H84a1,1,0,0,1,1,1V6A1,1,0,0,1,84,7ZM43,5H83V3H43Z"/><rect class="cls-10" height="14" width="9.99" x="57.99" y="0.5"/><rect class="cls-11" height="3" width="9.99" x="57.99" y="1"/><rect class="cls-12" height="3" width="9.99" x="57.99" y="12"/><path class="cls-6" d="M68,16H58a1,1,0,0,1-1-1V1a1,1,0,0,1,1-1H68a1,1,0,0,1,1,1V15A1,1,0,0,1,68,16Zm-9-2h8V2H59Z"/><rect class="cls-8" height="3.99" width="41.99" x="71.99" y="22.01"/><path class="cls-6" d="M114,27H72a1,1,0,0,1-1-1V22a1,1,0,0,1,1-1h42a1,1,0,0,1,1,1v4A1,1,0,0,1,114,27ZM73,25h40V23H73Z"/><rect class="cls-9" height="3.99" width="41.99" x="71.99" y="18"/><path class="cls-6" d="M114,23H72a1,1,0,0,1-1-1V18a1,1,0,0,1,1-1h42a1,1,0,0,1,1,1v4A1,1,0,0,1,114,23ZM73,21h40V19H73Z"/><rect class="cls-8" height="3.99" width="41.99" x="71.99" y="14"/><path class="cls-6" d="M114,19H72a1,1,0,0,1-1-1V14a1,1,0,0,1,1-1h42a1,1,0,0,1,1,1v4A1,1,0,0,1,114,19ZM73,17h40V15H73Z"/><rect class="cls-10" height="14" width="10" x="87.99" y="12.51"/><rect class="cls-11" height="3" width="10" x="87.99" y="13"/><rect class="cls-12" height="3" width="10" x="87.99" y="24.01"/><path class="cls-6" d="M98,28H88a1,1,0,0,1-1-1V13a1,1,0,0,1,1-1H98a1,1,0,0,1,1,1V27A1,1,0,0,1,98,28Zm-9-2h8V14H89Z"/><rect class="cls-8" height="3.99" width="41.99" x="35.99" y="22.01"/><path class="cls-6" d="M78,27H36a1,1,0,0,1-1-1V22a1,1,0,0,1,1-1H78a1,1,0,0,1,1,1v4A1,1,0,0,1,78,27ZM37,25H77V23H37Z"/><rect class="cls-9" height="3.99" width="41.99" x="35.99" y="18"/><path class="cls-6" d="M78,23H36a1,1,0,0,1-1-1V18a1,1,0,0,1,1-1H78a1,1,0,0,1,1,1v4A1,1,0,0,1,78,23ZM37,21H77V19H37Z"/><rect class="cls-8" height="3.99" width="41.99" x="35.99" y="14"/><path class="cls-6" d="M78,19H36a1,1,0,0,1-1-1V14a1,1,0,0,1,1-1H78a1,1,0,0,1,1,1v4A1,1,0,0,1,78,19ZM37,17H77V15H37Z"/><rect class="cls-10" height="14" width="10" x="51.99" y="12.51"/><rect class="cls-11" height="3" width="10" x="51.99" y="13"/><rect class="cls-12" height="3" width="10" x="51.99" y="24.01"/><path class="cls-6" d="M62,28H52a1,1,0,0,1-1-1V13a1,1,0,0,1,1-1H62a1,1,0,0,1,1,1V27A1,1,0,0,1,62,28Zm-9-2h8V14H53Z"/><path class="cls-13" d="M5.77,66.43l1.8-6A2,2,0,0,1,9.49,59h11a2,2,0,0,1,1.92,1.43l1.8,6A2,2,0,0,1,22.31,69H7.69A2,2,0,0,1,5.77,66.43Z"/><path class="cls-14" d="M5.77,66.43a.28.28,0,0,0,0,.09l15.41-7.4a2.08,2.08,0,0,0-.66-.12h-11a2,2,0,0,0-1.92,1.43Z"/><path class="cls-14" d="M22.79,61.62l-.22-.72-16,7.71A1.94,1.94,0,0,0,7.69,69h4.25l11.41-5.48Z"/><path class="cls-6" d="M22.31,70H7.69a3,3,0,0,1-2.87-3.86l1.8-6A3,3,0,0,1,9.49,58h11a3,3,0,0,1,2.88,2.14l1.8,6A3,3,0,0,1,22.31,70ZM9.49,60a1,1,0,0,0-1,.71l-1.8,6h0a1,1,0,0,0,.16.88,1,1,0,0,0,.8.4H22.31a1,1,0,0,0,.8-.4,1,1,0,0,0,.16-.89l-1.8-6a1,1,0,0,0-1-.71ZM5.77,66.43h0Z"/><path class="cls-13" d="M25.77,66.43l1.8-6A2,2,0,0,1,29.49,59h11a2,2,0,0,1,1.92,1.43l1.8,6A2,2,0,0,1,42.31,69H27.69A2,2,0,0,1,25.77,66.43Z"/><path class="cls-14" d="M25.77,66.43a.28.28,0,0,0,0,.09l15.41-7.4a2.08,2.08,0,0,0-.66-.12h-11a2,2,0,0,0-1.92,1.43Z"/><path class="cls-14" d="M42.79,61.62l-.22-.72-16,7.71a1.94,1.94,0,0,0,1.17.39h4.25l11.41-5.48Z"/><path class="cls-6" d="M42.31,70H27.69a3,3,0,0,1-2.87-3.86l1.8-6A3,3,0,0,1,29.49,58h11a3,3,0,0,1,2.88,2.14l1.8,6A3,3,0,0,1,42.31,70ZM29.49,60a1,1,0,0,0-1,.71l-1.8,6h0a1,1,0,0,0,.16.88,1,1,0,0,0,.8.4H42.31a1,1,0,0,0,.8-.4,1,1,0,0,0,.16-.89l-1.8-6a1,1,0,0,0-1-.71Zm-3.72,6.43h0Z"/><path class="cls-13" d="M45.77,66.43l1.8-6A2,2,0,0,1,49.49,59h11a2,2,0,0,1,1.92,1.43l1.8,6A2,2,0,0,1,62.31,69H47.69A2,2,0,0,1,45.77,66.43Z"/><path class="cls-14" d="M45.77,66.43a.28.28,0,0,0,0,.09l15.41-7.4a2.08,2.08,0,0,0-.66-.12h-11a2,2,0,0,0-1.92,1.43Z"/><path class="cls-14" d="M62.79,61.62l-.22-.72-16,7.71a1.94,1.94,0,0,0,1.17.39h4.25l11.41-5.48Z"/><path class="cls-6" d="M62.31,70H47.69a3,3,0,0,1-2.87-3.86l1.8-6A3,3,0,0,1,49.49,58h11a3,3,0,0,1,2.88,2.14l1.8,6A3,3,0,0,1,62.31,70ZM49.49,60a1,1,0,0,0-1,.71l-1.8,6h0a1,1,0,0,0,.16.88,1,1,0,0,0,.8.4H62.31a1,1,0,0,0,.8-.4,1,1,0,0,0,.16-.89l-1.8-6a1,1,0,0,0-1-.71Zm-3.72,6.43h0Z"/><path class="cls-13" d="M35.77,56.43l1.8-6A2,2,0,0,1,39.49,49h11a2,2,0,0,1,1.92,1.43l1.8,6A2,2,0,0,1,52.31,59H37.69A2,2,0,0,1,35.77,56.43Z"/><path class="cls-14" d="M35.77,56.43a.28.28,0,0,0,0,.09l15.41-7.4a2.08,2.08,0,0,0-.66-.12h-11a2,2,0,0,0-1.92,1.43Z"/><path class="cls-14" d="M52.79,51.62l-.22-.72-16,7.71a1.94,1.94,0,0,0,1.17.39h4.25l11.41-5.48Z"/><path class="cls-6" d="M52.31,60H37.69a3,3,0,0,1-2.87-3.86l1.8-6A3,3,0,0,1,39.49,48h11a3,3,0,0,1,2.88,2.14l1.8,6A3,3,0,0,1,52.31,60ZM39.49,50a1,1,0,0,0-1,.71l-1.8,6h0a1,1,0,0,0,.16.88,1,1,0,0,0,.8.4H52.31a1,1,0,0,0,.8-.4,1,1,0,0,0,.16-.89l-1.8-6a1,1,0,0,0-1-.71Zm-3.72,6.43h0Z"/><path class="cls-13" d="M15.77,56.43l1.8-6A2,2,0,0,1,19.49,49h11a2,2,0,0,1,1.92,1.43l1.8,6A2,2,0,0,1,32.31,59H17.69A2,2,0,0,1,15.77,56.43Z"/><path class="cls-14" d="M15.77,56.43a.28.28,0,0,0,0,.09l15.41-7.4a2.08,2.08,0,0,0-.66-.12h-11a2,2,0,0,0-1.92,1.43Z"/><path class="cls-14" d="M32.79,51.62l-.22-.72-16,7.71a1.94,1.94,0,0,0,1.17.39h4.25l11.41-5.48Z"/><path class="cls-6" d="M32.31,60H17.69a3,3,0,0,1-2.87-3.86l1.8-6A3,3,0,0,1,19.49,48h11a3,3,0,0,1,2.88,2.14l1.8,6A3,3,0,0,1,32.31,60ZM19.49,50a1,1,0,0,0-1,.71l-1.8,6h0a1,1,0,0,0,.16.88,1,1,0,0,0,.8.4H32.31a1,1,0,0,0,.8-.4,1,1,0,0,0,.16-.89l-1.8-6a1,1,0,0,0-1-.71Zm-3.72,6.43h0Z"/><path class="cls-13" d="M25.77,46.43l1.8-6A2,2,0,0,1,29.49,39h11a2,2,0,0,1,1.92,1.43l1.8,6A2,2,0,0,1,42.31,49H27.69A2,2,0,0,1,25.77,46.43Z"/><path class="cls-14" d="M25.77,46.43a.28.28,0,0,0,0,.09l15.41-7.4a2.08,2.08,0,0,0-.66-.12h-11a2,2,0,0,0-1.92,1.43Z"/><path class="cls-14" d="M42.79,41.62l-.22-.72-16,7.71a1.94,1.94,0,0,0,1.17.39h4.25l11.41-5.48Z"/><path class="cls-6" d="M42.31,50H27.69a3,3,0,0,1-2.87-3.86l1.8-6A3,3,0,0,1,29.49,38h11a3,3,0,0,1,2.88,2.14l1.8,6A3,3,0,0,1,42.31,50ZM29.49,40a1,1,0,0,0-1,.71l-1.8,6h0a1,1,0,0,0,.16.88,1,1,0,0,0,.8.4H42.31a1,1,0,0,0,.8-.4,1,1,0,0,0,.16-.89l-1.8-6a1,1,0,0,0-1-.71Zm-3.72,6.43h0Z"/><path class="cls-13" d="M85.77,66.43l1.8-6A2,2,0,0,1,89.49,59h11a2,2,0,0,1,1.92,1.43l1.8,6A2,2,0,0,1,102.31,69H87.69A2,2,0,0,1,85.77,66.43Z"/><path class="cls-14" d="M85.77,66.43a.28.28,0,0,0,0,.09l15.41-7.4a2.08,2.08,0,0,0-.66-.12h-11a2,2,0,0,0-1.92,1.43Z"/><path class="cls-14" d="M102.79,61.62l-.22-.72-16,7.71a1.94,1.94,0,0,0,1.17.39h4.25l11.41-5.48Z"/><path class="cls-6" d="M102.31,70H87.69a3,3,0,0,1-2.87-3.86l1.8-6A3,3,0,0,1,89.49,58h11a3,3,0,0,1,2.88,2.14l1.8,6A3,3,0,0,1,102.31,70ZM89.49,60a1,1,0,0,0-1,.71l-1.8,6h0a1,1,0,0,0,.16.88,1,1,0,0,0,.8.4h14.62a1,1,0,0,0,.8-.4,1,1,0,0,0,.16-.89l-1.8-6a1,1,0,0,0-1-.71Zm-3.72,6.43h0Z"/><path class="cls-13" d="M105.77,66.43l1.8-6A2,2,0,0,1,109.49,59h11a2,2,0,0,1,1.92,1.43l1.8,6A2,2,0,0,1,122.31,69H107.69A2,2,0,0,1,105.77,66.43Z"/><path class="cls-14" d="M105.77,66.43a.28.28,0,0,0,0,.09l15.41-7.4a2.08,2.08,0,0,0-.66-.12h-11a2,2,0,0,0-1.92,1.43Z"/><path class="cls-14" d="M122.79,61.62l-.22-.72-16,7.71a1.94,1.94,0,0,0,1.17.39h4.25l11.41-5.48Z"/><path class="cls-6" d="M122.31,70H107.69a3,3,0,0,1-2.87-3.86l1.8-6A3,3,0,0,1,109.49,58h11a3,3,0,0,1,2.88,2.14l1.8,6A3,3,0,0,1,122.31,70ZM109.49,60a1,1,0,0,0-1,.71l-1.8,6h0a1,1,0,0,0,.16.88,1,1,0,0,0,.8.4h14.62a1,1,0,0,0,.8-.4,1,1,0,0,0,.16-.89l-1.8-6a1,1,0,0,0-1-.71Zm-3.72,6.43h0Z"/><path class="cls-13" d="M105.77,56.43l1.8-6A2,2,0,0,1,109.49,49h11a2,2,0,0,1,1.92,1.43l1.8,6A2,2,0,0,1,122.31,59H107.69A2,2,0,0,1,105.77,56.43Z"/><path class="cls-14" d="M105.77,56.43a.28.28,0,0,0,0,.09l15.41-7.4a2.08,2.08,0,0,0-.66-.12h-11a2,2,0,0,0-1.92,1.43Z"/><path class="cls-14" d="M122.79,51.62l-.22-.72-16,7.71a1.94,1.94,0,0,0,1.17.39h4.25l11.41-5.48Z"/><path class="cls-6" d="M122.31,60H107.69a3,3,0,0,1-2.87-3.86l1.8-6A3,3,0,0,1,109.49,48h11a3,3,0,0,1,2.88,2.14l1.8,6A3,3,0,0,1,122.31,60ZM109.49,50a1,1,0,0,0-1,.71l-1.8,6h0a1,1,0,0,0,.16.88,1,1,0,0,0,.8.4h14.62a1,1,0,0,0,.8-.4,1,1,0,0,0,.16-.89l-1.8-6a1,1,0,0,0-1-.71Zm-3.72,6.43h0Z"/><path class="cls-13" d="M85.77,56.43l1.8-6A2,2,0,0,1,89.49,49h11a2,2,0,0,1,1.92,1.43l1.8,6A2,2,0,0,1,102.31,59H87.69A2,2,0,0,1,85.77,56.43Z"/><path class="cls-14" d="M85.77,56.43a.28.28,0,0,0,0,.09l15.41-7.4a2.08,2.08,0,0,0-.66-.12h-11a2,2,0,0,0-1.92,1.43Z"/><path class="cls-14" d="M102.79,51.62l-.22-.72-16,7.71a1.94,1.94,0,0,0,1.17.39h4.25l11.41-5.48Z"/><path class="cls-6" d="M102.31,60H87.69a3,3,0,0,1-2.87-3.86l1.8-6A3,3,0,0,1,89.49,48h11a3,3,0,0,1,2.88,2.14l1.8,6A3,3,0,0,1,102.31,60ZM89.49,50a1,1,0,0,0-1,.71l-1.8,6h0a1,1,0,0,0,.16.88,1,1,0,0,0,.8.4h14.62a1,1,0,0,0,.8-.4,1,1,0,0,0,.16-.89l-1.8-6a1,1,0,0,0-1-.71Zm-3.72,6.43h0Z"/><path class="cls-13" d="M95.77,46.43l1.8-6A2,2,0,0,1,99.49,39h11a2,2,0,0,1,1.92,1.43l1.8,6A2,2,0,0,1,112.31,49H97.69A2,2,0,0,1,95.77,46.43Z"/><path class="cls-14" d="M95.77,46.43a.28.28,0,0,0,0,.09l15.41-7.4a2.08,2.08,0,0,0-.66-.12h-11a2,2,0,0,0-1.92,1.43Z"/><path class="cls-14" d="M112.79,41.62l-.22-.72-16,7.71a1.94,1.94,0,0,0,1.17.39h4.25l11.41-5.48Z"/><path class="cls-6" d="M112.31,50H97.69a3,3,0,0,1-2.87-3.86l1.8-6A3,3,0,0,1,99.49,38h11a3,3,0,0,1,2.88,2.14l1.8,6A3,3,0,0,1,112.31,50ZM99.49,40a1,1,0,0,0-1,.71l-1.8,6h0a1,1,0,0,0,.16.88,1,1,0,0,0,.8.4h14.62a1,1,0,0,0,.8-.4,1,1,0,0,0,.16-.89l-1.8-6a1,1,0,0,0-1-.71Zm-3.72,6.43h0Z"/><polygon class="cls-15" points="18.22 103.23 29.07 109.07 14 107.45 18.22 103.23"/><polygon class="cls-15" points="14 100.96 18.22 103.23 14 107.45 14 100.96"/><polygon class="cls-15" points="17.48 97.48 18.41 103.04 18.22 103.23 14 100.96 17.48 97.48"/><polygon class="cls-11" points="17.48 97.48 23.04 98.41 18.41 103.04 17.48 97.48"/><polygon class="cls-15" points="20.96 94 23.23 98.22 23.04 98.41 17.48 97.48 20.96 94"/><polygon class="cls-16" points="23.04 98.41 23.23 98.22 29.07 109.07 18.22 103.23 18.41 103.04 23.04 98.41"/><polygon class="cls-15" points="27.45 94 29.07 109.07 23.23 98.22 27.45 94"/><polygon class="cls-15" points="27.45 94 23.23 98.22 20.96 94 27.45 94"/><path class="cls-6" d="M14,108.45a1,1,0,0,1-1-1V101a1,1,0,0,1,.3-.71l7-7A1,1,0,0,1,21,93h6.49a1,1,0,0,1,.71,1.71L14.71,108.16A1,1,0,0,1,14,108.45Zm1-7.08V105L25,95H21.37Z"/><path class="cls-6" d="M29.07,110.07a1,1,0,0,1-.47-.12l-15.07-8.11a1,1,0,1,1,1-1.76l15.06,8.11a1,1,0,0,1-.47,1.88Z"/><path class="cls-6" d="M18.41,104a1,1,0,0,1-1-.83l-.93-5.57a1,1,0,0,1,2-.32l.92,5.56a1,1,0,0,1-.82,1.15Z"/><path class="cls-6" d="M23,99.41l-.16,0-5.56-.92a1,1,0,1,1,.32-2l5.57.93a1,1,0,0,1-.17,2Z"/><path class="cls-6" d="M29.07,110.07a1,1,0,0,1-.88-.53L20.08,94.48a1,1,0,1,1,1.76-1L30,108.6a1,1,0,0,1-.88,1.47Z"/><path class="cls-6" d="M29.07,110.07H29L13.9,108.44a1,1,0,0,1-.89-1.1,1,1,0,0,1,1.1-.88l13.83,1.48L26.46,94.11a1,1,0,1,1,2-.21L30.07,109a1,1,0,0,1-.29.82A1,1,0,0,1,29.07,110.07Z"/><path class="cls-11" d="M25.06,95.56A3.59,3.59,0,0,0,27.47,98c1.2.4,1.2.81,0,1.21a3.59,3.59,0,0,0-2.41,2.41c-.41,1.21-.81,1.21-1.21,0a3.61,3.61,0,0,0-2.41-2.41c-1.21-.4-1.21-.81,0-1.21a3.61,3.61,0,0,0,2.41-2.41C24.25,94.35,24.65,94.35,25.06,95.56Z"/><polygon class="cls-17" points="106.69 95.27 98.41 107.57 102.13 89.72 106.69 95.27"/><polygon class="cls-17" points="109.91 90.48 106.69 95.27 102.13 89.72 109.91 90.48"/><polygon class="cls-17" points="113.66 95.06 106.89 95.51 106.69 95.27 109.91 90.48 113.66 95.06"/><polygon class="cls-11" points="113.66 95.06 111.89 101.61 106.89 95.51 113.66 95.06"/><polygon class="cls-17" points="117.41 99.63 112.09 101.86 111.89 101.61 113.66 95.06 117.41 99.63"/><polygon class="cls-18" points="111.89 101.61 112.09 101.86 98.41 107.57 106.69 95.27 106.89 95.51 111.89 101.61"/><polygon class="cls-17" points="116.64 107.41 98.41 107.57 112.09 101.86 116.64 107.41"/><polygon class="cls-17" points="116.64 107.41 112.09 101.86 117.41 99.63 116.64 107.41"/><path class="cls-6" d="M116.64,108.4a1,1,0,0,1-.77-.36L101.36,90.35a1,1,0,0,1-.11-1.1,1,1,0,0,1,1-.53l7.77.77a1,1,0,0,1,.68.36l7.5,9.15a1,1,0,0,1,.23.73l-.77,7.77a1,1,0,0,1-.71.86A.92.92,0,0,1,116.64,108.4ZM104.44,91l11.44,14,.49-5-7-8.51Z"/><path class="cls-6" d="M98.41,108.57a1,1,0,0,1-.56-.17,1,1,0,0,1-.27-1.39l11.5-17.08a1,1,0,0,1,1.38-.28,1,1,0,0,1,.28,1.39l-11.5,17.08A1,1,0,0,1,98.41,108.57Z"/><path class="cls-6" d="M106.89,96.51a1,1,0,0,1-1-.93,1,1,0,0,1,.93-1.07l6.77-.45a1,1,0,1,1,.13,2l-6.77.45Z"/><path class="cls-6" d="M111.89,102.61a1.15,1.15,0,0,1-.26,0,1,1,0,0,1-.71-1.23l1.77-6.55a1,1,0,1,1,1.93.52l-1.76,6.55A1,1,0,0,1,111.89,102.61Z"/><path class="cls-6" d="M98.41,108.57a1,1,0,0,1-.39-1.93l19-7.93a1,1,0,0,1,.78,1.85l-19,7.93A1.09,1.09,0,0,1,98.41,108.57Z"/><path class="cls-6" d="M98.41,108.57a1,1,0,0,1-1-1.21l3.73-17.85a1,1,0,1,1,2,.41l-3.47,16.64,17-.16h0a1,1,0,0,1,1,1,1,1,0,0,1-1,1l-18.23.17Z"/><path class="cls-11" d="M104.69,91.8a3.86,3.86,0,0,0,2.56,2.56c1.27.42,1.27.85,0,1.27a3.86,3.86,0,0,0-2.56,2.56c-.43,1.28-.85,1.28-1.28,0a3.83,3.83,0,0,0-2.55-2.56c-1.28-.42-1.28-.85,0-1.27a3.83,3.83,0,0,0,2.55-2.56C103.84,90.52,104.26,90.52,104.69,91.8Z"/><path class="cls-6" d="M95.23,101.75a1,1,0,0,1-.7-.29l-3-3a1,1,0,0,1-.21-1.1l2.45-5.72a1,1,0,0,1,.73-.59,1,1,0,0,1,.89.28l6.29,6.28a1,1,0,0,1,.27.9,1,1,0,0,1-.59.73l-5.71,2.45A1.1,1.1,0,0,1,95.23,101.75ZM93.4,97.5l2.06,2.06L99.2,98,95,93.77Z"/><polygon class="cls-8" points="100.95 98.3 100.95 107.72 95.23 105.27 95.23 100.75 100.95 98.3"/><polygon class="cls-8" points="100.95 107.72 94.67 114 92.22 108.28 95.23 105.27 100.95 107.72"/><polygon class="cls-8" points="92.22 108.28 94.67 114 85.25 114 87.7 108.28 92.22 108.28"/><polygon class="cls-8" points="87.74 108.27 85.29 113.98 79.01 107.7 84.72 105.25 87.74 108.27"/><polygon class="cls-8" points="84.68 100.73 84.68 105.25 78.97 107.7 78.97 98.28 84.68 100.73"/><polygon class="cls-8" points="85.25 92.02 87.7 97.73 84.68 100.75 78.97 98.3 85.25 92.02"/><polygon class="cls-8" points="101 98.3 95.28 100.75 92.27 97.73 94.72 92.02 101 98.3"/><polygon class="cls-11" points="94.67 92.02 92.22 97.73 87.7 97.73 85.25 92.02 94.67 92.02"/><polygon class="cls-9" points="95.23 100.75 95.23 105.27 92.22 108.28 87.7 108.28 84.68 105.27 84.68 100.75 87.7 97.73 92.22 97.73 95.23 100.75"/><path class="cls-6" d="M94.67,115H85.25a1,1,0,0,1-.71-.29l-6.28-6.28a1,1,0,0,1-.3-.71V98.3a1,1,0,0,1,.3-.71l6.28-6.28a1,1,0,0,1,.71-.29h9.42a1,1,0,0,1,.71.29l6.28,6.28a1,1,0,0,1,.29.71v9.42a1.05,1.05,0,0,1-.29.71l-6.28,6.28A1.05,1.05,0,0,1,94.67,115Zm-9-2h8.59l5.7-5.7V98.71L94.25,93H85.66L80,98.71v8.59Z"/><path class="cls-6" d="M92.22,109.28H87.7A1,1,0,0,1,87,109l-3-3a1,1,0,0,1-.29-.71v-4.52A1,1,0,0,1,84,100l3-3a1,1,0,0,1,.71-.3h4.52a1,1,0,0,1,.7.3l3,3a1,1,0,0,1,.29.71v4.52a1,1,0,0,1-.29.71l-3,3A1,1,0,0,1,92.22,109.28Zm-4.11-2H91.8l2.43-2.42v-3.7L91.8,98.73H88.11l-2.43,2.43v3.7Z"/><path class="cls-6" d="M87.7,98.73a1,1,0,0,1-.92-.6l-2.45-5.72a1,1,0,0,1,.52-1.31,1,1,0,0,1,1.32.52l2.44,5.72a1,1,0,0,1-.52,1.31A.91.91,0,0,1,87.7,98.73Z"/><path class="cls-6" d="M92.22,98.73a1,1,0,0,1-.4-.08,1,1,0,0,1-.52-1.31l2.45-5.72a1,1,0,0,1,1.84.79l-2.45,5.72A1,1,0,0,1,92.22,98.73Z"/><path class="cls-6" d="M84.68,101.75a1.09,1.09,0,0,1-.39-.08l-5.72-2.45a1,1,0,0,1-.52-1.32,1,1,0,0,1,1.31-.52l5.71,2.45a1,1,0,0,1-.39,1.92Z"/><path class="cls-6" d="M79,108.72a1,1,0,0,1-.39-1.92l5.72-2.45a1,1,0,0,1,.78,1.84l-5.71,2.45A1.1,1.1,0,0,1,79,108.72Z"/><path class="cls-6" d="M95.23,101.75a1,1,0,0,1-.92-.61,1,1,0,0,1,.53-1.31l5.72-2.45a1,1,0,0,1,1.31.52,1,1,0,0,1-.53,1.32l-5.71,2.45A1.1,1.1,0,0,1,95.23,101.75Z"/><path class="cls-6" d="M101,108.72a1,1,0,0,1-.39-.08l-5.72-2.45a1,1,0,1,1,.79-1.84l5.71,2.45a1,1,0,0,1-.39,1.92Z"/><path class="cls-6" d="M94.67,115a1,1,0,0,1-.92-.61l-2.45-5.71a1,1,0,0,1,1.84-.79l2.45,5.72a1,1,0,0,1-.53,1.31A1.09,1.09,0,0,1,94.67,115Z"/><path class="cls-6" d="M85.25,115a1.1,1.1,0,0,1-.4-.08,1,1,0,0,1-.52-1.31l2.45-5.72a1,1,0,1,1,1.83.79l-2.44,5.71A1,1,0,0,1,85.25,115Z"/><path class="cls-11" d="M94.62,106.92a3.7,3.7,0,0,0,2.46,2.46c1.23.41,1.23.83,0,1.24a3.7,3.7,0,0,0-2.46,2.46c-.41,1.23-.83,1.23-1.24,0a3.7,3.7,0,0,0-2.46-2.46c-1.23-.41-1.23-.83,0-1.24a3.7,3.7,0,0,0,2.46-2.46C93.79,105.69,94.21,105.69,94.62,106.92Z"/><path class="cls-6" d="M98,115H81a1,1,0,0,1,0-2H98a1,1,0,0,1,0,2Z"/><path class="cls-6" d="M101.5,115H101a1,1,0,0,1,0-2h.5a1,1,0,0,1,0,2Z"/><path class="cls-6" d="M78,115H76.42a1,1,0,0,1,0-2H78a1,1,0,0,1,0,2Z"/><path class="cls-6" d="M35,110H12a1,1,0,0,1,0-2H35a1,1,0,0,1,0,2Z"/><path class="cls-6" d="M9,110H8.42a1,1,0,0,1,0-2H9a1,1,0,0,1,0,2Z"/><path class="cls-6" d="M119,109H96a1,1,0,0,1,0-2h23a1,1,0,0,1,0,2Z"/></g><path class="cls-19" d="M37.24,97.44a1.93,1.93,0,0,0-2.72,0l-4.79,6.16a1.81,1.81,0,0,0-.2,2.49c6.35,6.35,10.62,10.68,13.86,13.86a1.94,1.94,0,0,0,2.72,0l5.45-5.47a1.9,1.9,0,0,0,0-2.71Z"/><path class="cls-20" d="M51.56,111.77,48.82,109a1.91,1.91,0,0,1,0,2.72l-5.45,5.47a1.94,1.94,0,0,1-2.72,0c-.74-.73,1.27,1.3,2.74,2.74a1.94,1.94,0,0,0,2.72,0l5.45-5.47A1.9,1.9,0,0,0,51.56,111.77Z"/><path class="cls-14" d="M32.71,106.58l4.79-6.16a1.93,1.93,0,0,1,2.72,0l-3-3a1.93,1.93,0,0,0-2.72,0l-4.79,6.16a1.81,1.81,0,0,0-.2,2.49C34.47,111,32,107.25,32.71,106.58Z"/><path class="cls-21" d="M74.76,80c-1.45,2-5,4.74-7.8,6.78a20.55,20.55,0,0,1-4,2.44l0-.12c3.64-2.17,7-10.61,7-10.61-.3-1,1.46-5.38,4-7.53s6.87-2.79,6.87-.76l.14.2C77.85,72.61,75.73,76.67,74.76,80Z"/><path class="cls-21" d="M81.29,70.17c3.09-2,6.73-.63,4.14,2.59-3.35,4.17-3.25,7.56-4.71,10.48-.23,3.27-5.08,6.88-7.07,9.24a40.6,40.6,0,0,1-9.74,8.87,151.34,151.34,0,0,0-13.41,9.36L40,100.23l.47-.48a16.49,16.49,0,0,1,3.19-10.32,31.65,31.65,0,0,0,3.65-7c1.52-8.31-.44-9.74.79-12.15.66-1.28,3.42-2,5-.21A9.71,9.71,0,0,1,55,76.93c-.36,4.78-1.59,9.7,1,11.63a6.3,6.3,0,0,0,6.88.69,20.55,20.55,0,0,0,4-2.44c2.77-2,6.35-4.75,7.8-6.78,1-3.36,3.09-7.42,6.16-9.6Z"/><g class="cls-22"><path class="cls-23" d="M78.7,80.57c-.23,3.27-5.92,6.69-7.91,9.05a40.81,40.81,0,0,1-9.74,8.87,151.34,151.34,0,0,0-13.41,9.36l2.86,2.86a151.34,151.34,0,0,1,13.41-9.36,40.6,40.6,0,0,0,9.74-8.87c2-2.36,6.84-6,7.07-9.24a95.8,95.8,0,0,0,4.71-10.48C87.76,66.62,80.61,75.32,78.7,80.57Z"/></g><g class="cls-24"><path class="cls-11" d="M67.23,89.25a20.26,20.26,0,0,0,4-2.44c2.78-2,6.35-4.75,7.8-6.78,1-3.36,3.09-7.42,6.16-9.6l.38-.26.42-.23c-.76-.93-2.84-1-4.72.23l-.37.26c-3.07,2.18-5.19,6.24-6.16,9.6-1.45,2-5,4.74-7.8,6.78a20.55,20.55,0,0,1-4,2.44c-.27.12-.54.21-.8.3A6.38,6.38,0,0,0,67.23,89.25Z"/><path class="cls-11" d="M42.22,102.74l1.24-1.44a5.56,5.56,0,0,0,1.35-3.23A16.75,16.75,0,0,1,48,89.43a32.06,32.06,0,0,0,3.64-7c1.52-8.31-.44-9.74.79-12.15a1.66,1.66,0,0,1,.4-.49c-1.63-1.35-4.07-.71-4.69.49-1.23,2.41.73,3.84-.79,12.15a31.65,31.65,0,0,1-3.65,7A16.49,16.49,0,0,0,40.5,99.75l-.47.48Z"/></g><path class="cls-25" d="M73.91,71a10.89,10.89,0,0,0-2,2.3h6.16a13.33,13.33,0,0,1,2.85-2.86l-.14-.2C80.78,68.2,76.5,68.84,73.91,71Z"/><path class="cls-26" d="M50.46,111.74a1,1,0,0,1-.71-.3,1,1,0,0,1,0-1.41l.16-.13a151.46,151.46,0,0,1,13.48-9.4,39.23,39.23,0,0,0,9.5-8.67c.57-.67,1.34-1.42,2.16-2.22,2-2,4.53-4.43,4.67-6.44a1,1,0,0,1,.11-.38,18.86,18.86,0,0,0,1.09-3.05,20.17,20.17,0,0,1,3.73-7.6c.57-.71.8-1.35.58-1.59s-1.81-.55-3.4.47l-.31.21c-3,2.09-4.93,6.06-5.8,9.08a1.4,1.4,0,0,1-.15.3c-1.44,2-4.7,4.57-8,7a20.68,20.68,0,0,1-4.23,2.55,7.3,7.3,0,0,1-7.86-.8c-2.55-1.9-2.13-5.71-1.69-9.75.1-.91.2-1.84.27-2.77a8.76,8.76,0,0,0-1.63-6.09,2.36,2.36,0,0,0-2.07-.7,1.79,1.79,0,0,0-1.32.7,4.42,4.42,0,0,0-.23,2.76,29.82,29.82,0,0,1-.46,9.11A33.11,33.11,0,0,1,44.5,90a15.62,15.62,0,0,0-3,9.63,1,1,0,0,1-2,.18,17.31,17.31,0,0,1,3.38-11,32,32,0,0,0,3.49-6.65,27.64,27.64,0,0,0,.42-8.49,6.29,6.29,0,0,1,.44-3.85,3.67,3.67,0,0,1,2.83-1.77,4.3,4.3,0,0,1,3.82,1.33C55.4,71.06,56.26,74.11,56,77c-.07,1-.18,1.91-.28,2.84-.38,3.45-.74,6.71.89,7.91a5.33,5.33,0,0,0,5.89.58A18.93,18.93,0,0,0,66.36,86c2.1-1.55,6-4.39,7.48-6.43.55-1.81,2.42-7.08,6.5-10l.4-.28c2.21-1.41,4.77-1.46,6-.13.35.4,1.35,1.86-.51,4.18a18,18,0,0,0-3.37,6.92,21.29,21.29,0,0,1-1.14,3.2c-.31,2.7-2.93,5.26-5.26,7.53-.78.76-1.52,1.48-2,2.08a41.25,41.25,0,0,1-10,9.08,154.08,154.08,0,0,0-13.31,9.28l-.09.07A1.05,1.05,0,0,1,50.46,111.74Z"/><path class="cls-26" d="M62.9,90.13a1,1,0,0,1-.86-.49,1,1,0,0,1,.34-1.37c2.65-1.58,5.48-7.46,6.47-9.89-.09-1.91,2-6.1,4.42-8.16,2.23-1.84,5.56-2.72,7.27-1.91a2.06,2.06,0,0,1,1.24,1.92,1,1,0,0,1-2,0c0-.08-.16-.18-.5-.21a7.39,7.39,0,0,0-4.73,1.74c-2.34,1.95-3.79,5.78-3.71,6.51a.85.85,0,0,1,0,.61c-.14.36-3.52,8.79-7.4,11.11A1.06,1.06,0,0,1,62.9,90.13Z"/><path class="cls-26" d="M44.76,121.5a3,3,0,0,1-2.07-.84c-2-2-4.52-4.48-7.64-7.62l-6.23-6.25a2.76,2.76,0,0,1,.16-3.85l4.75-6.11.08-.09a2.86,2.86,0,0,1,2.07-.86h0a2.89,2.89,0,0,1,2.08.86l2.78,2.79h0l11.53,11.53a2.91,2.91,0,0,1,0,4.14l-5.44,5.46A2.92,2.92,0,0,1,44.76,121.5ZM35.27,98.11l-4.75,6.1-.08.09c-.3.3-.45.83-.2,1.08l6.23,6.25c3.12,3.13,5.58,5.61,7.62,7.6a.94.94,0,0,0,1.32,0l5.45-5.46a.91.91,0,0,0,.27-.66.87.87,0,0,0-.27-.64L36.53,98.15a.88.88,0,0,0-.65-.27h0A.91.91,0,0,0,35.27,98.11Z"/><path class="cls-26" d="M35.88,103.9a1,1,0,0,1-.38-.08,1.07,1.07,0,0,1-.54-.54.94.94,0,0,1,0-.76.83.83,0,0,1,.22-.33,1,1,0,0,1,1.41,0,1,1,0,0,1,.22.33,1,1,0,0,1,.07.38,1,1,0,0,1-.29.7.87.87,0,0,1-.32.22A1,1,0,0,1,35.88,103.9Z"/><path class="cls-26" d="M76,82.06a.9.9,0,0,1-.28,0,2.78,2.78,0,0,1-1.93-1.74,1,1,0,1,1,1.93-.49,1.45,1.45,0,0,0,.56.31,1,1,0,0,1-.28,2Z"/><path class="cls-26" d="M53.75,91.67a1,1,0,0,1-.86-1.51,8.32,8.32,0,0,0,.66-4,1,1,0,0,1,2-.31,9.83,9.83,0,0,1-.91,5.36A1,1,0,0,1,53.75,91.67Z"/><path class="cls-26" d="M70.64,79.81a3,3,0,0,1-.79-.1,1,1,0,1,1,.55-1.92,2.49,2.49,0,0,0,.75,0,1,1,0,0,1,.33,2A5.83,5.83,0,0,1,70.64,79.81Z"/><path class="cls-26" d="M49.42,78a2.68,2.68,0,0,1-1.87-.76,1,1,0,0,1,.05-1.42,1,1,0,0,1,1.39,0,.72.72,0,0,0,.58.14,1,1,0,0,1,1.16.8,1,1,0,0,1-.8,1.16A2.32,2.32,0,0,1,49.42,78Z"/><path class="cls-27" d="M112.88,69H15.12a4,4,0,0,1-3.88-3L10,61H118l-1.24,5A4,4,0,0,1,112.88,69Z"/><path class="cls-28" d="M107.76,61,107,69h5.91a4,4,0,0,0,3.89-3l1.2-5Z"/><polygon class="cls-29" points="30.5 61 31.77 69 45.5 69 45 61 30.5 61"/><polygon class="cls-29" points="49 61 49.42 69 56.17 69 56 61 49 61"/><path class="cls-26" d="M112.88,70H15.12a5,5,0,0,1-4.85-3.79L9,61.24a1,1,0,0,1,.18-.85A1,1,0,0,1,10,60H118a1,1,0,0,1,1,1.24l-1.24,5A5,5,0,0,1,112.88,70ZM11.28,62l.93,3.73A3,3,0,0,0,15.12,68h97.76a3,3,0,0,0,2.91-2.27l.93-3.73Z"/><path class="cls-26" d="M120,62H8a1,1,0,0,1,0-2H120a1,1,0,0,1,0,2Z"/><path class="cls-30" d="M117.23,65H10.75a1,1,0,0,1,0-2H117.23a1,1,0,1,1,0,2Z"/><rect class="cls-8" height="34" width="67" x="30" y="18"/><rect class="cls-31" height="17" width="67" x="30" y="35"/><path class="cls-9" d="M93,43.58A4.43,4.43,0,0,0,88.57,48H38.42A4.42,4.42,0,0,0,34,43.58V26.42A4.42,4.42,0,0,0,38.42,22H88.57A4.43,4.43,0,0,0,93,26.42Z"/><path class="cls-6" d="M97,53H30a1,1,0,0,1-1-1V18a1,1,0,0,1,1-1H97a1,1,0,0,1,1,1V52A1,1,0,0,1,97,53ZM31,51H96V19H31Z"/><path class="cls-31" d="M33.5,35v9A4.49,4.49,0,0,1,38,48.5H89A4.49,4.49,0,0,1,93.5,44V35Z"/><path class="cls-6" d="M88.57,49H38.42a1,1,0,0,1-1-1A3.42,3.42,0,0,0,34,44.58a1,1,0,0,1-1-1V26.42a1,1,0,0,1,1-1A3.42,3.42,0,0,0,37.42,22a1,1,0,0,1,1-1H88.57a1,1,0,0,1,1,1A3.43,3.43,0,0,0,93,25.42a1,1,0,0,1,1,1V43.58a1,1,0,0,1-1,1A3.43,3.43,0,0,0,89.57,48,1,1,0,0,1,88.57,49ZM39.33,47H87.67A5.41,5.41,0,0,1,92,42.68V27.33A5.44,5.44,0,0,1,87.67,23H39.33A5.44,5.44,0,0,1,35,27.33V42.68A5.41,5.41,0,0,1,39.33,47Z"/><ellipse class="cls-8" cx="63.5" cy="36.5" rx="9.6" ry="12"/><path class="cls-6" d="M63.5,49.5c-5.85,0-10.6-5.83-10.6-13s4.75-13,10.6-13,10.6,5.83,10.6,13S69.34,49.5,63.5,49.5Zm0-24c-4.74,0-8.6,4.94-8.6,11s3.86,11,8.6,11,8.6-4.93,8.6-11S68.24,25.5,63.5,25.5Z"/><circle class="cls-8" cx="44" cy="35" r="2"/><path class="cls-6" d="M44,38a3,3,0,1,1,3-3A3,3,0,0,1,44,38Zm0-4a1,1,0,1,0,1,1A1,1,0,0,0,44,34Z"/><circle class="cls-6" cx="33.5" cy="21.5" r="0.5"/><path class="cls-6" d="M33.5,23A1.5,1.5,0,1,1,35,21.5,1.5,1.5,0,0,1,33.5,23Zm0-2a.5.5,0,0,0,0,1,.5.5,0,0,0,0-1Z"/><circle class="cls-6" cx="33.5" cy="48.5" r="0.5"/><path class="cls-6" d="M33.5,50A1.5,1.5,0,1,1,35,48.5,1.5,1.5,0,0,1,33.5,50Zm0-2a.5.5,0,0,0-.5.5.5.5,0,0,0,.5.5.5.5,0,0,0,.5-.5A.51.51,0,0,0,33.5,48Z"/><circle class="cls-6" cx="93.5" cy="21.5" r="0.5"/><path class="cls-6" d="M93.5,23A1.5,1.5,0,1,1,95,21.5,1.5,1.5,0,0,1,93.5,23Zm0-2a.5.5,0,0,0,0,1,.5.5,0,0,0,0-1Z"/><circle class="cls-6" cx="93.5" cy="48.5" r="0.5"/><path class="cls-6" d="M93.5,50A1.5,1.5,0,1,1,95,48.5,1.5,1.5,0,0,1,93.5,50Zm0-2a.51.51,0,0,0-.5.5.5.5,0,0,0,.5.5.5.5,0,0,0,.5-.5A.5.5,0,0,0,93.5,48Z"/><path class="cls-9" d="M67.45,43.11,66.91,43a.65.65,0,0,1-.55-.67c0-.36,0-.75,0-1.14,0-.91,1.1-2,1.16-3.29a5.27,5.27,0,0,0,.57-2.1,1.07,1.07,0,0,0-.26-.8c.09-.48.17-1,.26-1.5.38-2.09-.35-3.59-2.18-4.24-.67-.24-3.41-.72-4.43-1.71-.37-.35-.12,1.67-.46,1.82a3.34,3.34,0,0,0-2.13,4.13c.09.52.17,1,.26,1.5a1.07,1.07,0,0,0-.26.8,5.27,5.27,0,0,0,.57,2.1c.06,1.28,1.16,2.31,1.16,3.29,0,.39,0,.78,0,1.14a.65.65,0,0,1-.55.67l-.6.12a10.72,10.72,0,0,0-3.27,1.2,9.2,9.2,0,0,0,6.28,4.13c.32,0,.65.06,1,.06h.09q.46,0,.93-.06a9.21,9.21,0,0,0,6.3-4.16A10.54,10.54,0,0,0,67.45,43.11Z"/><path class="cls-6" d="M63.48,49.5h-.09a7.68,7.68,0,0,1-1-.07,10.13,10.13,0,0,1-7-4.56,1,1,0,0,1-.15-.79,1,1,0,0,1,.48-.64,12,12,0,0,1,3.57-1.31l.34-.07v-.89a3.13,3.13,0,0,0-.41-1,5.87,5.87,0,0,1-.73-2,6,6,0,0,1-.59-2.36,2.43,2.43,0,0,1,.2-1c0-.14,0-.27-.07-.41l-.12-.7a4.27,4.27,0,0,1,2.31-5c0-.13,0-.27,0-.37,0-.7.07-1.42.77-1.69a1.06,1.06,0,0,1,1.16.25,9.57,9.57,0,0,0,3.23,1.24c.37.09.67.17.84.23,2.27.81,3.31,2.76,2.84,5.37l-.12.68c0,.14,0,.29-.07.43a2.46,2.46,0,0,1,.2,1,6,6,0,0,1-.59,2.36,6,6,0,0,1-.75,2.08,3.45,3.45,0,0,0-.39,1v.88l.28.07a11.3,11.3,0,0,1,3.64,1.28,1,1,0,0,1,.33,1.44,10.14,10.14,0,0,1-7,4.58c-.35,0-.7.06-1,.07Zm-5.73-4.83a7.79,7.79,0,0,0,4.88,2.77,5.71,5.71,0,0,0,.86.06h.08q.41,0,.81-.06a7.78,7.78,0,0,0,4.88-2.79,10.73,10.73,0,0,0-2-.56h0L66.69,44a1.63,1.63,0,0,1-1.33-1.69c0-.34,0-.71,0-1.09A4.11,4.11,0,0,1,66,39.31a4.07,4.07,0,0,0,.54-1.47,1,1,0,0,1,.1-.39,4.4,4.4,0,0,0,.47-1.66.79.79,0,0,0,0-.16.84.84,0,0,1-.23-.82c0-.26.09-.52.14-.79l.12-.71c.29-1.63-.21-2.65-1.54-3.12a6.64,6.64,0,0,0-.66-.18,18.35,18.35,0,0,1-2.74-.87,1.35,1.35,0,0,1-.74,1.13,2.37,2.37,0,0,0-1.56,3L60,34c0,.26.08.52.13.77a1,1,0,0,1-.24.85v.13a4.4,4.4,0,0,0,.47,1.66,1,1,0,0,1,.1.39A3.62,3.62,0,0,0,61,39.25a4.24,4.24,0,0,1,.63,1.93c0,.38,0,.75,0,1.09A1.65,1.65,0,0,1,60.27,44l-.59.12A10.57,10.57,0,0,0,57.75,44.67ZM59.9,42h0Zm7.18,0h0ZM60.62,28.44h0Z"/><path class="cls-8" d="M76,48H69.49a11.21,11.21,0,0,0-6-1.5,11.22,11.22,0,0,0-6,1.5H51v4H76Z"/><path class="cls-6" d="M76,53H51a1,1,0,0,1-1-1V48a1,1,0,0,1,1-1h6.21a12.5,12.5,0,0,1,6.29-1.5A12.49,12.49,0,0,1,69.78,47H76a1,1,0,0,1,1,1v4A1,1,0,0,1,76,53ZM52,51H75V49H69.49a1,1,0,0,1-.55-.17A10.38,10.38,0,0,0,63.5,47.5a10.36,10.36,0,0,0-5.44,1.33,1,1,0,0,1-.56.17H52Z"/><path class="cls-6" d="M48.49,41h-9a1,1,0,0,1,0-2h9a1,1,0,1,1,0,2Z"/><circle class="cls-8" cx="83" cy="35" r="2"/><path class="cls-6" d="M83,38a3,3,0,1,1,3-3A3,3,0,0,1,83,38Zm0-4a1,1,0,1,0,1,1A1,1,0,0,0,83,34Z"/><path class="cls-6" d="M87.5,41h-9a1,1,0,0,1,0-2h9a1,1,0,0,1,0,2Z"/><rect class="cls-8" height="2.99" width="67" x="30" y="52.01"/><path class="cls-6" d="M97,56H30a1,1,0,0,1-1-1V52a1,1,0,0,1,1-1H97a1,1,0,0,1,1,1v3A1,1,0,0,1,97,56ZM31,54H96V53H31Z"/><rect class="cls-8" height="2.99" width="67" x="30" y="55.01"/><path class="cls-6" d="M97,59H30a1,1,0,0,1-1-1V55a1,1,0,0,1,1-1H97a1,1,0,0,1,1,1v3A1,1,0,0,1,97,59ZM31,57H96V56H31Z"/><rect class="cls-8" height="2.99" width="67" x="30" y="58.01"/><path class="cls-6" d="M97,62H30a1,1,0,0,1-1-1V58a1,1,0,0,1,1-1H97a1,1,0,0,1,1,1v3A1,1,0,0,1,97,62ZM31,60H96V59H31Z"/><rect class="cls-10" height="44" width="13" x="57" y="17"/><rect class="cls-11" height="5" width="13" x="57" y="17"/><rect class="cls-12" height="10" width="13" x="57" y="51.01"/><path class="cls-6" d="M70,62H57a1,1,0,0,1-1-1V17a1,1,0,0,1,1-1H70a1,1,0,0,1,1,1V61A1,1,0,0,1,70,62ZM58,60H69V18H58Z"/></svg>