<?xml version="1.0" ?><!DOCTYPE svg  PUBLIC '-//W3C//DTD SVG 1.1//EN'  'http://www.w3.org/Graphics/SVG/1.1/DTD/svg11.dtd'><svg height="256px" style="shape-rendering:geometricPrecision; text-rendering:geometricPrecision; image-rendering:optimizeQuality; fill-rule:evenodd; clip-rule:evenodd" version="1.1" viewBox="0 0 256000 256000" width="256px" xml:space="preserve" xmlns="http://www.w3.org/2000/svg" xmlns:xlink="http://www.w3.org/1999/xlink"><defs><style type="text/css">
   <![CDATA[
    .fil11 {fill:none}
    .fil2 {fill:#2CB1E5}
    .fil8 {fill:#ACACAC}
    .fil1 {fill:#BDBDBD}
    .fil6 {fill:#CD151E}
    .fil10 {fill:#E0E0E0}
    .fil5 {fill:#E2E2E2}
    .fil9 {fill:#EEEEEE}
    .fil3 {fill:#F3F3F3}
    .fil7 {fill:#FA5153}
    .fil4 {fill:white}
    .fil0 {fill:#757575;fill-rule:nonzero}
   ]]>
  </style></defs><g id="Layer_x0020_1"><g id="_399697888"><path class="fil0" d="M100439 0c7441,0 14217,2278 19156,5963 5194,3873 8405,9303 8405,15369 0,6065 -3211,11494 -8405,15369 -4939,3683 -11715,5963 -19156,5963 -7442,0 -14218,-2280 -19158,-5963 -5192,-3875 -8404,-9304 -8404,-15369 0,-6066 3212,-11496 8404,-15369 4940,-3685 11716,-5963 19158,-5963zm15526 10828c-3937,-2936 -9425,-4752 -15526,-4752 -6103,0 -11590,1816 -15526,4752 -3682,2748 -5961,6466 -5961,10504 0,4037 2279,7756 5961,10504 3936,2936 9423,4752 15526,4752 6101,0 11589,-1816 15526,-4752 3682,-2748 5959,-6467 5959,-10504 0,-4038 -2277,-7756 -5959,-10504z"/><circle class="fil1" cx="104617" cy="40046" r="12484"/></g><g id="_399697720"><ellipse class="fil2" cx="128000" cy="149741" rx="97211" ry="97210"/><path class="fil3" d="M128164 76175c-657,0 -1232,-492 -1232,-1149l0 -17159c0,-658 575,-1150 1232,-1150 657,0 1232,492 1232,1150l0 17159c-83,657 -575,1149 -1232,1149l0 0z"/><path class="fil4" d="M128164 76258c-739,0 -1313,-575 -1313,-1232l0 -17159c0,-658 574,-1232 1313,-1232 740,0 1314,574 1314,1232l0 17159c0,657 -657,1232 -1314,1232l0 0zm0 -19459c-575,0 -1149,493 -1149,1068l0 17159c0,575 492,1068 1149,1068 575,0 1149,-493 1149,-1068l0 -17159c-81,-575 -574,-1068 -1149,-1068l0 0z"/><path class="fil3" d="M136374 66981c-657,-83 -1149,-576 -1149,-1232l575 -7636c82,-657 657,-1149 1313,-1067 657,82 1150,574 1150,1231l-574 7636c-83,656 -657,1149 -1315,1068l0 0z"/><path class="fil4" d="M136374 67062c-738,-81 -1231,-657 -1231,-1313l574 -7636c83,-657 657,-1232 1396,-1149 740,82 1232,656 1232,1313l-575 7636c-81,739 -657,1232 -1396,1149l0 0zm739 -9934c-574,0 -1149,410 -1149,985l-575 7636c0,575 411,1067 1068,1149 575,0 1149,-410 1149,-985l575 -7636c0,-574 -492,-1068 -1068,-1149l0 0z"/><path class="fil3" d="M142532 77654c-656,-165 -1067,-739 -985,-1396l3366 -16832c165,-657 740,-1066 1397,-902 656,164 1066,738 985,1396l-3367 16831c-82,574 -739,985 -1396,903l0 0z"/><path class="fil4" d="M142532 77736c-739,-165 -1149,-821 -1067,-1478l3367 -16832c163,-657 821,-1149 1559,-985 739,164 1149,821 1068,1479l-3366 16831c-165,656 -821,1066 -1561,985l0 0zm3859 -19131c-575,-81 -1149,247 -1313,821l-3367 16832c-82,575 247,1149 903,1313 575,83 1150,-246 1314,-820l3367 -16831c81,-658 -329,-1151 -904,-1315l0 0z"/><path class="fil3" d="M152385 70264c-657,-164 -1068,-821 -903,-1478l2052 -7389c165,-656 821,-985 1478,-820 657,164 1068,820 903,1477l-2052 7389c-164,657 -821,985 -1478,821l0 0z"/><path class="fil4" d="M152385 70347c-657,-165 -1150,-904 -903,-1561l2052 -7389c165,-656 903,-1067 1561,-903 656,164 1149,903 902,1560l-2052 7389c-165,657 -822,1068 -1560,904l0 0zm2710 -9606c-576,-164 -1232,164 -1396,738l-2053 7390c-164,574 164,1149 821,1313 575,165 1232,-164 1396,-739l2052 -7389c82,-575 -246,-1149 -820,-1313l0 0z"/><path class="fil3" d="M156408 81841c-657,-247 -904,-985 -657,-1560l6568 -15846c247,-575 985,-903 1561,-575 656,247 902,985 656,1560l-6568 15846c-247,575 -986,904 -1560,575l0 0z"/><path class="fil4" d="M156408 81923c-657,-246 -985,-985 -739,-1642l6568 -15846c247,-656 986,-903 1724,-656 657,245 985,985 740,1641l-6569 15846c-328,657 -1067,985 -1724,657l0 0zm7472 -17980c-576,-247 -1232,0 -1479,574l-6568 15845c-246,576 82,1151 656,1397 576,246 1232,0 1479,-574l6568 -15847c165,-493 -82,-1150 -656,-1395l0 0z"/><path class="fil3" d="M167491 76586c-574,-328 -820,-985 -574,-1560l3448 -6815c328,-574 985,-821 1643,-492 574,328 821,985 574,1560l-3448 6815c-328,574 -986,821 -1643,492l0 0z"/><path class="fil4" d="M167491 76668c-656,-328 -902,-1067 -574,-1724l3448 -6814c328,-657 1068,-904 1725,-575 656,328 903,1067 575,1724l-3449 6815c-328,657 -1068,902 -1725,574l0 0zm4517 -8949c-575,-246 -1232,-82 -1479,492l-3447 6815c-247,493 0,1149 492,1478 574,247 1232,82 1478,-493l3449 -6814c245,-493 0,-1150 -493,-1478l0 0z"/><path class="fil3" d="M169134 88738c-575,-411 -739,-1150 -328,-1642l9523 -14204c329,-575 1068,-657 1642,-328 575,409 739,1149 330,1641l-9525 14204c-328,574 -1068,740 -1642,329l0 0z"/><path class="fil4" d="M169134 88820c-575,-411 -739,-1232 -411,-1807l9525 -14204c410,-574 1149,-738 1806,-328 575,411 739,1232 410,1807l-9524 14203c-411,575 -1232,739 -1806,329l0 0zm10837 -16175c-492,-328 -1231,-246 -1559,247l-9524 14204c-329,492 -165,1149 328,1478 492,328 1232,246 1560,-247l9525 -14122c328,-492 163,-1232 -330,-1560l0 0z"/><path class="fil3" d="M181121 85700c-492,-411 -657,-1149 -246,-1642l4762 -5994c411,-493 1149,-575 1642,-164 492,411 656,1149 246,1642l-4762 5994c-411,492 -1149,574 -1642,164l0 0z"/><path class="fil4" d="M181039 85781c-575,-409 -657,-1230 -246,-1806l4761 -5992c411,-576 1232,-658 1807,-166 574,411 657,1232 246,1807l-4762 5993c-410,575 -1231,658 -1806,164l0 0zm6158 -7798c-492,-412 -1149,-329 -1560,164l-4762 5993c-329,492 -246,1149 246,1560 493,410 1150,328 1559,-164l4763 -5994c328,-493 247,-1231 -246,-1559l0 0z"/><path class="fil3" d="M180301 98015c-494,-492 -494,-1232 0,-1641l12150 -12070c493,-493 1231,-410 1643,0 409,411 492,1232 0,1642l-12070 12069c-493,493 -1231,493 -1723,0l0 0z"/><path class="fil4" d="M180218 98098c-493,-494 -493,-1315 0,-1807l12151 -12069c493,-492 1313,-492 1806,0 494,493 494,1314 0,1806l-12151 12070c-493,492 -1314,492 -1806,0l0 0zm13876 -13794c-412,-410 -1150,-410 -1561,0l-12151 12070c-411,409 -411,1149 0,1560 411,410 1149,410 1560,0l12152 -12070c409,-411 409,-1068 0,-1560l0 0z"/><path class="fil3" d="M192616 97359c-411,-493 -411,-1232 81,-1642l5830 -4927c493,-411 1231,-328 1642,165 411,492 411,1230 -83,1641l-5828 4927c-493,411 -1232,328 -1642,-164l0 0z"/><path class="fil4" d="M192533 97441c-492,-575 -410,-1396 83,-1807l5829 -4926c492,-493 1313,-410 1806,164 492,575 411,1396 -82,1807l-5829 4925c-493,494 -1314,411 -1807,-163l0 0zm7553 -6486c-409,-493 -1066,-493 -1559,-165l-5830 4927c-409,410 -492,1066 -81,1559 410,494 1066,494 1559,165l5830 -4926c492,-411 492,-1068 81,-1560l0 0z"/><path class="fil3" d="M189331 109181c-410,-575 -247,-1313 329,-1641l14285 -9525c575,-328 1315,-164 1643,329 410,575 246,1313 -328,1641l-14287 9525c-492,328 -1231,164 -1642,-329l0 0z"/><path class="fil4" d="M189250 109181c-411,-575 -247,-1396 328,-1805l14286 -9525c575,-410 1396,-247 1806,411 411,574 246,1395 -329,1806l-14285 9523c-575,411 -1396,247 -1806,-410l0 0zm16255 -10756c-328,-491 -985,-655 -1477,-327l-14286 9523c-492,329 -658,985 -247,1560 329,493 986,657 1478,329l14287 -9525c492,-409 574,-1066 245,-1560l0 0z"/><path class="fil3" d="M201565 110906c-328,-575 -164,-1315 410,-1643l6651 -3776c575,-328 1313,-83 1642,492 328,576 164,1314 -410,1642l-6651 3777c-575,329 -1313,82 -1642,-492l0 0z"/><path class="fil4" d="M201483 110987c-329,-656 -165,-1396 411,-1724l6649 -3776c575,-328 1396,-83 1725,492 328,657 164,1397 -410,1725l-6651 3776c-575,328 -1396,83 -1724,-493l0 0zm8703 -4926c-328,-574 -985,-738 -1479,-410l-6649 3777c-493,329 -657,985 -411,1478 328,574 985,738 1477,410l6651 -3776c493,-247 657,-904 411,-1479l0 0z"/><path class="fil3" d="M196064 121825c-246,-657 0,-1313 656,-1560l15847 -6568c574,-246 1314,82 1559,657 247,656 0,1314 -656,1560l-15846 6568c-575,247 -1314,0 -1560,-657l0 0z"/><path class="fil4" d="M195982 121908c-247,-657 0,-1396 657,-1725l15846 -6568c656,-247 1396,82 1641,739 247,656 0,1396 -656,1724l-15846 6568c-657,247 -1396,-81 -1642,-738l0 0zm17980 -7472c-246,-575 -902,-821 -1395,-657l-15847 6569c-574,245 -821,903 -574,1477 246,575 903,821 1395,657l15847 -6568c574,-246 821,-904 574,-1478l0 0z"/><path class="fil3" d="M207641 125931c-247,-657 81,-1314 738,-1561l7226 -2381c574,-245 1313,165 1478,740 245,656 -83,1313 -740,1560l-7225 2381c-575,246 -1232,-83 -1477,-739l0 0z"/><path class="fil4" d="M207558 126012c-246,-656 83,-1395 821,-1642l7226 -2381c657,-245 1395,165 1642,821 245,658 -83,1396 -821,1643l-7225 2380c-658,165 -1396,-163 -1643,-821l0 0zm9525 -3119c-165,-575 -821,-904 -1397,-739l-7224 2381c-576,164 -821,821 -657,1396 164,574 821,902 1396,739l7225 -2381c574,-247 821,-821 657,-1396l0 0z"/><path class="fil3" d="M200251 135701c-165,-657 246,-1314 903,-1396l16831 -3284c658,-164 1232,329 1396,985 164,657 -246,1314 -902,1396l-16832 3284c-657,83 -1314,-328 -1396,-985l0 0z"/><path class="fil4" d="M200086 135701c-164,-740 329,-1396 985,-1560l16832 -3284c657,-164 1314,328 1478,1067 164,739 -328,1396 -985,1560l-16831 3285c-657,164 -1314,-329 -1479,-1068l0 0zm19131 -3695c-82,-575 -657,-985 -1232,-903l-16831 3284c-574,82 -985,739 -821,1314 82,575 657,985 1232,903l16831 -3284c575,-164 985,-740 821,-1314l0 0z"/><path class="fil3" d="M210760 142023c-81,-658 328,-1232 985,-1314l7554 -903c657,-82 1231,410 1314,1067 83,658 -328,1232 -985,1314l-7553 903c-576,82 -1232,-410 -1315,-1067l0 0z"/><path class="fil4" d="M210679 142023c-83,-739 409,-1396 1066,-1478l7554 -903c657,-83 1314,410 1397,1149 81,740 -411,1396 -1068,1478l-7553 903c-658,82 -1315,-411 -1396,-1149l0 0zm9934 -1150c-83,-574 -657,-1067 -1232,-985l-7553 903c-575,82 -985,657 -904,1232 83,574 657,1067 1232,985l7553 -903c576,-82 987,-657 904,-1232l0 0z"/><path class="fil3" d="M201565 149986c0,-656 493,-1230 1149,-1230l17160 0c656,0 1150,574 1150,1230 0,658 -494,1232 -1150,1232l-17160 0c-656,0 -1149,-574 -1149,-1232l0 0z"/><path class="fil4" d="M201483 149986c0,-738 575,-1313 1231,-1313l17160 0c656,0 1231,575 1231,1313 0,740 -575,1315 -1231,1315l-17160 0c-656,0 -1231,-575 -1231,-1315l0 0zm19458 83c0,-575 -492,-1149 -1067,-1149l-17160 0c-575,0 -1067,492 -1067,1149 0,575 492,1149 1067,1149l17160 0c575,-81 1067,-574 1067,-1149l0 0z"/><path class="fil3" d="M210679 158279c81,-657 574,-1149 1230,-1149l7636 575c657,81 1151,657 1068,1313 -83,657 -575,1149 -1232,1149l-7636 -574c-574,-82 -1066,-656 -1066,-1314l0 0z"/><path class="fil4" d="M210596 158279c83,-738 657,-1231 1313,-1231l7636 574c657,83 1232,657 1151,1396 -83,740 -658,1232 -1315,1232l-7636 -575c-657,-82 -1149,-738 -1149,-1396l0 0zm10017 739c83,-575 -411,-1149 -985,-1149l-7636 -575c-575,0 -1068,411 -1149,1068 -83,575 410,1149 985,1149l7636 575c574,0 1066,-493 1149,-1068l0 0z"/><path class="fil3" d="M200086 164273c165,-657 740,-1068 1397,-985l16831 3366c657,164 1067,738 903,1396 -164,657 -738,1067 -1395,985l-16832 -3366c-575,-83 -985,-739 -904,-1396l0 0z"/><path class="fil4" d="M200005 164273c164,-739 821,-1149 1478,-1068l16831 3366c657,165 1150,821 985,1561 -164,739 -820,1149 -1477,1067l-16832 -3366c-657,-164 -1068,-821 -985,-1560l0 0zm19130 3859c82,-574 -247,-1150 -821,-1314l-16831 -3366c-575,-83 -1150,246 -1314,902 -83,576 246,1151 821,1315l16832 3366c657,82 1149,-328 1313,-903l0 0z"/><path class="fil3" d="M207477 174126c164,-658 820,-1068 1477,-904l7389 2053c657,164 985,821 821,1478 -164,656 -821,1067 -1478,903l-7389 -2053c-656,-164 -985,-821 -820,-1477l0 0z"/><path class="fil4" d="M207394 174126c164,-658 903,-1149 1560,-904l7389 2053c657,164 1068,903 904,1559 -164,658 -904,1150 -1561,904l-7389 -2053c-656,-164 -1067,-821 -903,-1559l0 0zm9606 2708c164,-574 -164,-1231 -738,-1395l-7390 -2053c-575,-164 -1150,165 -1314,821 -164,575 164,1232 739,1396l7389 2053c576,82 1150,-247 1314,-822l0 0z"/><path class="fil3" d="M195899 178066c247,-657 985,-902 1561,-657l15845 6568c576,247 904,987 657,1561 -246,656 -985,903 -1559,656l-15847 -6568c-657,-247 -902,-985 -657,-1560l0 0z"/><path class="fil4" d="M195818 177984c246,-656 985,-985 1642,-739l15845 6568c657,247 904,985 657,1725 -246,656 -985,985 -1642,739l-15845 -6569c-657,-329 -904,-1067 -657,-1724l0 0zm17980 7471c247,-574 0,-1231 -574,-1478l-15847 -6568c-574,-245 -1149,83 -1395,657 -247,575 0,1232 574,1479l15847 6568c574,164 1231,-83 1395,-658l0 0z"/><path class="fil3" d="M201237 189151c328,-576 985,-822 1559,-576l6815 3449c575,246 821,985 492,1642 -328,575 -985,821 -1560,575l-6814 -3449c-575,-328 -821,-1067 -492,-1641l0 0z"/><path class="fil4" d="M201154 189068c329,-657 1068,-902 1725,-574l6815 3448c656,328 902,1067 574,1724 -329,657 -1067,903 -1725,575l-6814 -3449c-658,-247 -903,-1067 -575,-1724l0 0zm8868 4516c246,-575 81,-1231 -493,-1478l-6815 -3448c-492,-247 -1149,0 -1477,493 -247,574 -83,1230 492,1477l6814 3448c575,247 1232,82 1479,-492l0 0z"/><path class="fil3" d="M189167 190711c411,-575 1068,-740 1642,-330l14287 9525c574,328 656,1067 328,1641 -411,576 -1068,740 -1642,329l-14287 -9523c-574,-411 -739,-1151 -328,-1642l0 0z"/><path class="fil4" d="M189084 190628c411,-575 1232,-739 1808,-411l14285 9525c575,411 739,1149 328,1805 -409,576 -1230,740 -1806,411l-14285 -9524c-658,-410 -739,-1232 -330,-1806l0 0zm16176 10838c328,-493 245,-1232 -247,-1560l-14286 -9525c-492,-328 -1149,-164 -1477,330 -329,491 -247,1231 245,1559l14287 9524c493,329 1149,164 1478,-328l0 0z"/><path class="fil3" d="M192205 202615c411,-492 1149,-657 1642,-247l5994 4681c492,410 574,1149 164,1642 -411,492 -1149,656 -1642,247l-5994 -4681c-492,-410 -574,-1149 -164,-1642l0 0z"/><path class="fil4" d="M192123 202534c410,-576 1231,-658 1806,-247l5993 4679c575,411 658,1232 247,1807 -411,574 -1232,657 -1806,246l-5994 -4679c-574,-411 -657,-1232 -246,-1806l0 0zm7882 6157c410,-493 328,-1149 -164,-1560l-5994 -4680c-493,-328 -1150,-246 -1559,247 -411,491 -330,1149 163,1559l5994 4681c492,328 1149,245 1560,-247l0 0z"/><path class="fil3" d="M179971 201794c493,-492 1232,-492 1643,0l12151 12069c493,492 410,1232 0,1643 -492,492 -1232,492 -1642,0l-12152 -12070c-410,-410 -410,-1231 0,-1642l0 0z"/><path class="fil4" d="M179971 201712c493,-493 1315,-493 1807,0l12151 12069c493,493 493,1314 0,1806 -492,493 -1313,493 -1806,0l-12152 -12068c-574,-493 -574,-1314 0,-1807l0 0zm13794 13711c410,-410 410,-1149 0,-1560l-12151 -12069c-411,-411 -1150,-411 -1560,0 -411,411 -411,1150 0,1561l12151 12068c411,493 1068,493 1560,0l0 0z"/><path class="fil3" d="M180710 214027c493,-410 1232,-410 1642,83l5009 5747c410,492 329,1232 -164,1642 -492,411 -1232,411 -1643,-82l-5008 -5747c-411,-411 -328,-1149 164,-1643l0 0z"/><path class="fil4" d="M180629 214027c574,-492 1313,-410 1806,83l5008 5747c492,492 411,1313 -164,1806 -574,492 -1314,411 -1806,-82l-5009 -5747c-410,-575 -410,-1396 165,-1807l0 0zm6568 7472c493,-410 493,-1067 164,-1559l-5009 -5748c-410,-411 -1066,-493 -1559,-82 -492,411 -492,1067 -164,1560l5008 5747c411,493 1068,493 1560,82l0 0z"/><path class="fil3" d="M168888 210908c575,-411 1313,-247 1641,328l9525 14204c328,575 164,1313 -329,1642 -575,411 -1313,247 -1641,-329l-9525 -14204c-328,-574 -164,-1313 329,-1641l0 0z"/><path class="fil4" d="M168888 210825c575,-410 1396,-246 1805,328l9525 14206c411,574 246,1394 -411,1805 -574,410 -1395,246 -1806,-328l-9524 -14204c-410,-657 -246,-1396 411,-1807l0 0zm10837 16175c493,-328 657,-985 329,-1478l-9525 -14203c-328,-494 -985,-575 -1560,-247 -492,328 -655,985 -327,1477l9523 14204c328,411 1068,576 1560,247l0 0z"/><path class="fil3" d="M167163 223059c575,-328 1314,-164 1643,411l3776 6650c328,575 83,1314 -492,1641 -576,329 -1314,166 -1642,-410l-3777 -6650c-247,-574 -82,-1314 492,-1642l0 0z"/><path class="fil4" d="M167163 222976c657,-328 1396,-163 1725,411l3777 6651c328,574 164,1396 -493,1723 -658,329 -1396,166 -1724,-410l-3777 -6650c-329,-574 -165,-1314 492,-1725l0 0zm4927 8704c492,-329 739,-985 411,-1478l-3778 -6651c-328,-492 -985,-656 -1477,-409 -493,328 -740,985 -411,1477l3777 6650c246,492 985,739 1478,411l0 0z"/><path class="fil3" d="M156244 217640c656,-246 1313,0 1560,575l6650 15846c247,574 -82,1313 -657,1560 -574,246 -1313,0 -1560,-575l-6650 -15846c-247,-575 82,-1313 657,-1560l0 0z"/><path class="fil4" d="M156244 217559c656,-247 1396,0 1724,656l6650 15846c247,657 -82,1396 -738,1642 -657,247 -1396,0 -1725,-657l-6651 -15846c-245,-575 83,-1313 740,-1641l0 0zm7471 17980c574,-246 821,-904 574,-1397l-6649 -15845c-247,-574 -904,-821 -1479,-574 -574,245 -821,902 -574,1395l6650 15845c329,576 903,822 1478,576l0 0z"/><path class="fil3" d="M152221 229299c657,-246 1313,82 1559,739l2381 7225c247,574 -164,1313 -738,1477 -657,247 -1315,-81 -1560,-738l-2381 -7226c-247,-574 81,-1230 739,-1477l0 0z"/><path class="fil4" d="M152138 229216c657,-246 1396,83 1642,739l2381 7225c247,657 -164,1396 -821,1643 -656,246 -1395,-83 -1641,-739l-2382 -7225c-164,-657 165,-1396 821,-1643l0 0zm3202 9443c575,-164 904,-822 740,-1396l-2381 -7225c-165,-575 -821,-822 -1397,-657 -574,165 -902,821 -739,1395l2382 7226c163,574 821,903 1395,657l0 0z"/><path class="fil3" d="M142532 221827c657,-164 1314,247 1396,904l3448 16830c164,658 -328,1232 -985,1396 -657,165 -1313,-246 -1396,-903l-3448 -16831c-82,-575 329,-1232 985,-1396l0 0z"/><path class="fil4" d="M142532 221746c740,-165 1396,328 1561,985l3447 16830c164,658 -328,1396 -985,1479 -739,164 -1396,-329 -1560,-986l-3448 -16831c-164,-657 246,-1313 985,-1477l0 0zm3859 19130c575,-83 985,-657 904,-1315l-3449 -16830c-82,-576 -738,-985 -1314,-821 -574,81 -985,656 -903,1313l3449 16831c164,575 738,903 1313,822l0 0z"/><path class="fil3" d="M136293 232501c656,-82 1231,328 1396,985l985 7554c81,657 -411,1231 -1068,1314 -657,81 -1232,-329 -1395,-986l-986 -7554c-82,-657 411,-1231 1068,-1313l0 0z"/><path class="fil4" d="M136293 232419c739,-82 1396,410 1477,1067l985 7554c83,657 -410,1314 -1149,1395 -738,83 -1395,-410 -1478,-1067l-985 -7554c-82,-657 410,-1313 1150,-1395l0 0zm1231 9852c574,-82 1067,-657 985,-1231l-985 -7554c-82,-574 -656,-985 -1231,-903 -576,82 -1068,657 -985,1231l985 7554c81,574 656,986 1231,903l0 0z"/><path class="fil3" d="M127836 223306c657,0 1232,492 1232,1149l0 17159c0,657 -575,1149 -1232,1149 -657,0 -1232,-492 -1232,-1149l0 -17159c83,-657 575,-1149 1232,-1149l0 0z"/><path class="fil4" d="M127836 223223c739,0 1313,575 1313,1232l0 17159c0,657 -574,1232 -1313,1232 -740,0 -1314,-575 -1314,-1232l0 -17159c0,-657 657,-1232 1314,-1232l0 0zm0 19459c575,0 1149,-493 1149,-1068l0 -17159c0,-575 -492,-1068 -1149,-1068 -575,0 -1149,493 -1149,1068l0 17159c81,575 574,1068 1149,1068l0 0z"/><path class="fil3" d="M119626 232501c657,82 1149,575 1149,1232l-575 7635c-82,657 -657,1150 -1313,1067 -657,-81 -1150,-574 -1150,-1231l574 -7636c83,-656 657,-1149 1315,-1067l0 0z"/><path class="fil4" d="M119626 232419c738,82 1231,657 1231,1314l-574 7635c-83,657 -657,1231 -1396,1150 -740,-83 -1232,-657 -1232,-1314l575 -7636c81,-739 657,-1231 1396,-1149l0 0zm-739 9935c574,0 1149,-412 1149,-986l575 -7635c0,-576 -411,-1068 -1068,-1150 -575,0 -1149,410 -1149,985l-575 7636c0,574 492,1067 1068,1150l0 0z"/><path class="fil3" d="M113468 221827c656,164 1067,739 985,1396l-3366 16831c-165,657 -740,1068 -1397,903 -656,-164 -1066,-738 -985,-1396l3367 -16830c82,-576 739,-985 1396,-904l0 0z"/><path class="fil4" d="M113468 221746c739,164 1149,820 1067,1477l-3367 16831c-163,657 -821,1150 -1559,986 -739,-164 -1149,-821 -1068,-1479l3366 -16830c165,-657 821,-1068 1561,-985l0 0zm-3859 19130c575,81 1149,-247 1313,-822l3367 -16831c82,-575 -247,-1149 -903,-1313 -575,-83 -1150,245 -1314,821l-3367 16830c-81,658 329,1150 904,1315l0 0z"/><path class="fil3" d="M103615 229216c657,165 1068,822 903,1479l-2052 7389c-165,656 -821,985 -1478,821 -657,-165 -1068,-821 -903,-1478l2052 -7389c164,-657 821,-985 1478,-822l0 0z"/><path class="fil4" d="M103615 229135c657,164 1150,903 903,1560l-2052 7389c-165,656 -903,1068 -1561,903 -656,-164 -1149,-903 -902,-1560l2052 -7389c165,-657 822,-1068 1560,-903l0 0zm-2710 9605c576,165 1232,-164 1396,-738l2053 -7390c164,-574 -164,-1149 -821,-1313 -575,-164 -1232,164 -1396,739l-2052 7389c-82,575 246,1149 820,1313l0 0z"/><path class="fil3" d="M99592 217640c657,247 904,985 657,1560l-6568 15846c-247,575 -985,904 -1561,575 -574,-328 -902,-986 -656,-1560l6568 -15846c247,-575 986,-903 1560,-575l0 0z"/><path class="fil4" d="M99592 217559c657,245 985,985 739,1641l-6568 15846c-247,657 -986,904 -1724,657 -657,-246 -985,-985 -740,-1642l6569 -15846c328,-656 1067,-986 1724,-656l0 0zm-7472 17980c576,246 1232,0 1479,-576l6568 -15845c246,-574 -82,-1150 -656,-1395 -576,-247 -1232,0 -1479,574l-6568 15845c-165,493 82,1151 656,1397l0 0z"/><path class="fil3" d="M88509 222895c574,328 820,985 574,1560l-3448 6814c-328,575 -985,821 -1643,492 -574,-327 -821,-985 -574,-1559l3448 -6815c328,-574 986,-821 1643,-492l0 0z"/><path class="fil4" d="M88509 222813c656,329 902,1067 574,1724l-3448 6814c-328,657 -1068,904 -1725,576 -656,-330 -903,-1068 -575,-1725l3449 -6815c328,-656 1068,-902 1725,-574l0 0zm-4517 8948c575,247 1232,83 1479,-492l3447 -6814c247,-493 0,-1149 -492,-1479 -574,-245 -1232,-81 -1478,494l-3449 6814c-245,492 0,1150 493,1477l0 0z"/><path class="fil3" d="M86866 210744c575,409 739,1149 328,1641l-9523 14204c-329,575 -1068,657 -1642,329 -575,-410 -739,-1150 -330,-1642l9525 -14204c328,-575 1068,-739 1642,-328l0 0z"/><path class="fil4" d="M86866 210661c575,411 739,1232 411,1807l-9525 14204c-410,574 -1149,738 -1806,328 -575,-411 -739,-1232 -410,-1807l9524 -14204c411,-574 1232,-738 1806,-328l0 0zm-10837 16175c492,328 1231,246 1559,-247l9524 -14204c329,-492 165,-1149 -328,-1477 -492,-329 -1232,-247 -1560,245l-9525 14123c-328,492 -163,1232 330,1560l0 0z"/><path class="fil3" d="M74879 213781c492,411 657,1150 246,1642l-4762 5994c-411,493 -1149,574 -1642,164 -492,-411 -656,-1149 -246,-1641l4762 -5994c411,-493 1149,-576 1642,-165l0 0z"/><path class="fil4" d="M74961 213699c575,411 657,1232 246,1807l-4761 5993c-411,575 -1232,656 -1807,164 -574,-410 -657,-1231 -246,-1806l4762 -5994c410,-574 1231,-657 1806,-164l0 0zm-6158 7800c492,411 1149,328 1560,-164l4762 -5993c329,-493 246,-1150 -246,-1561 -493,-411 -1150,-328 -1559,165l-4763 5994c-328,492 -247,1230 246,1559l0 0z"/><path class="fil3" d="M75699 201466c494,492 494,1232 0,1642l-12150 12069c-493,493 -1231,410 -1643,0 -409,-411 -492,-1231 0,-1642l12070 -12069c493,-493 1231,-493 1723,0l0 0z"/><path class="fil4" d="M75782 201383c493,493 493,1315 0,1806l-12151 12070c-493,492 -1313,492 -1806,0 -494,-493 -494,-1313 0,-1806l12151 -12070c493,-492 1314,-492 1806,0l0 0zm-13876 13794c412,410 1150,410 1561,0l12151 -12069c411,-410 411,-1150 0,-1561 -411,-409 -1149,-409 -1560,0l-12152 12070c-409,410 -409,1068 0,1560l0 0z"/><path class="fil3" d="M63384 202123c411,492 411,1232 -81,1641l-5830 4927c-493,411 -1231,328 -1642,-164 -411,-493 -411,-1232 83,-1642l5828 -4927c493,-411 1232,-328 1642,165l0 0z"/><path class="fil4" d="M63467 202040c492,575 410,1396 -83,1807l-5829 4926c-492,493 -1313,410 -1806,-165 -492,-574 -411,-1395 82,-1806l5829 -4926c493,-493 1314,-410 1807,164l0 0zm-7553 6487c409,492 1066,492 1559,164l5830 -4927c409,-409 492,-1066 81,-1559 -410,-493 -1066,-493 -1559,-165l-5830 4926c-492,411 -492,1068 -81,1561l0 0z"/><path class="fil3" d="M66669 190300c410,574 247,1313 -329,1642l-14285 9524c-575,328 -1315,164 -1643,-328 -410,-576 -246,-1314 328,-1643l14287 -9524c492,-328 1231,-164 1642,329l0 0z"/><path class="fil4" d="M66750 190300c411,574 247,1396 -328,1806l-14286 9524c-575,410 -1396,246 -1806,-411 -411,-574 -246,-1395 329,-1806l14285 -9524c575,-410 1396,-246 1806,411l0 0zm-16255 10755c328,492 985,657 1477,328l14286 -9523c492,-328 658,-986 247,-1560 -329,-493 -986,-657 -1478,-329l-14287 9524c-492,411 -574,1067 -245,1560l0 0z"/><path class="fil3" d="M54435 188575c328,576 164,1314 -410,1642l-6651 3777c-575,329 -1313,82 -1642,-492 -328,-575 -164,-1314 410,-1642l6651 -3777c575,-328 1313,-83 1642,492l0 0z"/><path class="fil4" d="M54517 188494c329,657 165,1395 -411,1723l-6649 3777c-575,329 -1396,82 -1725,-492 -328,-657 -164,-1396 410,-1725l6651 -3777c575,-328 1396,-81 1724,494l0 0zm-8703 4925c328,575 985,739 1479,411l6649 -3777c493,-328 657,-985 411,-1478 -328,-575 -985,-738 -1477,-409l-6651 3776c-493,246 -657,903 -411,1477l0 0z"/><path class="fil3" d="M59936 177656c246,657 0,1313 -656,1559l-15847 6569c-574,246 -1314,-82 -1559,-657 -247,-657 0,-1314 656,-1560l15846 -6568c575,-246 1314,0 1560,657l0 0z"/><path class="fil4" d="M60018 177573c247,657 0,1396 -657,1725l-15846 6568c-656,247 -1396,-82 -1641,-739 -247,-657 0,-1395 656,-1724l15846 -6569c657,-246 1396,83 1642,739l0 0zm-17980 7472c246,575 902,821 1395,657l15847 -6568c574,-247 821,-904 574,-1478 -246,-575 -903,-822 -1395,-657l-15847 6568c-574,246 -821,903 -574,1478l0 0z"/><path class="fil3" d="M48359 173551c247,656 -81,1313 -738,1560l-7226 2381c-574,246 -1313,-164 -1478,-739 -245,-657 83,-1314 740,-1561l7225 -2381c575,-246 1232,83 1477,740l0 0z"/><path class="fil4" d="M48442 173468c246,658 -83,1396 -821,1643l-7226 2381c-657,246 -1395,-164 -1642,-821 -245,-658 83,-1396 821,-1643l7225 -2381c658,-164 1396,164 1643,821l0 0zm-9525 3120c165,576 821,904 1397,740l7224 -2381c576,-165 821,-821 657,-1396 -164,-574 -821,-904 -1396,-740l-7225 2381c-574,247 -821,821 -657,1396l0 0z"/><path class="fil3" d="M55749 163780c165,657 -246,1314 -903,1396l-16831 3284c-658,164 -1232,-328 -1396,-985 -164,-657 246,-1313 902,-1396l16832 -3284c657,-82 1314,329 1396,985l0 0z"/><path class="fil4" d="M55914 163780c164,739 -329,1396 -985,1561l-16832 3283c-657,164 -1314,-328 -1478,-1066 -164,-740 328,-1396 985,-1561l16831 -3284c657,-164 1314,328 1479,1067l0 0zm-19131 3695c82,575 657,985 1232,903l16831 -3284c574,-82 985,-740 821,-1314 -82,-575 -657,-985 -1232,-903l-16831 3285c-575,164 -985,738 -821,1313l0 0z"/><path class="fil3" d="M45240 157458c81,657 -328,1232 -985,1313l-7554 904c-657,83 -1231,-410 -1314,-1068 -83,-657 328,-1231 985,-1313l7553 -903c576,-82 1232,410 1315,1067l0 0z"/><path class="fil4" d="M45321 157458c83,739 -409,1396 -1066,1479l-7554 902c-657,83 -1314,-410 -1397,-1149 -81,-740 411,-1396 1068,-1478l7553 -903c658,-83 1315,411 1396,1149l0 0zm-9934 1149c83,575 657,1068 1232,986l7553 -903c575,-83 985,-657 904,-1232 -83,-574 -657,-1067 -1232,-985l-7553 903c-576,82 -987,657 -904,1231l0 0z"/><path class="fil3" d="M54435 149494c0,658 -493,1232 -1149,1232l-17160 0c-656,0 -1150,-574 -1150,-1232 0,-657 494,-1231 1150,-1231l17160 0c656,0 1149,574 1149,1231l0 0z"/><path class="fil4" d="M54517 149494c0,739 -575,1313 -1231,1313l-17160 0c-656,0 -1231,-574 -1231,-1313 0,-738 575,-1314 1231,-1314l17160 0c656,0 1231,576 1231,1314l0 0zm-19458 -82c0,574 492,1149 1067,1149l17160 0c575,0 1067,-492 1067,-1149 0,-575 -492,-1149 -1067,-1149l-17160 0c-575,82 -1067,574 -1067,1149l0 0z"/><path class="fil5" d="M45321 141202c-81,657 -574,1150 -1230,1150l-7636 -576c-657,-82 -1151,-656 -1068,-1313 83,-657 575,-1149 1232,-1149l7636 574c574,83 1066,657 1066,1314l0 0z"/><path class="fil4" d="M45404 141202c-83,739 -657,1231 -1313,1231l-7636 -574c-657,-83 -1232,-657 -1151,-1396 83,-739 658,-1232 1315,-1232l7636 575c657,82 1149,739 1149,1396l0 0zm-10017 -739c-83,574 411,1149 985,1149l7636 575c575,0 1068,-411 1149,-1067 83,-575 -410,-1149 -985,-1149l-7636 -576c-574,0 -1066,493 -1149,1068l0 0z"/><path class="fil3" d="M55914 135208c-165,657 -740,1068 -1397,985l-16831 -3448c-657,-165 -1067,-739 -903,-1395 164,-657 738,-1068 1395,-985l16832 3366c575,164 985,821 904,1477l0 0z"/><path class="fil4" d="M55995 135208c-164,738 -821,1150 -1478,1068l-16831 -3366c-657,-165 -1150,-821 -985,-1560 164,-740 820,-1151 1477,-1068l16832 3366c657,164 1068,821 985,1560l0 0zm-19130 -3858c-82,574 247,1149 821,1313l16831 3366c575,83 1150,-246 1314,-903 83,-574 -246,-1150 -821,-1314l-16832 -3366c-657,-81 -1149,328 -1313,904l0 0z"/><path class="fil3" d="M48523 125356c-164,656 -820,1067 -1477,903l-7389 -2053c-657,-164 -985,-821 -821,-1477 164,-657 821,-1068 1478,-904l7389 2053c656,164 985,821 820,1478l0 0z"/><path class="fil4" d="M48606 125356c-164,656 -903,1149 -1560,903l-7389 -2053c-657,-164 -1068,-903 -904,-1560 164,-657 904,-1149 1561,-902l7389 2052c656,163 1067,821 903,1560l0 0zm-9606 -2710c-164,575 164,1232 738,1396l7390 2053c575,164 1150,-164 1314,-821 164,-575 -164,-1232 -739,-1396l-7389 -2053c-576,-81 -1150,247 -1314,821l0 0z"/><path class="fil3" d="M60101 121415c-247,657 -985,903 -1561,657l-15845 -6568c-576,-247 -904,-986 -657,-1560 246,-657 985,-904 1559,-657l15847 6568c657,246 902,985 657,1560l0 0z"/><path class="fil4" d="M60182 121497c-246,657 -985,985 -1642,739l-15845 -6568c-657,-247 -904,-986 -657,-1724 246,-657 985,-985 1642,-740l15845 6568c657,329 904,1068 657,1725l0 0zm-17980 -7472c-247,575 0,1232 574,1479l15847 6568c574,246 1149,-83 1395,-657 247,-575 0,-1232 -574,-1478l-15847 -6569c-574,-164 -1231,83 -1395,657l0 0z"/><path class="fil3" d="M54763 110331c-328,575 -985,821 -1559,575l-6815 -3449c-575,-246 -821,-985 -492,-1642 328,-575 985,-821 1560,-575l6814 3449c575,328 821,1068 492,1642l0 0z"/><path class="fil4" d="M54846 110413c-329,657 -1068,903 -1725,574l-6815 -3447c-656,-329 -902,-1068 -574,-1725 329,-656 1067,-903 1725,-575l6814 3449c658,246 903,1068 575,1724l0 0zm-8868 -4516c-246,575 -81,1232 493,1479l6815 3447c492,247 1149,0 1477,-492 247,-574 83,-1232 -492,-1478l-6897 -3449c-492,-245 -1149,-81 -1396,493l0 0z"/><path class="fil3" d="M66833 108770c-411,576 -1068,740 -1642,329l-14204 -9442c-575,-328 -657,-1067 -328,-1642 328,-574 1066,-739 1642,-328l14285 9524c493,329 658,1067 247,1559l0 0z"/><path class="fil4" d="M66916 108853c-411,575 -1232,738 -1808,410l-14204 -9523c-574,-411 -738,-1150 -328,-1806 411,-575 1232,-740 1807,-411l14203 9523c658,411 739,1232 330,1807l0 0zm-16176 -10838c-328,493 -245,1232 247,1561l14286 9523c492,329 1149,164 1477,-329 329,-492 247,-1230 -245,-1559l-14287 -9524c-493,-328 -1149,-164 -1478,328l0 0z"/><path class="fil3" d="M63795 96866c-411,493 -1149,657 -1642,246l-5994 -4680c-492,-410 -574,-1149 -164,-1642 411,-492 1149,-656 1642,-246l5994 4680c492,410 574,1150 164,1642l0 0z"/><path class="fil4" d="M63877 96948c-410,575 -1231,656 -1806,246l-5993 -4679c-575,-411 -658,-1232 -247,-1807 411,-574 1232,-657 1806,-246l5994 4680c574,411 657,1232 246,1806l0 0zm-7882 -6158c-410,493 -328,1150 164,1561l5994 4679c493,329 1150,246 1559,-247 411,-492 330,-1149 -163,-1559l-5994 -4680c-492,-329 -1149,-246 -1560,246l0 0z"/><path class="fil3" d="M76029 97687c-493,492 -1232,492 -1643,0l-12233 -12070c-493,-492 -411,-1231 0,-1642 493,-492 1231,-492 1642,0l12151 12070c493,410 493,1231 83,1642l0 0z"/><path class="fil4" d="M76029 97770c-493,492 -1315,492 -1807,0l-12151 -12070c-493,-493 -493,-1314 0,-1806 492,-493 1313,-493 1806,0l12152 12068c574,493 574,1314 0,1808l0 0zm-13794 -13712c-410,410 -410,1149 0,1559l12151 12070c411,411 1150,411 1560,0 411,-411 411,-1149 0,-1560l-12151 -12152c-411,-411 -1068,-411 -1560,83l0 0z"/><path class="fil3" d="M75290 85453c-493,411 -1232,411 -1642,-81l-5009 -5748c-410,-492 -329,-1232 164,-1641 492,-412 1232,-412 1643,81l5008 5747c411,411 328,1149 -164,1642l0 0z"/><path class="fil4" d="M75371 85453c-574,493 -1313,411 -1806,-81l-5008 -5748c-492,-492 -411,-1313 164,-1807 574,-492 1314,-410 1806,83l5009 5747c410,575 410,1396 -165,1806l0 0zm-6568 -7470c-493,409 -493,1066 -164,1559l5009 5747c410,411 1066,492 1559,83 492,-412 492,-1068 164,-1561l-5008 -5747c-411,-493 -1068,-493 -1560,-81l0 0z"/><path class="fil3" d="M87112 88574c-575,409 -1313,246 -1641,-329l-9606 -14204c-329,-575 -166,-1313 328,-1642 574,-411 1314,-246 1642,329l9523 14204c411,574 247,1313 -246,1642l0 0z"/><path class="fil4" d="M87112 88655c-575,411 -1396,247 -1805,-328l-9525 -14204c-411,-574 -246,-1395 411,-1806 574,-410 1395,-246 1806,328l9524 14204c410,657 246,1396 -411,1806l0 0zm-10837 -16174c-493,328 -657,985 -329,1477l9525 14204c328,493 985,576 1560,247 492,-328 655,-985 327,-1477l-9523 -14123c-328,-492 -1068,-656 -1560,-328l0 0z"/><path class="fil3" d="M88837 76422c-575,329 -1314,164 -1643,-411l-3776 -6649c-328,-576 -83,-1315 492,-1643 576,-329 1314,-164 1642,411l3777 6651c247,574 82,1313 -492,1641l0 0z"/><path class="fil4" d="M88837 76504c-657,329 -1396,164 -1725,-410l-3777 -6651c-328,-574 -164,-1396 493,-1724 658,-329 1396,-164 1724,411l3777 6651c329,574 165,1313 -492,1723l0 0zm-4927 -8703c-492,329 -739,985 -411,1478l3778 6651c328,492 985,656 1477,410 493,-329 740,-985 411,-1478l-3777 -6651c-246,-492 -985,-738 -1478,-410l0 0z"/><path class="fil3" d="M99756 81841c-656,246 -1313,0 -1560,-575l-6650 -15846c-247,-575 82,-1313 657,-1560 657,-246 1313,0 1560,575l6650 15846c247,575 -82,1313 -657,1560l0 0z"/><path class="fil4" d="M99756 81923c-656,247 -1396,0 -1724,-657l-6650 -15846c-247,-656 82,-1396 738,-1641 657,-247 1396,0 1725,656l6651 15846c245,575 -83,1313 -740,1642l0 0zm-7471 -17980c-574,245 -821,902 -574,1395l6649 15847c247,574 904,820 1479,574 574,-246 821,-903 574,-1397l-6650 -15845c-329,-574 -903,-821 -1478,-574l0 0z"/><path class="fil3" d="M103779 70182c-657,246 -1313,-82 -1559,-739l-2381 -7225c-247,-575 164,-1313 738,-1477 575,-164 1315,81 1560,738l2381 7225c247,575 -81,1232 -739,1478l0 0z"/><path class="fil4" d="M103862 70264c-657,247 -1396,-82 -1642,-738l-2381 -7226c-247,-657 164,-1395 821,-1642 656,-246 1395,83 1641,739l2382 7225c164,657 -165,1396 -821,1642l0 0zm-3202 -9442c-575,164 -904,821 -740,1396l2381 7225c165,575 821,821 1397,657 574,-164 902,-821 739,-1396l-2382 -7225c-163,-574 -821,-902 -1395,-657l0 0z"/><path class="fil3" d="M113468 77654c-657,163 -1314,-247 -1396,-903l-3448 -16831c-164,-658 328,-1232 985,-1396 657,-164 1313,245 1396,902l3448 16832c82,575 -329,1231 -985,1396l0 0z"/><path class="fil4" d="M113468 77736c-740,164 -1396,-329 -1561,-985l-3447 -16831c-164,-658 328,-1396 985,-1479 739,-164 1396,328 1560,985l3448 16832c164,657 -246,1313 -985,1478l0 0zm-3859 -19131c-575,83 -985,657 -904,1315l3449 16831c82,574 738,985 1314,820 574,-82 985,-656 903,-1313l-3449 -16832c-164,-574 -738,-902 -1313,-821l0 0z"/><path class="fil3" d="M119707 66981c-656,81 -1231,-329 -1396,-986l-985 -7554c-81,-657 411,-1232 1068,-1313 657,-82 1232,328 1395,985l986 7554c82,657 -411,1231 -1068,1314l0 0z"/><path class="fil4" d="M119707 67062c-739,83 -1396,-410 -1477,-1067l-985 -7554c-83,-657 410,-1313 1149,-1395 738,-82 1395,410 1478,1067l985 7554c82,657 -410,1314 -1150,1395l0 0zm-1231 -9853c-574,83 -1067,658 -985,1232l985 7554c82,574 656,986 1231,903 576,-82 1068,-657 985,-1231l-985 -7554c-81,-575 -656,-985 -1231,-904l0 0z"/><polygon class="fil6" points="194422,83319 116915,138410 139906,161235 "/><polygon class="fil7" points="116998,138246 128575,149658 194422,83319 "/><polygon class="fil8" points="116998,138246 139987,161071 62482,216162 "/><polygon class="fil9" points="62482,216162 128575,149658 116998,138246 "/></g><path class="fil10" d="M128000 43481c58686,0 106259,47574 106259,106260 0,58685 -47573,106259 -106259,106259 -58686,0 -106259,-47574 -106259,-106259 0,-58686 47573,-106260 106259,-106260zm345 18362c12058,0 23245,2120 33563,6359 10329,4243 19831,10620 28504,19127l-6 6c5302,5302 9793,11074 13473,17313 3344,5672 6028,11732 8054,18181l-15046 11737 18360 5347c168,1233 306,2485 412,3756 159,1898 239,3807 239,5727 0,12058 -2120,23245 -6359,33563 -4244,10330 -10621,19831 -19127,28504l-6 -5c-5303,5303 -11076,9796 -17318,13478 -5678,3348 -11736,6033 -18174,8051l-11974 -15002 -5112 18315c-1238,172 -2490,309 -3755,414 -1898,157 -3808,235 -5728,235 -12059,0 -23248,-2118 -33566,-6357 -10329,-4244 -19830,-10619 -28501,-19129l4 -5c-5304,-5305 -9799,-11080 -13482,-17324 -3347,-5676 -6031,-11732 -8047,-18169l14955 -12215 -18269 -4871c-171,-1238 -308,-2490 -413,-3754 -157,-1898 -234,-3808 -234,-5729 0,-12058 2118,-23248 6355,-33566 4243,-10328 10620,-19829 19131,-28501l4 6c5304,-5302 11075,-9793 17316,-13473 5670,-3345 11731,-6030 18180,-8054l11825 15029 5259 -18345c1233,-167 2484,-304 3755,-411 1898,-158 3807,-238 5728,-238z"/></g><rect class="fil11" height="256000" width="256000"/></svg>