<?xml version="1.0" ?><svg data-name="010" id="_010" viewBox="0 0 128 128" xmlns="http://www.w3.org/2000/svg"><defs><style>.cls-1,.cls-9{opacity:0.3;}.cls-2{fill:#c7bff3;}.cls-3{fill:#fff8cf;}.cls-4{fill:#6d6da8;}.cls-5{fill:#87d9b8;}.cls-6{fill:#afefa6;}.cls-7{fill:#ecf4ff;}.cls-11,.cls-8{fill:#fff;}.cls-9{fill:#768ea6;}.cls-10{fill:#fff07d;}.cls-11,.cls-17,.cls-21{opacity:0.5;}.cls-12{fill:#ffc661;}.cls-13{fill:#fff27d;}.cls-14{fill:#6d6daa;}.cls-15{fill:#d6b5b0;}.cls-16{fill:#b52a4e;opacity:0.2;}.cls-17{fill:#fff0c0;}.cls-18{fill:#c9c1f5;}.cls-19{fill:#2c4b75;opacity:0.2;}.cls-20{fill:#ffd599;}.cls-22{fill:#ff88ca;}.cls-23{fill:#ffcfe1;}</style></defs><title/><g class="cls-1"><path class="cls-2" d="M116,47A39,39,0,1,0,38.93,35,20.59,20.59,0,0,1,23.54,51.71a30.75,30.75,0,1,0,22,57c7.6-4,17-2.68,22.63,3.83A33.75,33.75,0,0,0,121.6,71.44,33.65,33.65,0,0,1,116,47Z"/><rect class="cls-3" height="6" width="122.01" x="2.99" y="31"/><path class="cls-4" d="M125,38H3a1,1,0,0,1-1-1V31a1,1,0,0,1,1-1H125a1,1,0,0,1,1,1v6A1,1,0,0,1,125,38ZM4,36H124V32H4Z"/><rect class="cls-3" height="6" width="122.01" x="2.99" y="73"/><path class="cls-4" d="M125,80H3a1,1,0,0,1-1-1V73a1,1,0,0,1,1-1H125a1,1,0,0,1,1,1v6A1,1,0,0,1,125,80ZM4,78H124V74H4Z"/><rect class="cls-5" height="3.99" width="41.99" x="31.99" y="14"/><path class="cls-4" d="M74,19H32a1,1,0,0,1-1-1V14a1,1,0,0,1,1-1H74a1,1,0,0,1,1,1v4A1,1,0,0,1,74,19ZM33,17H73V15H33Z"/><rect class="cls-6" height="3.99" width="41.99" x="31.99" y="10"/><path class="cls-4" d="M74,15H32a1,1,0,0,1-1-1V10a1,1,0,0,1,1-1H74a1,1,0,0,1,1,1v4A1,1,0,0,1,74,15ZM33,13H73V11H33Z"/><rect class="cls-5" height="3.99" width="41.99" x="31.99" y="6"/><path class="cls-4" d="M74,11H32a1,1,0,0,1-1-1V6a1,1,0,0,1,1-1H74a1,1,0,0,1,1,1v4A1,1,0,0,1,74,11ZM33,9H73V7H33Z"/><rect class="cls-7" height="14" width="9.99" x="47.99" y="4.5"/><rect class="cls-8" height="3" width="9.99" x="47.99" y="5"/><rect class="cls-9" height="3" width="9.99" x="47.99" y="16"/><path class="cls-4" d="M58,20H48a1,1,0,0,1-1-1V5a1,1,0,0,1,1-1H58a1,1,0,0,1,1,1V19A1,1,0,0,1,58,20Zm-9-2h8V6H49Z"/><rect class="cls-5" height="3.99" width="41.99" x="61.99" y="26.01"/><path class="cls-4" d="M104,31H62a1,1,0,0,1-1-1V26a1,1,0,0,1,1-1h42a1,1,0,0,1,1,1v4A1,1,0,0,1,104,31ZM63,29h40V27H63Z"/><rect class="cls-6" height="3.99" width="41.99" x="61.99" y="22"/><path class="cls-4" d="M104,27H62a1,1,0,0,1-1-1V22a1,1,0,0,1,1-1h42a1,1,0,0,1,1,1v4A1,1,0,0,1,104,27ZM63,25h40V23H63Z"/><rect class="cls-5" height="3.99" width="41.99" x="61.99" y="18"/><path class="cls-4" d="M104,23H62a1,1,0,0,1-1-1V18a1,1,0,0,1,1-1h42a1,1,0,0,1,1,1v4A1,1,0,0,1,104,23ZM63,21h40V19H63Z"/><rect class="cls-7" height="14" width="10" x="77.99" y="16.51"/><rect class="cls-8" height="3" width="10" x="77.99" y="17"/><rect class="cls-9" height="3" width="10" x="77.99" y="28.01"/><path class="cls-4" d="M88,32H78a1,1,0,0,1-1-1V17a1,1,0,0,1,1-1H88a1,1,0,0,1,1,1V31A1,1,0,0,1,88,32Zm-9-2h8V18H79Z"/><rect class="cls-5" height="3.99" width="41.99" x="25.99" y="26.01"/><path class="cls-4" d="M68,31H26a1,1,0,0,1-1-1V26a1,1,0,0,1,1-1H68a1,1,0,0,1,1,1v4A1,1,0,0,1,68,31ZM27,29H67V27H27Z"/><rect class="cls-6" height="3.99" width="41.99" x="25.99" y="22"/><path class="cls-4" d="M68,27H26a1,1,0,0,1-1-1V22a1,1,0,0,1,1-1H68a1,1,0,0,1,1,1v4A1,1,0,0,1,68,27ZM27,25H67V23H27Z"/><rect class="cls-5" height="3.99" width="41.99" x="25.99" y="18"/><path class="cls-4" d="M68,23H26a1,1,0,0,1-1-1V18a1,1,0,0,1,1-1H68a1,1,0,0,1,1,1v4A1,1,0,0,1,68,23ZM27,21H67V19H27Z"/><rect class="cls-7" height="14" width="10" x="41.99" y="16.51"/><rect class="cls-8" height="3" width="10" x="41.99" y="17"/><rect class="cls-9" height="3" width="10" x="41.99" y="28.01"/><path class="cls-4" d="M52,32H42a1,1,0,0,1-1-1V17a1,1,0,0,1,1-1H52a1,1,0,0,1,1,1V31A1,1,0,0,1,52,32Zm-9-2h8V18H43Z"/><path class="cls-10" d="M5.77,70.43l1.8-6A2,2,0,0,1,9.49,63h11a2,2,0,0,1,1.92,1.43l1.8,6A2,2,0,0,1,22.31,73H7.69A2,2,0,0,1,5.77,70.43Z"/><path class="cls-11" d="M5.77,70.43a.28.28,0,0,0,0,.09l15.41-7.4a2.08,2.08,0,0,0-.66-.12h-11a2,2,0,0,0-1.92,1.43Z"/><path class="cls-11" d="M22.79,65.62l-.22-.72-16,7.71A1.94,1.94,0,0,0,7.69,73h4.25l11.41-5.48Z"/><path class="cls-4" d="M22.31,74H7.69a3,3,0,0,1-2.87-3.86l1.8-6A3,3,0,0,1,9.49,62h11a3,3,0,0,1,2.88,2.14l1.8,6A3,3,0,0,1,22.31,74ZM9.49,64a1,1,0,0,0-1,.71l-1.8,6h0a1,1,0,0,0,.16.88,1,1,0,0,0,.8.4H22.31a1,1,0,0,0,.8-.4,1,1,0,0,0,.16-.89l-1.8-6a1,1,0,0,0-1-.71ZM5.77,70.43h0Z"/><path class="cls-10" d="M25.77,70.43l1.8-6A2,2,0,0,1,29.49,63h11a2,2,0,0,1,1.92,1.43l1.8,6A2,2,0,0,1,42.31,73H27.69A2,2,0,0,1,25.77,70.43Z"/><path class="cls-11" d="M25.77,70.43a.28.28,0,0,0,0,.09l15.41-7.4a2.08,2.08,0,0,0-.66-.12h-11a2,2,0,0,0-1.92,1.43Z"/><path class="cls-11" d="M42.79,65.62l-.22-.72-16,7.71a1.94,1.94,0,0,0,1.17.39h4.25l11.41-5.48Z"/><path class="cls-4" d="M42.31,74H27.69a3,3,0,0,1-2.87-3.86l1.8-6A3,3,0,0,1,29.49,62h11a3,3,0,0,1,2.88,2.14l1.8,6A3,3,0,0,1,42.31,74ZM29.49,64a1,1,0,0,0-1,.71l-1.8,6h0a1,1,0,0,0,.16.88,1,1,0,0,0,.8.4H42.31a1,1,0,0,0,.8-.4,1,1,0,0,0,.16-.89l-1.8-6a1,1,0,0,0-1-.71Zm-3.72,6.43h0Z"/><path class="cls-10" d="M45.77,70.43l1.8-6A2,2,0,0,1,49.49,63h11a2,2,0,0,1,1.92,1.43l1.8,6A2,2,0,0,1,62.31,73H47.69A2,2,0,0,1,45.77,70.43Z"/><path class="cls-11" d="M45.77,70.43a.28.28,0,0,0,0,.09l15.41-7.4a2.08,2.08,0,0,0-.66-.12h-11a2,2,0,0,0-1.92,1.43Z"/><path class="cls-11" d="M62.79,65.62l-.22-.72-16,7.71a1.94,1.94,0,0,0,1.17.39h4.25l11.41-5.48Z"/><path class="cls-4" d="M62.31,74H47.69a3,3,0,0,1-2.87-3.86l1.8-6A3,3,0,0,1,49.49,62h11a3,3,0,0,1,2.88,2.14l1.8,6A3,3,0,0,1,62.31,74ZM49.49,64a1,1,0,0,0-1,.71l-1.8,6h0a1,1,0,0,0,.16.88,1,1,0,0,0,.8.4H62.31a1,1,0,0,0,.8-.4,1,1,0,0,0,.16-.89l-1.8-6a1,1,0,0,0-1-.71Zm-3.72,6.43h0Z"/><path class="cls-10" d="M35.77,60.43l1.8-6A2,2,0,0,1,39.49,53h11a2,2,0,0,1,1.92,1.43l1.8,6A2,2,0,0,1,52.31,63H37.69A2,2,0,0,1,35.77,60.43Z"/><path class="cls-11" d="M35.77,60.43a.28.28,0,0,0,0,.09l15.41-7.4a2.08,2.08,0,0,0-.66-.12h-11a2,2,0,0,0-1.92,1.43Z"/><path class="cls-11" d="M52.79,55.62l-.22-.72-16,7.71a1.94,1.94,0,0,0,1.17.39h4.25l11.41-5.48Z"/><path class="cls-4" d="M52.31,64H37.69a3,3,0,0,1-2.87-3.86l1.8-6A3,3,0,0,1,39.49,52h11a3,3,0,0,1,2.88,2.14l1.8,6A3,3,0,0,1,52.31,64ZM39.49,54a1,1,0,0,0-1,.71l-1.8,6h0a1,1,0,0,0,.16.88,1,1,0,0,0,.8.4H52.31a1,1,0,0,0,.8-.4,1,1,0,0,0,.16-.89l-1.8-6a1,1,0,0,0-1-.71Zm-3.72,6.43h0Z"/><path class="cls-10" d="M15.77,60.43l1.8-6A2,2,0,0,1,19.49,53h11a2,2,0,0,1,1.92,1.43l1.8,6A2,2,0,0,1,32.31,63H17.69A2,2,0,0,1,15.77,60.43Z"/><path class="cls-11" d="M15.77,60.43a.28.28,0,0,0,0,.09l15.41-7.4a2.08,2.08,0,0,0-.66-.12h-11a2,2,0,0,0-1.92,1.43Z"/><path class="cls-11" d="M32.79,55.62l-.22-.72-16,7.71a1.94,1.94,0,0,0,1.17.39h4.25l11.41-5.48Z"/><path class="cls-4" d="M32.31,64H17.69a3,3,0,0,1-2.87-3.86l1.8-6A3,3,0,0,1,19.49,52h11a3,3,0,0,1,2.88,2.14l1.8,6A3,3,0,0,1,32.31,64ZM19.49,54a1,1,0,0,0-1,.71l-1.8,6h0a1,1,0,0,0,.16.88,1,1,0,0,0,.8.4H32.31a1,1,0,0,0,.8-.4,1,1,0,0,0,.16-.89l-1.8-6a1,1,0,0,0-1-.71Zm-3.72,6.43h0Z"/><path class="cls-10" d="M25.77,50.43l1.8-6A2,2,0,0,1,29.49,43h11a2,2,0,0,1,1.92,1.43l1.8,6A2,2,0,0,1,42.31,53H27.69A2,2,0,0,1,25.77,50.43Z"/><path class="cls-11" d="M25.77,50.43a.28.28,0,0,0,0,.09l15.41-7.4a2.08,2.08,0,0,0-.66-.12h-11a2,2,0,0,0-1.92,1.43Z"/><path class="cls-11" d="M42.79,45.62l-.22-.72-16,7.71a1.94,1.94,0,0,0,1.17.39h4.25l11.41-5.48Z"/><path class="cls-4" d="M42.31,54H27.69a3,3,0,0,1-2.87-3.86l1.8-6A3,3,0,0,1,29.49,42h11a3,3,0,0,1,2.88,2.14l1.8,6A3,3,0,0,1,42.31,54ZM29.49,44a1,1,0,0,0-1,.71l-1.8,6h0a1,1,0,0,0,.16.88,1,1,0,0,0,.8.4H42.31a1,1,0,0,0,.8-.4,1,1,0,0,0,.16-.89l-1.8-6a1,1,0,0,0-1-.71Zm-3.72,6.43h0Z"/><path class="cls-10" d="M85.77,70.43l1.8-6A2,2,0,0,1,89.49,63h11a2,2,0,0,1,1.92,1.43l1.8,6A2,2,0,0,1,102.31,73H87.69A2,2,0,0,1,85.77,70.43Z"/><path class="cls-11" d="M85.77,70.43a.28.28,0,0,0,0,.09l15.41-7.4a2.08,2.08,0,0,0-.66-.12h-11a2,2,0,0,0-1.92,1.43Z"/><path class="cls-11" d="M102.79,65.62l-.22-.72-16,7.71a1.94,1.94,0,0,0,1.17.39h4.25l11.41-5.48Z"/><path class="cls-4" d="M102.31,74H87.69a3,3,0,0,1-2.87-3.86l1.8-6A3,3,0,0,1,89.49,62h11a3,3,0,0,1,2.88,2.14l1.8,6A3,3,0,0,1,102.31,74ZM89.49,64a1,1,0,0,0-1,.71l-1.8,6h0a1,1,0,0,0,.16.88,1,1,0,0,0,.8.4h14.62a1,1,0,0,0,.8-.4,1,1,0,0,0,.16-.89l-1.8-6a1,1,0,0,0-1-.71Zm-3.72,6.43h0Z"/><path class="cls-10" d="M105.77,70.43l1.8-6A2,2,0,0,1,109.49,63h11a2,2,0,0,1,1.92,1.43l1.8,6A2,2,0,0,1,122.31,73H107.69A2,2,0,0,1,105.77,70.43Z"/><path class="cls-11" d="M105.77,70.43a.28.28,0,0,0,0,.09l15.41-7.4a2.08,2.08,0,0,0-.66-.12h-11a2,2,0,0,0-1.92,1.43Z"/><path class="cls-11" d="M122.79,65.62l-.22-.72-16,7.71a1.94,1.94,0,0,0,1.17.39h4.25l11.41-5.48Z"/><path class="cls-4" d="M122.31,74H107.69a3,3,0,0,1-2.87-3.86l1.8-6A3,3,0,0,1,109.49,62h11a3,3,0,0,1,2.88,2.14l1.8,6A3,3,0,0,1,122.31,74ZM109.49,64a1,1,0,0,0-1,.71l-1.8,6h0a1,1,0,0,0,.16.88,1,1,0,0,0,.8.4h14.62a1,1,0,0,0,.8-.4,1,1,0,0,0,.16-.89l-1.8-6a1,1,0,0,0-1-.71Zm-3.72,6.43h0Z"/><path class="cls-10" d="M105.77,60.43l1.8-6A2,2,0,0,1,109.49,53h11a2,2,0,0,1,1.92,1.43l1.8,6A2,2,0,0,1,122.31,63H107.69A2,2,0,0,1,105.77,60.43Z"/><path class="cls-11" d="M105.77,60.43a.28.28,0,0,0,0,.09l15.41-7.4a2.08,2.08,0,0,0-.66-.12h-11a2,2,0,0,0-1.92,1.43Z"/><path class="cls-11" d="M122.79,55.62l-.22-.72-16,7.71a1.94,1.94,0,0,0,1.17.39h4.25l11.41-5.48Z"/><path class="cls-4" d="M122.31,64H107.69a3,3,0,0,1-2.87-3.86l1.8-6A3,3,0,0,1,109.49,52h11a3,3,0,0,1,2.88,2.14l1.8,6A3,3,0,0,1,122.31,64ZM109.49,54a1,1,0,0,0-1,.71l-1.8,6h0a1,1,0,0,0,.16.88,1,1,0,0,0,.8.4h14.62a1,1,0,0,0,.8-.4,1,1,0,0,0,.16-.89l-1.8-6a1,1,0,0,0-1-.71Zm-3.72,6.43h0Z"/><path class="cls-10" d="M85.77,60.43l1.8-6A2,2,0,0,1,89.49,53h11a2,2,0,0,1,1.92,1.43l1.8,6A2,2,0,0,1,102.31,63H87.69A2,2,0,0,1,85.77,60.43Z"/><path class="cls-11" d="M85.77,60.43a.28.28,0,0,0,0,.09l15.41-7.4a2.08,2.08,0,0,0-.66-.12h-11a2,2,0,0,0-1.92,1.43Z"/><path class="cls-11" d="M102.79,55.62l-.22-.72-16,7.71a1.94,1.94,0,0,0,1.17.39h4.25l11.41-5.48Z"/><path class="cls-4" d="M102.31,64H87.69a3,3,0,0,1-2.87-3.86l1.8-6A3,3,0,0,1,89.49,52h11a3,3,0,0,1,2.88,2.14l1.8,6A3,3,0,0,1,102.31,64ZM89.49,54a1,1,0,0,0-1,.71l-1.8,6h0a1,1,0,0,0,.16.88,1,1,0,0,0,.8.4h14.62a1,1,0,0,0,.8-.4,1,1,0,0,0,.16-.89l-1.8-6a1,1,0,0,0-1-.71Zm-3.72,6.43h0Z"/><path class="cls-10" d="M95.77,50.43l1.8-6A2,2,0,0,1,99.49,43h11a2,2,0,0,1,1.92,1.43l1.8,6A2,2,0,0,1,112.31,53H97.69A2,2,0,0,1,95.77,50.43Z"/><path class="cls-11" d="M95.77,50.43a.28.28,0,0,0,0,.09l15.41-7.4a2.08,2.08,0,0,0-.66-.12h-11a2,2,0,0,0-1.92,1.43Z"/><path class="cls-11" d="M112.79,45.62l-.22-.72-16,7.71a1.94,1.94,0,0,0,1.17.39h4.25l11.41-5.48Z"/><path class="cls-4" d="M112.31,54H97.69a3,3,0,0,1-2.87-3.86l1.8-6A3,3,0,0,1,99.49,42h11a3,3,0,0,1,2.88,2.14l1.8,6A3,3,0,0,1,112.31,54ZM99.49,44a1,1,0,0,0-1,.71l-1.8,6h0a1,1,0,0,0,.16.88,1,1,0,0,0,.8.4h14.62a1,1,0,0,0,.8-.4,1,1,0,0,0,.16-.89l-1.8-6a1,1,0,0,0-1-.71Zm-3.72,6.43h0Z"/><path class="cls-4" d="M104,122H87a1,1,0,0,1,0-2h17a1,1,0,0,1,0,2Z"/><path class="cls-4" d="M107.5,122H107a1,1,0,0,1,0-2h.5a1,1,0,0,1,0,2Z"/><path class="cls-4" d="M84,122H82.42a1,1,0,0,1,0-2H84a1,1,0,0,1,0,2Z"/><path class="cls-4" d="M39,122H8a1,1,0,0,1,0-2H39a1,1,0,0,1,0,2Z"/><path class="cls-4" d="M29.5,122H29a1,1,0,0,1,0-2h.5a1,1,0,0,1,0,2Z"/><path class="cls-4" d="M97,118H28a1,1,0,0,1,0-2H97a1,1,0,0,1,0,2Z"/><path class="cls-4" d="M55.5,118H55a1,1,0,0,1,0-2h.5a1,1,0,0,1,0,2Z"/><path class="cls-4" d="M42.5,122H42a1,1,0,0,1,0-2h.5a1,1,0,0,1,0,2Z"/><path class="cls-4" d="M5.25,122H5a1,1,0,0,1,0-2h.25a1,1,0,0,1,0,2Z"/><path class="cls-4" d="M124,116H101a1,1,0,0,1,0-2h23a1,1,0,0,1,0,2Z"/></g><path class="cls-12" d="M19,102v4c0,1.66,3.13,3,7,3s7-1.34,7-3v-4"/><path class="cls-13" d="M19,98v4c0,1.66,3.13,3,7,3s7-1.34,7-3V98"/><path class="cls-12" d="M19,94v4c0,1.66,3.13,3,7,3s7-1.34,7-3V94"/><path class="cls-13" d="M26,105c-3.87,0-7-1.34-7-3v4c0,1.42,2.3,2.6,5.39,2.92h1.78V105Z"/><path class="cls-13" d="M26,97c-3.87,0-7-1.34-7-3v4c0,1.42,2.3,2.6,5.39,2.92h1.78V97Z"/><path class="cls-11" d="M26,101c-3.87,0-7-1.34-7-3v4c0,1.42,2.3,2.6,5.39,2.92h1.78V101Z"/><path class="cls-14" d="M26,110c-4,0-8-1.37-8-4v-4a1,1,0,0,1,2,0v4c0,.71,2.28,2,6,2s6-1.29,6-2v-4a1,1,0,0,1,2,0v4C34,108.63,30,110,26,110Z"/><path class="cls-14" d="M26,106c-4,0-8-1.37-8-4V98a1,1,0,0,1,2,0v4c0,.71,2.28,2,6,2s6-1.29,6-2V98a1,1,0,0,1,2,0v4C34,104.63,30,106,26,106Z"/><path class="cls-14" d="M26,102c-4,0-8-1.37-8-4V94a1,1,0,0,1,2,0v4c0,.71,2.28,2,6,2s6-1.29,6-2V94a1,1,0,0,1,2,0v4C34,100.63,30,102,26,102Z"/><path class="cls-13" d="M19,90v4c0,1.66,3.13,3,7,3s7-1.34,7-3V90"/><path class="cls-11" d="M26,93c-3.87,0-7-1.34-7-3v4c0,1.42,2.3,2.6,5.39,2.92h1.78V93Z"/><path class="cls-12" d="M19,86v4c0,1.66,3.13,3,7,3s7-1.34,7-3V86"/><path class="cls-13" d="M19,82v4c0,1.66,3.13,3,7,3s7-1.34,7-3V82"/><path class="cls-12" d="M19,78v4c0,1.66,3.13,3,7,3s7-1.34,7-3V78"/><path class="cls-13" d="M26,89c-3.87,0-7-1.34-7-3v4c0,1.42,2.3,2.6,5.39,2.92h1.78V89Z"/><path class="cls-13" d="M26,81c-3.87,0-7-1.34-7-3v4c0,1.42,2.3,2.6,5.39,2.92h1.78V81Z"/><path class="cls-11" d="M26,85c-3.87,0-7-1.34-7-3v4c0,1.42,2.3,2.6,5.39,2.92h1.78V85Z"/><ellipse class="cls-13" cx="26" cy="78" rx="7" ry="3"/><path class="cls-14" d="M26,82c-4,0-8-1.37-8-4s4-4,8-4,8,1.37,8,4S30,82,26,82Zm0-6c-3.72,0-6,1.29-6,2s2.28,2,6,2,6-1.29,6-2S29.72,76,26,76Z"/><path class="cls-14" d="M26,98c-4,0-8-1.37-8-4V90a1,1,0,0,1,2,0v4c0,.71,2.28,2,6,2s6-1.29,6-2V90a1,1,0,0,1,2,0v4C34,96.63,30,98,26,98Z"/><path class="cls-14" d="M26,94c-4,0-8-1.37-8-4V86a1,1,0,0,1,2,0v4c0,.71,2.28,2,6,2s6-1.29,6-2V86a1,1,0,0,1,2,0v4C34,92.63,30,94,26,94Z"/><path class="cls-14" d="M26,90c-4,0-8-1.37-8-4V82a1,1,0,0,1,2,0v4c0,.71,2.28,2,6,2s6-1.29,6-2V82a1,1,0,0,1,2,0v4C34,88.63,30,90,26,90Z"/><path class="cls-14" d="M26,86c-4,0-8-1.37-8-4V78a1,1,0,0,1,2,0v4c0,.71,2.28,2,6,2s6-1.29,6-2V78a1,1,0,0,1,2,0v4C34,84.63,30,86,26,86Z"/><path class="cls-15" d="M70,45H56a12,12,0,0,0-7.76,2.84C36.25,58,29.13,79.22,29.13,92.29c0,17.78,2.2,24.7,33.87,24.7s33.87-6.92,33.87-24.7c0-13.07-7.12-34.29-19.12-44.45A12,12,0,0,0,70,45Z"/><circle class="cls-16" cx="63" cy="78" r="13"/><path class="cls-17" d="M53,92.29C53,79.22,55.1,58,58.65,47.84,59.29,46,60.1,45,60.94,45h-3.1a7.64,7.64,0,0,0-5.73,2.84C43.26,58,38,79.22,38,92.29c0,17.78,1.63,24.7,25,24.7C53.65,117,53,110.07,53,92.29Z"/><path class="cls-16" d="M77.75,47.84A12,12,0,0,0,70,45H67.13a5.75,5.75,0,0,1,4.58,2.84C78.79,58,83,79.22,83,92.29c0,17.78-1.3,24.7-20,24.7,31.67,0,33.87-6.92,33.87-24.7C96.87,79.22,89.75,58,77.75,47.84Z"/><path class="cls-18" d="M30.06,83a323,323,0,0,0,65.88,0A76.2,76.2,0,0,0,91,67a394,394,0,0,1-56,0A76.2,76.2,0,0,0,30.06,83Z"/><path class="cls-11" d="M42.18,67.45a96.13,96.13,0,0,0-3.59,16.3c4.88.37,9.75.61,14.61.76.25-5.24.73-11,1.42-16.61Q48.38,67.78,42.18,67.45Z"/><path class="cls-19" d="M95.11,79.13l0-.1c-.15-.63-.32-1.25-.49-1.88l0-.09c-.37-1.32-.78-2.65-1.22-4l0,0c-.22-.64-.44-1.28-.68-1.92l0-.12c-.49-1.33-1-2.66-1.59-4h0c-3.78.27-7.55.47-11.32.63a116.86,116.86,0,0,1,2.86,16.45c4.47-.27,8.93-.62,13.38-1.08C95.71,81.74,95.43,80.44,95.11,79.13Z"/><path class="cls-14" d="M63,118c-31.87,0-34.87-7-34.87-25.7,0-13.81,7.44-35,19.47-45.21A13,13,0,0,1,56,44H70a13,13,0,0,1,8.41,3.08c12,10.18,19.48,31.4,19.48,45.21C97.88,110.94,94.87,118,63,118ZM56,46a11,11,0,0,0-7.11,2.6C37.67,58.11,30.13,78.87,30.13,92.29c0,16.86,1.26,23.7,32.87,23.7s32.88-6.84,32.88-23.7c0-13.42-7.55-34.18-18.78-43.69A11,11,0,0,0,70,46Z"/><path class="cls-14" d="M72.92,117.63a1,1,0,0,1-.21-2c2.24-.51,6.53-4.23,7-5.79a1,1,0,0,1,1.26-.65,1,1,0,0,1,.65,1.26c-.76,2.36-5.67,6.49-8.49,7.13Z"/><path class="cls-14" d="M53.08,117.63H53c-5.61-.46-11.48-4.08-13-7a1,1,0,1,1,1.78-.92c1.21,2.36,6.55,5.53,11.37,5.93a1,1,0,0,1-.08,2Z"/><path class="cls-14" d="M55.22,50.05a1,1,0,0,1-.35-.06,1,1,0,0,1-.59-1.29c1.14-3,4.54-4.32,5.55-4.65a1,1,0,0,1,1.26.65A1,1,0,0,1,60.44,46c-1.64.52-3.63,1.71-4.28,3.45A1,1,0,0,1,55.22,50.05Z"/><path class="cls-14" d="M62.82,49.05a1,1,0,0,1-.53-.15A1,1,0,0,1,62,47.53a1.77,1.77,0,0,0,.18-2l1.73-1a3.83,3.83,0,0,1-.21,4.06A1,1,0,0,1,62.82,49.05Z"/><path class="cls-14" d="M70.78,50.05a1,1,0,0,1-.94-.64c-.65-1.74-2.64-2.93-4.28-3.45a1,1,0,0,1-.64-1.26,1,1,0,0,1,1.25-.65c1,.33,4.41,1.62,5.55,4.65A1,1,0,0,1,71.13,50,1,1,0,0,1,70.78,50.05Z"/><path class="cls-15" d="M77.33,28.54c.75,3.18-1.18,9.21-5.14,12.46H53.81c-4.77-3.92-6.6-11.88-4.33-14s8-3.81,13.52,1C69.11,33.31,75.27,30,77.33,28.54Z"/><path class="cls-17" d="M52.72,30.57c1.91-1.8,6.18-3.43,11-2A8.73,8.73,0,0,1,63,28c-5.54-4.82-11.37-3-13.52-1s-.74,8.64,3.07,12.8C51.16,35.88,51.12,32.07,52.72,30.57Z"/><path class="cls-16" d="M77.33,28.54a14,14,0,0,1-3.56,1.77,12.33,12.33,0,0,1-2.32.51A13.1,13.1,0,0,1,64.19,41h8C76.15,37.75,78.08,31.72,77.33,28.54Z"/><path class="cls-15" d="M76.52,27a3,3,0,0,1,.81,1.55C75.27,30,69.11,33.31,63,28,68.54,23.18,74.37,25,76.52,27Z"/><path class="cls-16" d="M76.52,27a3,3,0,0,1,.81,1.55C75.27,30,69.11,33.31,63,28,68.54,23.18,74.37,25,76.52,27Z"/><path class="cls-14" d="M72.19,42H53.81a1,1,0,0,1-.64-.23,16.54,16.54,0,0,1-5.65-11.38,5.27,5.27,0,0,1,1.28-4.13c2.63-2.48,8.67-3.87,14.2.45,5.53-4.32,11.57-2.93,14.2-.45h0a5.27,5.27,0,0,1,1.28,4.13,16.54,16.54,0,0,1-5.65,11.38A1,1,0,0,1,72.19,42Zm-18-2H71.83a14.67,14.67,0,0,0,4.65-9.67,3.5,3.5,0,0,0-.65-2.61h0c-1.72-1.62-7-3.5-12.17,1a1,1,0,0,1-1.32,0c-5.21-4.53-10.45-2.65-12.17-1a3.5,3.5,0,0,0-.65,2.61A14.67,14.67,0,0,0,54.17,40Z"/><path class="cls-14" d="M65.87,42a1,1,0,0,1-.63-.22,1,1,0,0,1-.15-1.4c1.3-1.64,1.62-2.29,1.69-3.49A1,1,0,0,1,67.84,36,1,1,0,0,1,68.78,37c-.11,1.8-.74,2.88-2.13,4.61A1,1,0,0,1,65.87,42Z"/><path class="cls-14" d="M60.13,42a1,1,0,0,1-.78-.38c-1.39-1.73-2-2.81-2.13-4.61A1,1,0,0,1,58.16,36a1,1,0,0,1,1.06.94c.07,1.2.39,1.85,1.69,3.49a1,1,0,0,1-.15,1.4A1,1,0,0,1,60.13,42Z"/><path class="cls-14" d="M70.22,31.9a11.79,11.79,0,0,1-7.88-3.15,1,1,0,0,1,1.32-1.5c5.53,4.81,11,1.93,13.09.47a1,1,0,1,1,1.15,1.63A14,14,0,0,1,70.22,31.9Z"/><rect class="cls-20" height="4" rx="2" ry="2" width="18" x="53.99" y="41"/><g class="cls-21"><path class="cls-4" d="M56,46a1,1,0,0,1-.71-.29,1,1,0,0,1,0-1.42l4-4a1,1,0,0,1,1.42,1.42l-4,4A1,1,0,0,1,56,46Z"/><path class="cls-4" d="M61,46a1,1,0,0,1-.71-.29,1,1,0,0,1,0-1.42l4-4a1,1,0,1,1,1.42,1.42l-4,4A1,1,0,0,1,61,46Z"/><path class="cls-4" d="M66,46a1,1,0,0,1-.71-.29,1,1,0,0,1,0-1.42l4-4a1,1,0,1,1,1.42,1.42l-4,4A1,1,0,0,1,66,46Z"/></g><path class="cls-4" d="M70,46H56a3,3,0,0,1,0-6H70a3,3,0,0,1,0,6ZM56,42a1,1,0,0,0,0,2H70a1,1,0,0,0,0-2Z"/><path class="cls-14" d="M62.92,69c-9.39,0-18.75-.34-28-1a1,1,0,1,1,.14-2A398,398,0,0,0,91,66a1,1,0,1,1,.14,2C81.71,68.66,72.3,69,62.92,69Z"/><path class="cls-14" d="M63.25,85.68A332.49,332.49,0,0,1,30,84a1,1,0,0,1-.9-1.1,1,1,0,0,1,1.1-.89,324,324,0,0,0,65.68,0,1,1,0,1,1,.21,2A318.17,318.17,0,0,1,63.25,85.68Z"/><circle class="cls-12" cx="63" cy="76" r="12"/><circle class="cls-13" cx="63" cy="76" r="9"/><path class="cls-14" d="M56,77a1,1,0,0,1-.38-.08,1.15,1.15,0,0,1-.33-.21,1.19,1.19,0,0,1-.22-.33A1,1,0,0,1,55,76a.84.84,0,0,1,.08-.38,1,1,0,0,1,.21-.33.93.93,0,0,1,.33-.21,1,1,0,0,1,.76,0,.9.9,0,0,1,.54.54.94.94,0,0,1,0,.76.9.9,0,0,1-.54.54A1,1,0,0,1,56,77Z"/><path class="cls-14" d="M70,77a1,1,0,0,1-.38-.08,1.15,1.15,0,0,1-.33-.21,1,1,0,0,1-.21-1.09,1,1,0,0,1,.21-.33,1,1,0,0,1,.9-.27.6.6,0,0,1,.19.06,1,1,0,0,1,.33.21A1.05,1.05,0,0,1,71,76a1,1,0,0,1-1,1Z"/><path class="cls-14" d="M63,81.87a3.44,3.44,0,0,1-3.45-3.42,1,1,0,0,1,2,0,1.45,1.45,0,0,0,2.9,0c0-1.09-1.7-1.61-1.72-1.62-1.18-.33-3.18-1.45-3.18-3.55a3.45,3.45,0,0,1,6.9,0,1,1,0,0,1-2,0,1.45,1.45,0,0,0-2.9,0c0,1.09,1.71,1.62,1.73,1.63,1.17.33,3.17,1.45,3.17,3.54A3.44,3.44,0,0,1,63,81.87Z"/><path class="cls-14" d="M63,83.5a1,1,0,0,1-1-1V80.87a1,1,0,0,1,2,0V82.5A1,1,0,0,1,63,83.5Z"/><path class="cls-14" d="M63,71.87a1,1,0,0,1-1-1V69.24a1,1,0,0,1,2,0v1.63A1,1,0,0,1,63,71.87Z"/><path class="cls-11" d="M53,82.57,69.57,66A12,12,0,0,0,53,82.57Z"/><path class="cls-11" d="M55.52,85.38,72.37,68.52a12.08,12.08,0,0,0-1.3-1.38L54.14,84.08A14.14,14.14,0,0,0,55.52,85.38Z"/><path class="cls-14" d="M63,89A13,13,0,1,1,76,76,13,13,0,0,1,63,89Zm0-24A11,11,0,1,0,74,76,11,11,0,0,0,63,65Z"/><path class="cls-13" d="M24,114v4c0,1.66,3.13,3,7,3s7-1.34,7-3v-4"/><path class="cls-12" d="M24,110v4c0,1.66,3.13,3,7,3s7-1.34,7-3v-4"/><path class="cls-13" d="M31,113c-3.87,0-7-1.34-7-3v4c0,1.42,2.3,2.6,5.39,2.92h1.78V113Z"/><path class="cls-11" d="M31,117c-3.87,0-7-1.34-7-3v4c0,1.42,2.3,2.6,5.39,2.92h1.78V117Z"/><path class="cls-14" d="M31,122c-4,0-8-1.37-8-4v-4a1,1,0,0,1,2,0v4c0,.71,2.28,2,6,2s6-1.29,6-2v-4a1,1,0,0,1,2,0v4C39,120.63,35,122,31,122Z"/><path class="cls-14" d="M31,118c-4,0-8-1.37-8-4v-4a1,1,0,0,1,2,0v4c0,.71,2.28,2,6,2s6-1.29,6-2v-4a1,1,0,0,1,2,0v4C39,116.63,35,118,31,118Z"/><ellipse class="cls-13" cx="31" cy="110" rx="7" ry="3"/><path class="cls-14" d="M31,114c-4,0-8-1.37-8-4s4-4,8-4,8,1.37,8,4S35,114,31,114Zm0-6c-3.72,0-6,1.29-6,2s2.28,2,6,2,6-1.29,6-2S34.72,108,31,108Z"/><path class="cls-13" d="M10,114v4c0,1.66,3.13,3,7,3s7-1.34,7-3v-4"/><path class="cls-11" d="M17,117c-3.87,0-7-1.34-7-3v4c0,1.42,2.3,2.6,5.39,2.92h1.78V117Z"/><path class="cls-12" d="M10,110v4c0,1.66,3.13,3,7,3s7-1.34,7-3v-4"/><path class="cls-13" d="M10,106v4c0,1.66,3.13,3,7,3s7-1.34,7-3v-4"/><path class="cls-12" d="M10,102v4c0,1.66,3.13,3,7,3s7-1.34,7-3v-4"/><path class="cls-13" d="M17,113c-3.87,0-7-1.34-7-3v4c0,1.42,2.3,2.6,5.39,2.92h1.78V113Z"/><path class="cls-13" d="M17,105c-3.87,0-7-1.34-7-3v4c0,1.42,2.3,2.6,5.39,2.92h1.78V105Z"/><path class="cls-11" d="M17,109c-3.87,0-7-1.34-7-3v4c0,1.42,2.3,2.6,5.39,2.92h1.78V109Z"/><ellipse class="cls-13" cx="17" cy="102" rx="7" ry="3"/><path class="cls-14" d="M17,106c-4,0-8-1.37-8-4s4-4,8-4,8,1.37,8,4S21,106,17,106Zm0-6c-3.72,0-6,1.29-6,2s2.28,2,6,2,6-1.29,6-2S20.72,100,17,100Z"/><path class="cls-14" d="M17,122c-4,0-8-1.37-8-4v-4a1,1,0,0,1,2,0v4c0,.71,2.28,2,6,2s6-1.29,6-2v-4a1,1,0,0,1,2,0v4C25,120.63,21,122,17,122Z"/><path class="cls-14" d="M17,118c-4,0-8-1.37-8-4v-4a1,1,0,0,1,2,0v4c0,.71,2.28,2,6,2s6-1.29,6-2v-4a1,1,0,0,1,2,0v4C25,116.63,21,118,17,118Z"/><path class="cls-14" d="M17,114c-4,0-8-1.37-8-4v-4a1,1,0,0,1,2,0v4c0,.71,2.28,2,6,2s6-1.29,6-2v-4a1,1,0,0,1,2,0v4C25,112.63,21,114,17,114Z"/><path class="cls-14" d="M17,110c-4,0-8-1.37-8-4v-4a1,1,0,0,1,2,0v4c0,.71,2.28,2,6,2s6-1.29,6-2v-4a1,1,0,0,1,2,0v4C25,108.63,21,110,17,110Z"/><polygon class="cls-22" points="110.69 102.27 102.41 114.57 106.13 96.72 110.69 102.27"/><polygon class="cls-22" points="113.91 97.48 110.69 102.27 106.13 96.72 113.91 97.48"/><polygon class="cls-22" points="117.66 102.06 110.89 102.51 110.69 102.27 113.91 97.48 117.66 102.06"/><polygon class="cls-8" points="117.66 102.06 115.89 108.61 110.89 102.51 117.66 102.06"/><polygon class="cls-22" points="121.41 106.63 116.09 108.86 115.89 108.61 117.66 102.06 121.41 106.63"/><polygon class="cls-23" points="115.89 108.61 116.09 108.86 102.41 114.57 110.69 102.27 110.89 102.51 115.89 108.61"/><polygon class="cls-22" points="120.64 114.41 102.41 114.57 116.09 108.86 120.64 114.41"/><polygon class="cls-22" points="120.64 114.41 116.09 108.86 121.41 106.63 120.64 114.41"/><path class="cls-4" d="M120.64,115.4a1,1,0,0,1-.77-.36L105.36,97.35a1,1,0,0,1-.11-1.1,1,1,0,0,1,1-.53l7.77.77a1,1,0,0,1,.68.36l7.5,9.15a1,1,0,0,1,.23.73l-.77,7.77a1,1,0,0,1-.71.86A.92.92,0,0,1,120.64,115.4ZM108.44,98l11.44,14,.49-5-7-8.51Z"/><path class="cls-4" d="M102.41,115.57a1,1,0,0,1-.56-.17,1,1,0,0,1-.27-1.39l11.5-17.08a1,1,0,0,1,1.38-.28,1,1,0,0,1,.28,1.39l-11.5,17.08A1,1,0,0,1,102.41,115.57Z"/><path class="cls-4" d="M110.89,103.51a1,1,0,0,1-1-.93,1,1,0,0,1,.93-1.07l6.77-.45a1,1,0,1,1,.13,2l-6.77.45Z"/><path class="cls-4" d="M115.89,109.61a1.15,1.15,0,0,1-.26,0,1,1,0,0,1-.71-1.23l1.77-6.55a1,1,0,1,1,1.93.52l-1.76,6.55A1,1,0,0,1,115.89,109.61Z"/><path class="cls-4" d="M102.41,115.57a1,1,0,0,1-.39-1.93l19-7.93a1,1,0,0,1,.78,1.85l-19,7.93A1.09,1.09,0,0,1,102.41,115.57Z"/><path class="cls-4" d="M102.41,115.57a1,1,0,0,1-1-1.21l3.73-17.85a1,1,0,1,1,2,.41l-3.47,16.64,17-.16h0a1,1,0,0,1,1,1,1,1,0,0,1-1,1l-18.23.17Z"/><path class="cls-8" d="M108.69,98.8a3.86,3.86,0,0,0,2.56,2.56c1.27.42,1.27.85,0,1.27a3.86,3.86,0,0,0-2.56,2.56c-.43,1.28-.85,1.28-1.28,0a3.83,3.83,0,0,0-2.55-2.56c-1.28-.42-1.28-.85,0-1.27a3.83,3.83,0,0,0,2.55-2.56C107.84,97.52,108.26,97.52,108.69,98.8Z"/><path class="cls-4" d="M100.23,108.75a1,1,0,0,1-.7-.29l-3-3a1,1,0,0,1-.21-1.1l2.45-5.72a1,1,0,0,1,.73-.59,1,1,0,0,1,.89.28l6.29,6.28a1,1,0,0,1,.27.9,1,1,0,0,1-.59.73l-5.71,2.45A1.1,1.1,0,0,1,100.23,108.75ZM98.4,104.5l2.06,2.06,3.74-1.6-4.2-4.19Z"/><polygon class="cls-5" points="105.95 105.3 105.95 114.72 100.23 112.27 100.23 107.75 105.95 105.3"/><polygon class="cls-5" points="105.95 114.72 99.67 121 97.22 115.28 100.23 112.27 105.95 114.72"/><polygon class="cls-5" points="97.22 115.28 99.67 121 90.25 121 92.7 115.28 97.22 115.28"/><polygon class="cls-5" points="92.74 115.27 90.29 120.98 84.01 114.7 89.72 112.25 92.74 115.27"/><polygon class="cls-5" points="89.68 107.73 89.68 112.25 83.97 114.7 83.97 105.28 89.68 107.73"/><polygon class="cls-5" points="90.25 99.02 92.7 104.73 89.68 107.75 83.97 105.3 90.25 99.02"/><polygon class="cls-5" points="106 105.3 100.28 107.75 97.27 104.73 99.72 99.02 106 105.3"/><polygon class="cls-8" points="99.67 99.02 97.22 104.73 92.7 104.73 90.25 99.02 99.67 99.02"/><polygon class="cls-6" points="100.23 107.75 100.23 112.27 97.22 115.28 92.7 115.28 89.68 112.27 89.68 107.75 92.7 104.73 97.22 104.73 100.23 107.75"/><path class="cls-4" d="M99.67,122H90.25a1,1,0,0,1-.71-.29l-6.28-6.28a1,1,0,0,1-.3-.71V105.3a1,1,0,0,1,.3-.71l6.28-6.28a1,1,0,0,1,.71-.29h9.42a1,1,0,0,1,.71.29l6.28,6.28a1,1,0,0,1,.29.71v9.42a1.05,1.05,0,0,1-.29.71l-6.28,6.28A1.05,1.05,0,0,1,99.67,122Zm-9-2h8.59l5.7-5.7v-8.59L99.25,100H90.66L85,105.71v8.59Z"/><path class="cls-4" d="M97.22,116.28H92.7A1,1,0,0,1,92,116l-3-3a1,1,0,0,1-.29-.71v-4.52A1,1,0,0,1,89,107l3-3a1,1,0,0,1,.71-.3h4.52a1,1,0,0,1,.7.3l3,3a1,1,0,0,1,.29.71v4.52a1,1,0,0,1-.29.71l-3,3A1,1,0,0,1,97.22,116.28Zm-4.11-2H96.8l2.43-2.42v-3.7l-2.43-2.43H93.11l-2.43,2.43v3.7Z"/><path class="cls-4" d="M92.7,105.73a1,1,0,0,1-.92-.6l-2.45-5.72a1,1,0,0,1,.52-1.31,1,1,0,0,1,1.32.52l2.44,5.72a1,1,0,0,1-.52,1.31A.91.91,0,0,1,92.7,105.73Z"/><path class="cls-4" d="M97.22,105.73a1,1,0,0,1-.4-.08,1,1,0,0,1-.52-1.31l2.45-5.72a1,1,0,0,1,1.84.79l-2.45,5.72A1,1,0,0,1,97.22,105.73Z"/><path class="cls-4" d="M89.68,108.75a1.09,1.09,0,0,1-.39-.08l-5.72-2.45a1,1,0,0,1-.52-1.32,1,1,0,0,1,1.31-.52l5.71,2.45a1,1,0,0,1-.39,1.92Z"/><path class="cls-4" d="M84,115.72a1,1,0,0,1-.39-1.92l5.72-2.45a1,1,0,0,1,.78,1.84l-5.71,2.45A1.1,1.1,0,0,1,84,115.72Z"/><path class="cls-4" d="M100.23,108.75a1,1,0,0,1-.92-.61,1,1,0,0,1,.53-1.31l5.72-2.45a1,1,0,0,1,1.31.52,1,1,0,0,1-.53,1.32l-5.71,2.45A1.1,1.1,0,0,1,100.23,108.75Z"/><path class="cls-4" d="M106,115.72a1,1,0,0,1-.39-.08l-5.72-2.45a1,1,0,1,1,.79-1.84l5.71,2.45a1,1,0,0,1-.39,1.92Z"/><path class="cls-4" d="M99.67,122a1,1,0,0,1-.92-.61l-2.45-5.71a1,1,0,0,1,1.84-.79l2.45,5.72a1,1,0,0,1-.53,1.31A1.09,1.09,0,0,1,99.67,122Z"/><path class="cls-4" d="M90.25,122a1.1,1.1,0,0,1-.4-.08,1,1,0,0,1-.52-1.31l2.45-5.72a1,1,0,1,1,1.83.79l-2.44,5.71A1,1,0,0,1,90.25,122Z"/><path class="cls-8" d="M99.62,113.92a3.7,3.7,0,0,0,2.46,2.46c1.23.41,1.23.83,0,1.24a3.7,3.7,0,0,0-2.46,2.46c-.41,1.23-.83,1.23-1.24,0a3.7,3.7,0,0,0-2.46-2.46c-1.23-.41-1.23-.83,0-1.24a3.7,3.7,0,0,0,2.46-2.46C98.79,112.69,99.21,112.69,99.62,113.92Z"/></svg>