<?xml version="1.0" ?><svg data-name="010" id="_010" viewBox="0 0 128 128" xmlns="http://www.w3.org/2000/svg"><defs><style>.cls-1,.cls-13,.cls-14,.cls-9{opacity:0.3;}.cls-2{fill:#c7bff3;}.cls-3{fill:#6d6da8;}.cls-4{fill:#fff8cf;}.cls-5{fill:#87d9b8;}.cls-6{fill:#afefa6;}.cls-7{fill:#ecf4ff;}.cls-11,.cls-19,.cls-8{fill:#fff;}.cls-9{fill:#768ea6;}.cls-10{fill:#fff07d;}.cls-11,.cls-19{opacity:0.5;}.cls-12{fill:#d4b3ae;}.cls-13{fill:#fff7de;}.cls-14{fill:#48ba33;}.cls-15{fill:#f9e2dc;}.cls-16{fill:#cc7e54;}.cls-17{fill:#6d6daa;}.cls-18{fill:#97c1ff;}.cls-18,.cls-19,.cls-20{fill-rule:evenodd;}.cls-20{fill:#2c4b75;opacity:0.2;}</style></defs><title/><g class="cls-1"><path class="cls-2" d="M112.3,100.77a30,30,0,0,0,8.59-33.26,19.65,19.65,0,0,1-.32-12.74A37,37,0,0,0,73.22,8.7,21,21,0,0,1,55.84,6.82c-13.79-8-33.72-3.81-42,16.68a16.45,16.45,0,0,0-.75,8A20.6,20.6,0,0,1,9.29,45.78,28.49,28.49,0,0,0,21.41,88.55,20,20,0,0,1,32.79,101,29,29,0,0,0,80.62,113.4,20.06,20.06,0,0,1,93.9,108,29.8,29.8,0,0,0,112.3,100.77Z"/><rect class="cls-2" height="12" width="15" x="9.99" y="19"/><path class="cls-3" d="M25,32H10a1,1,0,0,1-1-1V19a1,1,0,0,1,1-1H25a1,1,0,0,1,1,1V31A1,1,0,0,1,25,32ZM11,30H24V20H11Z"/><rect class="cls-2" height="5" width="17" x="8.99" y="14"/><path class="cls-3" d="M26,20H9a1,1,0,0,1-1-1V14a1,1,0,0,1,1-1H26a1,1,0,0,1,1,1v5A1,1,0,0,1,26,20ZM10,18H25V15H10Z"/><rect class="cls-4" height="6" width="122.01" x="2.99" y="31"/><path class="cls-3" d="M125,38H3a1,1,0,0,1-1-1V31a1,1,0,0,1,1-1H125a1,1,0,0,1,1,1v6A1,1,0,0,1,125,38ZM4,36H124V32H4Z"/><rect class="cls-4" height="6" width="122.01" x="2.99" y="71"/><path class="cls-3" d="M125,78H3a1,1,0,0,1-1-1V71a1,1,0,0,1,1-1H125a1,1,0,0,1,1,1v6A1,1,0,0,1,125,78ZM4,76H124V72H4Z"/><path class="cls-3" d="M20,24H15a1,1,0,0,1,0-2h5a1,1,0,0,1,0,2Z"/><rect class="cls-5" height="3.99" width="41.99" x="41.99" y="14"/><path class="cls-3" d="M84,19H42a1,1,0,0,1-1-1V14a1,1,0,0,1,1-1H84a1,1,0,0,1,1,1v4A1,1,0,0,1,84,19ZM43,17H83V15H43Z"/><rect class="cls-6" height="3.99" width="41.99" x="41.99" y="10"/><path class="cls-3" d="M84,15H42a1,1,0,0,1-1-1V10a1,1,0,0,1,1-1H84a1,1,0,0,1,1,1v4A1,1,0,0,1,84,15ZM43,13H83V11H43Z"/><rect class="cls-5" height="3.99" width="41.99" x="41.99" y="6"/><path class="cls-3" d="M84,11H42a1,1,0,0,1-1-1V6a1,1,0,0,1,1-1H84a1,1,0,0,1,1,1v4A1,1,0,0,1,84,11ZM43,9H83V7H43Z"/><rect class="cls-7" height="14" width="9.99" x="57.99" y="4.5"/><rect class="cls-8" height="3" width="9.99" x="57.99" y="5"/><rect class="cls-9" height="3" width="9.99" x="57.99" y="16"/><path class="cls-3" d="M68,20H58a1,1,0,0,1-1-1V5a1,1,0,0,1,1-1H68a1,1,0,0,1,1,1V19A1,1,0,0,1,68,20Zm-9-2h8V6H59Z"/><rect class="cls-5" height="3.99" width="41.99" x="71.99" y="26.01"/><path class="cls-3" d="M114,31H72a1,1,0,0,1-1-1V26a1,1,0,0,1,1-1h42a1,1,0,0,1,1,1v4A1,1,0,0,1,114,31ZM73,29h40V27H73Z"/><rect class="cls-6" height="3.99" width="41.99" x="71.99" y="22"/><path class="cls-3" d="M114,27H72a1,1,0,0,1-1-1V22a1,1,0,0,1,1-1h42a1,1,0,0,1,1,1v4A1,1,0,0,1,114,27ZM73,25h40V23H73Z"/><rect class="cls-5" height="3.99" width="41.99" x="71.99" y="18"/><path class="cls-3" d="M114,23H72a1,1,0,0,1-1-1V18a1,1,0,0,1,1-1h42a1,1,0,0,1,1,1v4A1,1,0,0,1,114,23ZM73,21h40V19H73Z"/><rect class="cls-7" height="14" width="10" x="87.99" y="16.51"/><rect class="cls-8" height="3" width="10" x="87.99" y="17"/><rect class="cls-9" height="3" width="10" x="87.99" y="28.01"/><path class="cls-3" d="M98,32H88a1,1,0,0,1-1-1V17a1,1,0,0,1,1-1H98a1,1,0,0,1,1,1V31A1,1,0,0,1,98,32Zm-9-2h8V18H89Z"/><rect class="cls-5" height="3.99" width="41.99" x="35.99" y="26.01"/><path class="cls-3" d="M78,31H36a1,1,0,0,1-1-1V26a1,1,0,0,1,1-1H78a1,1,0,0,1,1,1v4A1,1,0,0,1,78,31ZM37,29H77V27H37Z"/><rect class="cls-6" height="3.99" width="41.99" x="35.99" y="22"/><path class="cls-3" d="M78,27H36a1,1,0,0,1-1-1V22a1,1,0,0,1,1-1H78a1,1,0,0,1,1,1v4A1,1,0,0,1,78,27ZM37,25H77V23H37Z"/><rect class="cls-5" height="3.99" width="41.99" x="35.99" y="18"/><path class="cls-3" d="M78,23H36a1,1,0,0,1-1-1V18a1,1,0,0,1,1-1H78a1,1,0,0,1,1,1v4A1,1,0,0,1,78,23ZM37,21H77V19H37Z"/><rect class="cls-7" height="14" width="10" x="51.99" y="16.51"/><rect class="cls-8" height="3" width="10" x="51.99" y="17"/><rect class="cls-9" height="3" width="10" x="51.99" y="28.01"/><path class="cls-3" d="M62,32H52a1,1,0,0,1-1-1V17a1,1,0,0,1,1-1H62a1,1,0,0,1,1,1V31A1,1,0,0,1,62,32Zm-9-2h8V18H53Z"/><path class="cls-10" d="M5.77,68.43l1.8-6A2,2,0,0,1,9.49,61h11a2,2,0,0,1,1.92,1.43l1.8,6A2,2,0,0,1,22.31,71H7.69A2,2,0,0,1,5.77,68.43Z"/><path class="cls-11" d="M5.77,68.43a.28.28,0,0,0,0,.09l15.41-7.4a2.08,2.08,0,0,0-.66-.12h-11a2,2,0,0,0-1.92,1.43Z"/><path class="cls-11" d="M22.79,63.62l-.22-.72-16,7.71A1.94,1.94,0,0,0,7.69,71h4.25l11.41-5.48Z"/><path class="cls-3" d="M22.31,72H7.69a3,3,0,0,1-2.87-3.86l1.8-6A3,3,0,0,1,9.49,60h11a3,3,0,0,1,2.88,2.14l1.8,6A3,3,0,0,1,22.31,72ZM9.49,62a1,1,0,0,0-1,.72l-1.8,6h0a1,1,0,0,0,.16.88,1,1,0,0,0,.8.4H22.31a1,1,0,0,0,.8-.4,1,1,0,0,0,.16-.89l-1.8-6a1,1,0,0,0-1-.71ZM5.77,68.43h0Z"/><path class="cls-10" d="M25.77,68.43l1.8-6A2,2,0,0,1,29.49,61h11a2,2,0,0,1,1.92,1.43l1.8,6A2,2,0,0,1,42.31,71H27.69A2,2,0,0,1,25.77,68.43Z"/><path class="cls-11" d="M25.77,68.43a.28.28,0,0,0,0,.09l15.41-7.4a2.08,2.08,0,0,0-.66-.12h-11a2,2,0,0,0-1.92,1.43Z"/><path class="cls-11" d="M42.79,63.62l-.22-.72-16,7.71a1.94,1.94,0,0,0,1.17.39h4.25l11.41-5.48Z"/><path class="cls-3" d="M42.31,72H27.69a3,3,0,0,1-2.87-3.86l1.8-6A3,3,0,0,1,29.49,60h11a3,3,0,0,1,2.88,2.14l1.8,6A3,3,0,0,1,42.31,72ZM29.49,62a1,1,0,0,0-1,.72l-1.8,6h0a1,1,0,0,0,.16.88,1,1,0,0,0,.8.4H42.31a1,1,0,0,0,.8-.4,1,1,0,0,0,.16-.89l-1.8-6a1,1,0,0,0-1-.71Zm-3.72,6.43h0Z"/><path class="cls-10" d="M45.77,68.43l1.8-6A2,2,0,0,1,49.49,61h11a2,2,0,0,1,1.92,1.43l1.8,6A2,2,0,0,1,62.31,71H47.69A2,2,0,0,1,45.77,68.43Z"/><path class="cls-11" d="M45.77,68.43a.28.28,0,0,0,0,.09l15.41-7.4a2.08,2.08,0,0,0-.66-.12h-11a2,2,0,0,0-1.92,1.43Z"/><path class="cls-11" d="M62.79,63.62l-.22-.72-16,7.71a1.94,1.94,0,0,0,1.17.39h4.25l11.41-5.48Z"/><path class="cls-3" d="M62.31,72H47.69a3,3,0,0,1-2.87-3.86l1.8-6A3,3,0,0,1,49.49,60h11a3,3,0,0,1,2.88,2.14l1.8,6A3,3,0,0,1,62.31,72ZM49.49,62a1,1,0,0,0-1,.72l-1.8,6h0a1,1,0,0,0,.16.88,1,1,0,0,0,.8.4H62.31a1,1,0,0,0,.8-.4,1,1,0,0,0,.16-.89l-1.8-6a1,1,0,0,0-1-.71Zm-3.72,6.43h0Z"/><path class="cls-10" d="M35.77,58.43l1.8-6A2,2,0,0,1,39.49,51h11a2,2,0,0,1,1.92,1.43l1.8,6A2,2,0,0,1,52.31,61H37.69A2,2,0,0,1,35.77,58.43Z"/><path class="cls-11" d="M35.77,58.43a.28.28,0,0,0,0,.09l15.41-7.4a2.08,2.08,0,0,0-.66-.12h-11a2,2,0,0,0-1.92,1.43Z"/><path class="cls-11" d="M52.79,53.62l-.22-.72-16,7.71a1.94,1.94,0,0,0,1.17.39h4.25l11.41-5.48Z"/><path class="cls-3" d="M52.31,62H37.69a3,3,0,0,1-2.87-3.86l1.8-6A3,3,0,0,1,39.49,50h11a3,3,0,0,1,2.88,2.14l1.8,6A3,3,0,0,1,52.31,62ZM39.49,52a1,1,0,0,0-1,.72l-1.8,6h0a1,1,0,0,0,.16.88,1,1,0,0,0,.8.4H52.31a1,1,0,0,0,.8-.4,1,1,0,0,0,.16-.89l-1.8-6a1,1,0,0,0-1-.71Zm-3.72,6.43h0Z"/><path class="cls-10" d="M15.77,58.43l1.8-6A2,2,0,0,1,19.49,51h11a2,2,0,0,1,1.92,1.43l1.8,6A2,2,0,0,1,32.31,61H17.69A2,2,0,0,1,15.77,58.43Z"/><path class="cls-11" d="M15.77,58.43a.28.28,0,0,0,0,.09l15.41-7.4a2.08,2.08,0,0,0-.66-.12h-11a2,2,0,0,0-1.92,1.43Z"/><path class="cls-11" d="M32.79,53.62l-.22-.72-16,7.71a1.94,1.94,0,0,0,1.17.39h4.25l11.41-5.48Z"/><path class="cls-3" d="M32.31,62H17.69a3,3,0,0,1-2.87-3.86l1.8-6A3,3,0,0,1,19.49,50h11a3,3,0,0,1,2.88,2.14l1.8,6A3,3,0,0,1,32.31,62ZM19.49,52a1,1,0,0,0-1,.72l-1.8,6h0a1,1,0,0,0,.16.88,1,1,0,0,0,.8.4H32.31a1,1,0,0,0,.8-.4,1,1,0,0,0,.16-.89l-1.8-6a1,1,0,0,0-1-.71Zm-3.72,6.43h0Z"/><path class="cls-10" d="M25.77,48.43l1.8-6A2,2,0,0,1,29.49,41h11a2,2,0,0,1,1.92,1.43l1.8,6A2,2,0,0,1,42.31,51H27.69A2,2,0,0,1,25.77,48.43Z"/><path class="cls-11" d="M25.77,48.43a.28.28,0,0,0,0,.09l15.41-7.4a2.08,2.08,0,0,0-.66-.12h-11a2,2,0,0,0-1.92,1.43Z"/><path class="cls-11" d="M42.79,43.62l-.22-.72-16,7.71a1.94,1.94,0,0,0,1.17.39h4.25l11.41-5.48Z"/><path class="cls-3" d="M42.31,52H27.69a3,3,0,0,1-2.87-3.86l1.8-6A3,3,0,0,1,29.49,40h11a3,3,0,0,1,2.88,2.14l1.8,6A3,3,0,0,1,42.31,52ZM29.49,42a1,1,0,0,0-1,.72l-1.8,6h0a1,1,0,0,0,.16.88,1,1,0,0,0,.8.4H42.31a1,1,0,0,0,.8-.4,1,1,0,0,0,.16-.89l-1.8-6a1,1,0,0,0-1-.71Zm-3.72,6.43h0Z"/><path class="cls-10" d="M85.77,68.43l1.8-6A2,2,0,0,1,89.49,61h11a2,2,0,0,1,1.92,1.43l1.8,6A2,2,0,0,1,102.31,71H87.69A2,2,0,0,1,85.77,68.43Z"/><path class="cls-11" d="M85.77,68.43a.28.28,0,0,0,0,.09l15.41-7.4a2.08,2.08,0,0,0-.66-.12h-11a2,2,0,0,0-1.92,1.43Z"/><path class="cls-11" d="M102.79,63.62l-.22-.72-16,7.71a1.94,1.94,0,0,0,1.17.39h4.25l11.41-5.48Z"/><path class="cls-3" d="M102.31,72H87.69a3,3,0,0,1-2.87-3.86l1.8-6A3,3,0,0,1,89.49,60h11a3,3,0,0,1,2.88,2.14l1.8,6A3,3,0,0,1,102.31,72ZM89.49,62a1,1,0,0,0-1,.72l-1.8,6h0a1,1,0,0,0,.16.88,1,1,0,0,0,.8.4h14.62a1,1,0,0,0,.8-.4,1,1,0,0,0,.16-.89l-1.8-6a1,1,0,0,0-1-.71Zm-3.72,6.43h0Z"/><path class="cls-10" d="M105.77,68.43l1.8-6A2,2,0,0,1,109.49,61h11a2,2,0,0,1,1.92,1.43l1.8,6A2,2,0,0,1,122.31,71H107.69A2,2,0,0,1,105.77,68.43Z"/><path class="cls-11" d="M105.77,68.43a.28.28,0,0,0,0,.09l15.41-7.4a2.08,2.08,0,0,0-.66-.12h-11a2,2,0,0,0-1.92,1.43Z"/><path class="cls-11" d="M122.79,63.62l-.22-.72-16,7.71a1.94,1.94,0,0,0,1.17.39h4.25l11.41-5.48Z"/><path class="cls-3" d="M122.31,72H107.69a3,3,0,0,1-2.87-3.86l1.8-6A3,3,0,0,1,109.49,60h11a3,3,0,0,1,2.88,2.14l1.8,6A3,3,0,0,1,122.31,72ZM109.49,62a1,1,0,0,0-1,.72l-1.8,6h0a1,1,0,0,0,.16.88,1,1,0,0,0,.8.4h14.62a1,1,0,0,0,.8-.4,1,1,0,0,0,.16-.89l-1.8-6a1,1,0,0,0-1-.71Zm-3.72,6.43h0Z"/><path class="cls-10" d="M105.77,58.43l1.8-6A2,2,0,0,1,109.49,51h11a2,2,0,0,1,1.92,1.43l1.8,6A2,2,0,0,1,122.31,61H107.69A2,2,0,0,1,105.77,58.43Z"/><path class="cls-11" d="M105.77,58.43a.28.28,0,0,0,0,.09l15.41-7.4a2.08,2.08,0,0,0-.66-.12h-11a2,2,0,0,0-1.92,1.43Z"/><path class="cls-11" d="M122.79,53.62l-.22-.72-16,7.71a1.94,1.94,0,0,0,1.17.39h4.25l11.41-5.48Z"/><path class="cls-3" d="M122.31,62H107.69a3,3,0,0,1-2.87-3.86l1.8-6A3,3,0,0,1,109.49,50h11a3,3,0,0,1,2.88,2.14l1.8,6A3,3,0,0,1,122.31,62ZM109.49,52a1,1,0,0,0-1,.72l-1.8,6h0a1,1,0,0,0,.16.88,1,1,0,0,0,.8.4h14.62a1,1,0,0,0,.8-.4,1,1,0,0,0,.16-.89l-1.8-6a1,1,0,0,0-1-.71Zm-3.72,6.43h0Z"/><path class="cls-10" d="M85.77,58.43l1.8-6A2,2,0,0,1,89.49,51h11a2,2,0,0,1,1.92,1.43l1.8,6A2,2,0,0,1,102.31,61H87.69A2,2,0,0,1,85.77,58.43Z"/><path class="cls-11" d="M85.77,58.43a.28.28,0,0,0,0,.09l15.41-7.4a2.08,2.08,0,0,0-.66-.12h-11a2,2,0,0,0-1.92,1.43Z"/><path class="cls-11" d="M102.79,53.62l-.22-.72-16,7.71a1.94,1.94,0,0,0,1.17.39h4.25l11.41-5.48Z"/><path class="cls-3" d="M102.31,62H87.69a3,3,0,0,1-2.87-3.86l1.8-6A3,3,0,0,1,89.49,50h11a3,3,0,0,1,2.88,2.14l1.8,6A3,3,0,0,1,102.31,62ZM89.49,52a1,1,0,0,0-1,.72l-1.8,6h0a1,1,0,0,0,.16.88,1,1,0,0,0,.8.4h14.62a1,1,0,0,0,.8-.4,1,1,0,0,0,.16-.89l-1.8-6a1,1,0,0,0-1-.71Zm-3.72,6.43h0Z"/><path class="cls-10" d="M95.77,48.43l1.8-6A2,2,0,0,1,99.49,41h11a2,2,0,0,1,1.92,1.43l1.8,6A2,2,0,0,1,112.31,51H97.69A2,2,0,0,1,95.77,48.43Z"/><path class="cls-11" d="M95.77,48.43a.28.28,0,0,0,0,.09l15.41-7.4a2.08,2.08,0,0,0-.66-.12h-11a2,2,0,0,0-1.92,1.43Z"/><path class="cls-11" d="M112.79,43.62l-.22-.72-16,7.71a1.94,1.94,0,0,0,1.17.39h4.25l11.41-5.48Z"/><path class="cls-3" d="M112.31,52H97.69a3,3,0,0,1-2.87-3.86l1.8-6A3,3,0,0,1,99.49,40h11a3,3,0,0,1,2.88,2.14l1.8,6A3,3,0,0,1,112.31,52ZM99.49,42a1,1,0,0,0-1,.72l-1.8,6h0a1,1,0,0,0,.16.88,1,1,0,0,0,.8.4h14.62a1,1,0,0,0,.8-.4,1,1,0,0,0,.16-.89l-1.8-6a1,1,0,0,0-1-.71Zm-3.72,6.43h0Z"/></g><path class="cls-12" d="M67.5,98c-17.4,0-30.17-1.24-27.82-4.74C45,85.37,55.45,80,67.5,80,81,80,92.45,86.71,97,96.14,98.27,98.89,84.89,98,67.5,98Z"/><path class="cls-13" d="M40.35,95.33C45.83,88,55.93,83,67.5,83,80.12,83,91,88.89,96,97.4c.85-.3,1.19-.71.93-1.26C92.45,86.71,81,80,67.5,80c-12,0-22.52,5.37-27.82,13.26C39.14,94.07,39.41,94.75,40.35,95.33Z"/><path class="cls-3" d="M85.51,99.14c-2.18,0-4.7,0-7.59-.06C74.69,99,71.19,99,67.5,99c-26.73,0-28.27-2.88-28.85-4a2.18,2.18,0,0,1,.2-2.33C44.53,84.25,55.5,79,67.5,79c13.38,0,25.58,6.71,30.36,16.71a1.65,1.65,0,0,1-.07,1.65C96.86,98.81,93.34,99.14,85.51,99.14ZM67.5,81c-11.34,0-21.68,4.91-27,12.82q-.13.2-.09.27C40.68,94.57,43.2,97,67.5,97c3.69,0,7.21,0,10.44.08,8.09.09,16.43.19,18-.71C91.44,87.17,80,81,67.5,81Z"/><path class="cls-3" d="M68,85.48a1,1,0,0,1-.94-.66c-1.23-3.45-.29-9.19.7-15.27,1.23-7.48,2.62-16-.5-19.38a1,1,0,1,1,1.48-1.34c3.77,4.12,2.36,12.73,1,21-1,5.81-1.86,11.3-.8,14.27a1,1,0,0,1-.6,1.27A1.06,1.06,0,0,1,68,85.48Z"/><path class="cls-5" d="M61.34,68.17c-2.7-2.76-2.82-7.38-2.64-7.2,0,0,4.65,0,7.34,2.79S68.46,71,68.46,71,64,70.93,61.34,68.17Z"/><path class="cls-3" d="M68.46,72h0c-.2,0-4.89-.07-7.84-3.09a11.54,11.54,0,0,1-2.92-8.14,1.07,1.07,0,0,1,.74-.73,1,1,0,0,1,.35,0c.7,0,5.19.25,8,3.09,3,3,2.71,7.77,2.7,8A1,1,0,0,1,68.46,72ZM59.7,62.05a9.87,9.87,0,0,0,2.35,5.42,9.47,9.47,0,0,0,5.39,2.4,8.75,8.75,0,0,0-2.11-5.41A9.84,9.84,0,0,0,59.7,62.05Z"/><path class="cls-6" d="M78.79,68.47c4.55-3,6.95-9.71,6.65-9.51,0,0-6.44-1.34-11,1.69S69,69.91,69,69.91A12.71,12.71,0,0,0,78.79,68.47Z"/><path class="cls-3" d="M72.31,71.33a13.12,13.12,0,0,1-3.62-.47,1,1,0,0,1-.71-1.1c0-.27,1.06-6.71,5.92-10,4.67-3.1,11-2,11.69-1.84a1,1,0,0,1,.7.43c.41.61-.13,2.22-1.59,4.78a18.34,18.34,0,0,1-5.36,6.12A12.61,12.61,0,0,1,72.31,71.33Zm-2.15-2.19a11.37,11.37,0,0,0,8.07-1.51h0c3-2,5.15-6,5.93-7.85-1.94-.21-6.08-.35-9.15,1.7S70.6,67.39,70.16,69.14Z"/><rect class="cls-5" height="36" width="69" x="34" y="14"/><rect class="cls-14" height="18" width="69" x="34" y="32"/><path class="cls-6" d="M98,40.58A4.43,4.43,0,0,0,93.57,45H43.42A4.42,4.42,0,0,0,39,40.58V23.42A4.42,4.42,0,0,0,43.42,19H93.57A4.43,4.43,0,0,0,98,23.42Z"/><path class="cls-3" d="M103,51H34a1,1,0,0,1-1-1V14a1,1,0,0,1,1-1h69a1,1,0,0,1,1,1V50A1,1,0,0,1,103,51ZM35,49h67V15H35Z"/><path class="cls-14" d="M38.5,32v9A4.49,4.49,0,0,1,43,45.5H94A4.49,4.49,0,0,1,98.5,41V32Z"/><path class="cls-3" d="M93.57,46H43.42a1,1,0,0,1-1-1A3.42,3.42,0,0,0,39,41.58a1,1,0,0,1-1-1V23.42a1,1,0,0,1,1-1A3.42,3.42,0,0,0,42.42,19a1,1,0,0,1,1-1H93.57a1,1,0,0,1,1,1A3.43,3.43,0,0,0,98,22.42a1,1,0,0,1,1,1V40.58a1,1,0,0,1-1,1A3.43,3.43,0,0,0,94.57,45,1,1,0,0,1,93.57,46ZM44.33,44H92.67A5.43,5.43,0,0,1,97,39.68V24.33A5.44,5.44,0,0,1,92.67,20H44.33A5.44,5.44,0,0,1,40,24.33V39.68A5.43,5.43,0,0,1,44.33,44Z"/><ellipse class="cls-5" cx="68.5" cy="33.5" rx="9.6" ry="12"/><path class="cls-3" d="M68.5,46.5c-5.85,0-10.6-5.83-10.6-13s4.75-13,10.6-13,10.6,5.83,10.6,13S74.34,46.5,68.5,46.5Zm0-24c-4.74,0-8.6,4.94-8.6,11s3.86,11,8.6,11,8.6-4.93,8.6-11S73.24,22.5,68.5,22.5Z"/><circle class="cls-5" cx="49" cy="32" r="2.25"/><path class="cls-3" d="M49,35.25A3.25,3.25,0,1,1,52.25,32,3.26,3.26,0,0,1,49,35.25Zm0-4.5A1.25,1.25,0,1,0,50.25,32,1.25,1.25,0,0,0,49,30.75Z"/><circle class="cls-3" cx="38.5" cy="18.5" r="0.75"/><path class="cls-3" d="M38.5,20.25a1.75,1.75,0,1,1,1.75-1.75A1.75,1.75,0,0,1,38.5,20.25Zm0-2a.25.25,0,0,0-.25.25c0,.28.5.28.5,0A.25.25,0,0,0,38.5,18.25Z"/><circle class="cls-3" cx="38.5" cy="45.5" r="0.75"/><path class="cls-3" d="M38.5,47.25a1.75,1.75,0,1,1,1.75-1.75A1.75,1.75,0,0,1,38.5,47.25Zm0-2a.25.25,0,0,0-.25.25c0,.28.5.28.5,0A.25.25,0,0,0,38.5,45.25Z"/><circle class="cls-3" cx="98.5" cy="18.5" r="0.75"/><path class="cls-3" d="M98.5,20.25a1.75,1.75,0,1,1,1.75-1.75A1.76,1.76,0,0,1,98.5,20.25Zm0-2a.25.25,0,0,0-.25.25c0,.28.5.28.5,0A.25.25,0,0,0,98.5,18.25Z"/><circle class="cls-3" cx="98.5" cy="45.5" r="0.75"/><path class="cls-3" d="M98.5,47.25a1.75,1.75,0,1,1,1.75-1.75A1.75,1.75,0,0,1,98.5,47.25Zm0-2a.25.25,0,0,0-.25.25c0,.28.5.28.5,0A.25.25,0,0,0,98.5,45.25Z"/><path class="cls-6" d="M72.45,40.11,71.91,40a.65.65,0,0,1-.55-.67c0-.36,0-.75,0-1.14,0-.91,1.1-2,1.16-3.29a5.27,5.27,0,0,0,.57-2.1,1.07,1.07,0,0,0-.26-.8c.09-.48.17-1,.26-1.5.38-2.09-.35-3.59-2.18-4.24-.67-.24-3.41-.72-4.43-1.71-.37-.35-.12,1.67-.46,1.82a3.34,3.34,0,0,0-2.13,4.13c.09.52.17,1,.26,1.5a1.07,1.07,0,0,0-.26.8,5.27,5.27,0,0,0,.57,2.1c.06,1.28,1.16,2.31,1.16,3.29,0,.39,0,.78,0,1.14a.65.65,0,0,1-.55.67l-.6.12a10.72,10.72,0,0,0-3.27,1.2,9.2,9.2,0,0,0,6.28,4.13c.32,0,.65.06,1,.06h.09q.47,0,.93-.06a9.21,9.21,0,0,0,6.3-4.16A10.54,10.54,0,0,0,72.45,40.11Z"/><path class="cls-3" d="M68.45,46.5h0a9.48,9.48,0,0,1-8-4.63,1,1,0,0,1-.15-.79,1,1,0,0,1,.48-.64,12.14,12.14,0,0,1,3.57-1.31l.34-.07v-.89a3.13,3.13,0,0,0-.41-1,5.87,5.87,0,0,1-.73-2,6,6,0,0,1-.59-2.36,2.43,2.43,0,0,1,.2-1c0-.14,0-.27-.07-.41l-.12-.7a4.27,4.27,0,0,1,2.31-5c0-.13,0-.27,0-.37,0-.7.07-1.42.77-1.7a1.08,1.08,0,0,1,1.16.26,9.66,9.66,0,0,0,3.23,1.24c.37.09.67.17.84.23,2.27.81,3.31,2.76,2.84,5.37l-.12.68c0,.14,0,.29-.07.43a2.46,2.46,0,0,1,.2,1,6,6,0,0,1-.59,2.36,6,6,0,0,1-.75,2.08,3.45,3.45,0,0,0-.39,1v.89l.28.06a11.39,11.39,0,0,1,3.64,1.28,1,1,0,0,1,.33,1.44,10.12,10.12,0,0,1-7,4.58c-.35,0-.7.06-1,.07Zm-5.7-4.83a7.79,7.79,0,0,0,4.88,2.77,6,6,0,0,0,.86.06,7.49,7.49,0,0,0,.89-.06,7.78,7.78,0,0,0,4.88-2.79,10.85,10.85,0,0,0-2-.56h0L71.69,41a1.63,1.63,0,0,1-1.33-1.69c0-.34,0-.71,0-1.09A4.11,4.11,0,0,1,71,36.31a4.07,4.07,0,0,0,.54-1.47,1,1,0,0,1,.1-.39,4.4,4.4,0,0,0,.47-1.66.79.79,0,0,0,0-.16.85.85,0,0,1-.23-.83c0-.25.09-.51.14-.78l.12-.71c.29-1.63-.21-2.65-1.54-3.12a6.64,6.64,0,0,0-.66-.18,17.26,17.26,0,0,1-2.74-.87,1.35,1.35,0,0,1-.74,1.13,2.37,2.37,0,0,0-1.56,3L65,31c0,.26.08.52.13.77a1,1,0,0,1-.24.85v.13a4.4,4.4,0,0,0,.47,1.66,1,1,0,0,1,.1.39A3.62,3.62,0,0,0,66,36.25a4.24,4.24,0,0,1,.63,1.93c0,.38,0,.75,0,1.09A1.65,1.65,0,0,1,65.27,41l-.59.12A10.57,10.57,0,0,0,62.75,41.67ZM64.9,39h0Zm7.18,0h0Z"/><path class="cls-5" d="M80.5,45h-6a11.21,11.21,0,0,0-6-1.5,11.22,11.22,0,0,0-6,1.5h-6v5h24Z"/><path class="cls-3" d="M80.5,51h-24a1,1,0,0,1-1-1V45a1,1,0,0,1,1-1h5.71a13.92,13.92,0,0,1,12.57,0H80.5a1,1,0,0,1,1,1v5A1,1,0,0,1,80.5,51Zm-23-2h22V46h-5a1,1,0,0,1-.55-.17A10.38,10.38,0,0,0,68.5,44.5a10.36,10.36,0,0,0-5.44,1.33,1,1,0,0,1-.56.17h-5Z"/><path class="cls-3" d="M53.49,38h-9a1,1,0,0,1,0-2h9a1,1,0,1,1,0,2Z"/><circle class="cls-5" cx="88" cy="32" r="2.25"/><path class="cls-3" d="M88,35.25A3.25,3.25,0,1,1,91.25,32,3.26,3.26,0,0,1,88,35.25Zm0-4.5A1.25,1.25,0,1,0,89.25,32,1.25,1.25,0,0,0,88,30.75Z"/><path class="cls-3" d="M92.5,38h-9a1,1,0,0,1,0-2h9a1,1,0,0,1,0,2Z"/><path class="cls-15" d="M20.56,115.07l6.27-2c9.29-2.93,27.55,2.36,38.26,2.47,2.45,0,22.78-9,24-9.9C92.43,103,101,97.22,106.3,93c4.6-3.66,1.88-7.21-2.5-6.53a16.27,16.27,0,0,0-8.71,5c-2.71.67-8,2.19-9.9,4.87-2.06-.15-20,4.62-20,4.62a13.84,13.84,0,0,1,8.44-.5c.64.15,7.91-2.29,9.58-3.07,1.9-.89,3.41-2.48,3.23-4.57-.31-3.58-6.61-5.09-12.84-3.09-1.43.46-3.1,1.78-4.88,1.69-4.64-.24-7.85-2.17-12.77-2.86-9.79-1.37-15.38.51-29.58,5L14.9,97.14C12.8,103.6,20.29,107.59,20.56,115.07Z"/><path class="cls-11" d="M97.31,89.62c3-1.62,5.64-.47,6.56,1.49-1.71,1.55-3.12,7.19-1.13,9.9,1.9-1.09,2.23-7,3.56-8,4.6-3.66,2.08-7.11-2.75-6.31A15.78,15.78,0,0,0,97.31,89.62Z"/><g class="cls-1"><path class="cls-16" d="M63.25,110.38c-4.64-1.19-25.57-6.42-37.3-2.72L19.25,110a13.1,13.1,0,0,1,1.31,5.08l6.27-2c9.29-2.93,27.55,2.48,38.26,2.47,2.45,0,22.78-9,24-9.9l2.57-2,10.23-7.74c-5,1.41-10.44,3.38-15.13,7.19C75.94,107.76,66.54,111.23,63.25,110.38Z"/><path class="cls-16" d="M28.3,95.3a44.8,44.8,0,0,0,8.87,12.12c.88.79-8.5,2.66-8.5,2.66L25,96Z"/><path class="cls-16" d="M74.17,103.54c4.56-1,12.08-3.92,13.24-7.92,0-.18-1.38.56-1.57.41-2.22,0-9.59,3.09-11.76,4.51a8.59,8.59,0,0,0-7.41-.08s-2.47,1.31-2.46,1.25c-2.8.58-7.84,2.71-7.8,3C56.73,106.69,65.56,105.5,74.17,103.54Z"/></g><path class="cls-11" d="M67.06,95.13c3.56-.41,6.45-2,8.81-2.45,3.13-.64,2.64,0,2.73.69a26.76,26.76,0,0,0,1.75,5.08c1.25-.44,2.33-.84,2.85-1.09,1.9-.89,3.41-2.48,3.23-4.57-.31-3.58-6.61-5.09-12.84-3.09-1.43.46-3.1,1.78-4.88,1.69-4.64-.24-7.85-2.17-12.77-2.86-9.79-1.37-15.38.51-29.58,5L14.9,97.14a7.31,7.31,0,0,0,0,4.58c4.67-1.58,13-4.2,17.2-5.36C43,93.33,61.05,95.83,67.06,95.13Z"/><path class="cls-17" d="M56.61,105.19a1,1,0,0,1-1-.89,1,1,0,0,1,.89-1.1c3.44-.39,8.13-3.11,8.18-3.14a.75.75,0,0,1,.18-.08,14.7,14.7,0,0,1,8.89-.55,68.76,68.76,0,0,0,9-3c.85-.4,2.82-1.55,2.65-3.59A2.51,2.51,0,0,0,84.17,91c-2.19-1.46-6.41-1.61-10.27-.37a12,12,0,0,0-1.38.62,8,8,0,0,1-3.86,1.12,28.94,28.94,0,0,1-7.09-1.47,36.67,36.67,0,0,0-5.77-1.4C46.47,88.21,41,90,27.69,94.15L13.06,98.76a1,1,0,0,1-.6-1.9l14.63-4.62c13.59-4.3,19.22-6.07,29-4.7A38.36,38.36,0,0,1,62.15,89a26.68,26.68,0,0,0,6.61,1.39,6.26,6.26,0,0,0,2.87-.92,12.45,12.45,0,0,1,1.66-.72c4.46-1.44,9.28-1.19,12,.6a4.46,4.46,0,0,1,2.15,3.35c.2,2.28-1.22,4.36-3.79,5.57-.85.39-9,3.41-10.24,3.13a12.73,12.73,0,0,0-7.79.44c-.71.41-5.25,2.93-8.88,3.34Zm17.08-5.75Z"/><path class="cls-17" d="M64.19,117.21a17.65,17.65,0,0,1-4-.65c-1-.24-2.08-.49-3.19-.64-1.92-.25-4-.56-6-.88-8.57-1.29-18.29-2.75-23.86-1l-6.4,2a1,1,0,0,1-.6-1.9l6.4-2c6-1.9,16-.4,24.76.93,2.07.31,4.09.61,6,.87a31.73,31.73,0,0,1,3.39.68,12.15,12.15,0,0,0,4.1.55,6,6,0,0,0,3.13-1.12,12.68,12.68,0,0,1,2.47-1.3c3.44-1.36,7.87-3.26,11.44-4.78l2-.87c1.11-.48,2-.78,2.78-1a16.51,16.51,0,0,0,1.61-.6,12.9,12.9,0,0,0,2.08-1.71,29.87,29.87,0,0,1,2.57-2.18l2.35-1.68c3.5-2.51,7.47-5.35,10.42-7.7,1.61-1.27,2.32-2.6,1.9-3.56s-1.91-1.46-3.62-1.19a15.13,15.13,0,0,0-8.1,4.65,1,1,0,0,1-.42.29,40.1,40.1,0,0,0-9.81,4.75,1,1,0,0,1-1.12-1.65,40.72,40.72,0,0,1,10-4.9,17.19,17.19,0,0,1,9.12-5.12c2.65-.41,5,.54,5.76,2.37.39.88.92,3.23-2.48,5.93-3,2.38-7,5.23-10.51,7.75l-2.34,1.68a27.05,27.05,0,0,0-2.39,2,12.42,12.42,0,0,1-2.59,2.05,16.4,16.4,0,0,1-1.81.67c-.75.25-1.6.54-2.63,1l-2,.86c-3.58,1.53-8,3.44-11.5,4.81A10.45,10.45,0,0,0,69,115.73a8.91,8.91,0,0,1-4.82,1.48Z"/><path class="cls-17" d="M85.88,98.47a1,1,0,0,1-.93-.64,1,1,0,0,0-.24-.37,1,1,0,0,1-.15-1.39,1,1,0,0,1,1.36-.2,2.77,2.77,0,0,1,.9,1.24,1,1,0,0,1-.58,1.29A.92.92,0,0,1,85.88,98.47Z"/><path class="cls-17" d="M95.28,93.1a1.5,1.5,0,0,1-1.16-1.84,1,1,0,0,1,1.36-.39,1.5,1.5,0,0,1,.8,1.19,1,1,0,0,1-1,1Zm-.77-.48h0Zm-.23-.48Z"/><path class="cls-17" d="M76.33,102.55h-.09a1,1,0,0,1-.9-1.09,1.12,1.12,0,0,0-.08-.67,1,1,0,0,1,.18-1.38,1,1,0,0,1,1.42.18,2.88,2.88,0,0,1,.47,2A1,1,0,0,1,76.33,102.55Z"/><path class="cls-17" d="M70.17,93.92a1,1,0,0,1-.86-.49,5,5,0,0,0-1.19-1.23,1,1,0,0,1-.22-1.4,1,1,0,0,1,1.4-.22A6.81,6.81,0,0,1,71,92.4a1,1,0,0,1-.34,1.37A1,1,0,0,1,70.17,93.92Z"/><path class="cls-18" d="M31.72,120.37,21,123.1a2.5,2.5,0,0,1-2.89-1.42,168.44,168.44,0,0,1-9-27.4,2.48,2.48,0,0,1,1.8-3l12.64-3.21a2.47,2.47,0,0,1,3,1.79l7,27.49A2.49,2.49,0,0,1,31.72,120.37Z"/><path class="cls-19" d="M23.51,88.08,10.87,91.29a2.48,2.48,0,0,0-1.8,3c.26,1.07,1.17,4.62,1.14,4.46a2.45,2.45,0,0,1,1.79-3l12.65-3.22a2.49,2.49,0,0,1,3,1.79l-1.14-4.46A2.47,2.47,0,0,0,23.51,88.08Z"/><path class="cls-20" d="M18.1,121.68A2.5,2.5,0,0,0,21,123.1l10.73-2.73a2.49,2.49,0,0,0,1.79-3l-1.07-4.2a2.47,2.47,0,0,1-1.79,3l-10.73,2.73A2.48,2.48,0,0,1,17,117.48Z"/><path class="cls-17" d="M20.37,124.17a3.48,3.48,0,0,1-3.18-2.08A163.78,163.78,0,0,1,8.1,94.52a3.49,3.49,0,0,1,2.52-4.2l12.65-3.21a3.47,3.47,0,0,1,4.22,2.51l7,27.5a3.47,3.47,0,0,1-.38,2.63A3.52,3.52,0,0,1,32,121.34h0l-10.73,2.72A3.12,3.12,0,0,1,20.37,124.17ZM24.13,89a1.5,1.5,0,0,0-.37,0L11.11,92.26A1.48,1.48,0,0,0,10,94a162.57,162.57,0,0,0,9,27.24,1.49,1.49,0,0,0,1.72.85l10.73-2.73a1.52,1.52,0,0,0,.91-.68,1.44,1.44,0,0,0,.16-1.11l-7-27.5a1.42,1.42,0,0,0-.67-.9A1.44,1.44,0,0,0,24.13,89Zm7.59,31.37h0Z"/><path class="cls-17" d="M25.13,116.69a1,1,0,0,1-.7-.29,1,1,0,0,1,0-1.42,1,1,0,0,1,.32-.21,1,1,0,0,1,.77,0,1,1,0,0,1,.32.21,1,1,0,0,1,.22.33,1,1,0,0,1,.08.38,1,1,0,0,1-.3.71,1,1,0,0,1-.32.21A1,1,0,0,1,25.13,116.69Z"/></svg>