<?xml version="1.0" ?><svg data-name="010" id="_010" viewBox="0 0 128 128" xmlns="http://www.w3.org/2000/svg"><defs><style>.cls-1,.cls-22,.cls-30{opacity:0.3;}.cls-2,.cls-20{fill:#c9c1f5;}.cls-3{fill:#f2eed5;}.cls-4{fill:#6d6daa;}.cls-5{fill:#fffad1;}.cls-6{fill:#e0f3ff;}.cls-7{fill:#ff968c;}.cls-8{fill:#fff2cc;}.cls-9{fill:#ced8ee;}.cls-10,.cls-11,.cls-12,.cls-21{fill:#fff;}.cls-10,.cls-17,.cls-21{opacity:0.5;}.cls-11,.cls-20,.cls-21,.cls-22{fill-rule:evenodd;}.cls-13{fill:#d6b5b0;}.cls-14{fill:#ffd288;}.cls-15{fill:#96d7ff;}.cls-16{fill:#ff91a9;}.cls-18{fill:#231f20;}.cls-19{fill:#b1f1a8;}.cls-22{fill:#554dad;}.cls-23{fill:#ffb0c2;}.cls-24,.cls-27,.cls-30{fill:#750000;}.cls-24,.cls-26{opacity:0.15;}.cls-25{fill:#ff94ac;}.cls-28{fill:#ffd8e1;}.cls-29{fill:#fff27d;}</style></defs><title/><g class="cls-1"><path class="cls-2" d="M120.71,53.51a27.94,27.94,0,0,0-21.9-23.32,18.36,18.36,0,0,1-10.17-6.1A34.45,34.45,0,0,0,36,24.18,34.37,34.37,0,0,0,28.81,38.4,19.55,19.55,0,0,1,18.67,51.13C5.49,58-1.12,75.77,10.9,92.46A15.51,15.51,0,0,0,16.81,97a19.14,19.14,0,0,1,9.33,10.13,26.53,26.53,0,0,0,39.69,11.76,18.71,18.71,0,0,1,15.48-2.74,27,27,0,0,0,33.56-31.46,18.7,18.7,0,0,1,2.33-13.16A27.8,27.8,0,0,0,120.71,53.51Z"/><rect class="cls-3" height="21" width="6" x="84.01" y="65"/><path class="cls-4" d="M90,87H84a1,1,0,0,1-1-1V65a1,1,0,0,1,1-1h6a1,1,0,0,1,1,1V86A1,1,0,0,1,90,87Zm-5-2h4V66H85Z"/><rect class="cls-5" height="6" width="44" x="79.01" y="86"/><path class="cls-4" d="M123,93H79a1,1,0,0,1-1-1V86a1,1,0,0,1,1-1h44a1,1,0,0,1,1,1v6A1,1,0,0,1,123,93ZM80,91h42V87H80Z"/><rect class="cls-6" height="21" width="6" x="102.01" y="65"/><path class="cls-4" d="M108,87h-6a1,1,0,0,1-1-1V65a1,1,0,0,1,1-1h6a1,1,0,0,1,1,1V86A1,1,0,0,1,108,87Zm-5-2h4V66h-4Z"/><rect class="cls-7" height="21" width="6" x="108.01" y="65"/><path class="cls-4" d="M114,87h-6a1,1,0,0,1-1-1V65a1,1,0,0,1,1-1h6a1,1,0,0,1,1,1V86A1,1,0,0,1,114,87Zm-5-2h4V66h-4Z"/><rect class="cls-6" height="21" width="6" x="96.01" y="65"/><path class="cls-4" d="M102,87H96a1,1,0,0,1-1-1V65a1,1,0,0,1,1-1h6a1,1,0,0,1,1,1V86A1,1,0,0,1,102,87Zm-5-2h4V66H97Z"/><rect class="cls-7" height="21" width="6" x="90.01" y="65"/><path class="cls-4" d="M96,87H90a1,1,0,0,1-1-1V65a1,1,0,0,1,1-1h6a1,1,0,0,1,1,1V86A1,1,0,0,1,96,87Zm-5-2h4V66H91Z"/><rect class="cls-8" height="21" width="6" x="114.01" y="65"/><path class="cls-4" d="M120,87h-6a1,1,0,0,1-1-1V65a1,1,0,0,1,1-1h6a1,1,0,0,1,1,1V86A1,1,0,0,1,120,87Zm-5-2h4V66h-4Z"/><path class="cls-4" d="M39,105H13a1,1,0,0,1,0-2H39a1,1,0,0,1,0,2Z"/><path class="cls-4" d="M7,105H5a1,1,0,0,1,0-2H7a1,1,0,0,1,0,2Z"/><path class="cls-4" d="M10,105H9.9a1,1,0,0,1,0-2H10a1,1,0,0,1,0,2Z"/><path class="cls-5" d="M22.7,46.78a7,7,0,0,1-9.48-9.48Z"/><path class="cls-9" d="M30.69,22.24l6.36-6.36a3,3,0,0,1,4.24,0l2.83,2.83a3,3,0,0,1,0,4.24l-6.36,6.36.18,3.42a22.52,22.52,0,0,1-6.57,17.11l-2.8,2.81L7.35,31.44l2.81-2.81a22.52,22.52,0,0,1,17.11-6.57Z"/><path class="cls-10" d="M33.24,28.11l.81-2.42,6.37-6.36c1.17-1.18,1.45-2.8.62-3.62l2,2c.83.83.55,2.45-.63,3.62l-6.36,6.37-.35,2.88c-.65,5.39-2.89,11.76-7.41,16.27l-2.8,2.81L22.14,46.3l2.8-2.81C29.46,39,32.59,33.5,33.24,28.11Z"/><path class="cls-4" d="M28.56,53.65a1,1,0,0,1-.7-.29L6.65,32.14a1,1,0,0,1,0-1.41l2.8-2.81a23.57,23.57,0,0,1,17.87-6.86l3,.16,6.05-6a4.1,4.1,0,0,1,5.66,0L44.83,18a4,4,0,0,1,0,5.66l-6,6.05.16,3a23.55,23.55,0,0,1-6.86,17.87l-2.81,2.81A1,1,0,0,1,28.56,53.65ZM8.77,31.43l19.79,19.8,2.1-2.09a21.57,21.57,0,0,0,6.28-16.36l-.18-3.41a1,1,0,0,1,.29-.76l6.36-6.37a2,2,0,0,0,0-2.83l-2.82-2.82a2,2,0,0,0-2.83,0L31.39,23a1,1,0,0,1-.76.29l-3.41-.18a21.53,21.53,0,0,0-16.36,6.28Z"/><path class="cls-4" d="M37.76,30.31a1,1,0,0,1-.71-.29l-1.41-1.41a1,1,0,0,1,0-1.42,1,1,0,0,1,1.41,0l1.41,1.42a1,1,0,0,1,0,1.41A1,1,0,0,1,37.76,30.31Z"/><path class="cls-4" d="M32.81,25.36a1,1,0,0,1-.71-.29L30,23a1,1,0,0,1,0-1.41,1,1,0,0,1,1.41,0l2.12,2.12a1,1,0,0,1,0,1.41A1,1,0,0,1,32.81,25.36Z"/><path class="cls-4" d="M19.39,48.62a8,8,0,0,1-7-11.8,1,1,0,0,1,.73-.51,1,1,0,0,1,.85.28l9.49,9.49a1,1,0,0,1,.28.85,1,1,0,0,1-.51.73A8,8,0,0,1,19.39,48.62Zm-5.81-9.54a6,6,0,0,0,7.34,7.34Z"/><path class="cls-4" d="M62,102a1,1,0,0,1-1-1V18.49a7.49,7.49,0,0,0-12.78-5.3l-4.51,4.52a1,1,0,0,1-1.42-1.42l4.52-4.51A9.48,9.48,0,0,1,63,18.49V101A1,1,0,0,1,62,102Z"/><path class="cls-9" d="M48,99.93H76a0,0,0,0,1,0,0v2a2,2,0,0,1-2,2H50a2,2,0,0,1-2-2v-2A0,0,0,0,1,48,99.93Z" transform="translate(124 203.86) rotate(-180)"/><path class="cls-4" d="M76,104.93H48a1,1,0,0,1-1-1v-2a3,3,0,0,1,3-3H74a3,3,0,0,1,3,3v2A1,1,0,0,1,76,104.93Zm-27-2H75v-1a1,1,0,0,0-1-1H50a1,1,0,0,0-1,1Z"/><path class="cls-8" d="M29.1,104H17.9a2,2,0,0,1-2-1.9L15,84H32l-.9,18.1A2,2,0,0,1,29.1,104Z"/><polygon class="cls-11" points="22.28 103.96 19.34 103.96 18.31 83.96 21.25 83.96 22.28 103.96"/><rect class="cls-8" height="4" rx="2" ry="2" width="21" x="13" y="79.96"/><rect class="cls-12" height="4.21" width="2.94" x="16.4" y="79.96"/><polygon class="cls-13" points="20.54 60.83 16.55 61.13 16.55 61.13 18.01 54 20.54 60.83 20.54 60.83"/><polygon class="cls-14" points="21.99 79.96 18 79.96 16.55 61.13 20.54 60.83 21.99 79.96"/><path class="cls-4" d="M22,81H18A1,1,0,0,1,17,80L15.55,61.21a1,1,0,0,1,.24-.73,1,1,0,0,1,.68-.34l4-.31a1,1,0,0,1,.73.24,1,1,0,0,1,.34.68L23,79.89a1,1,0,0,1-.27.75A1,1,0,0,1,22,81Zm-3.06-2h2L19.61,61.9l-2,.15Z"/><path class="cls-4" d="M16.55,62.13a1,1,0,0,1-.75-.34,1,1,0,0,1-.23-.86L17,53.8a1,1,0,0,1,1.91-.15l2.53,6.83a1,1,0,0,1-.86,1.34l-4,.31Zm1.73-4.5L17.79,60l1.35-.1Z"/><polygon class="cls-15" points="29.11 59.74 33.07 60.36 29.95 79.96 26 79.96 29.11 59.74"/><path class="cls-16" d="M29.56,54.08h4a0,0,0,0,1,0,0v4a2,2,0,0,1-2,2h0a2,2,0,0,1-2-2v-4A0,0,0,0,1,29.56,54.08Z" transform="translate(53.84 118.39) rotate(-171.04)"/><path class="cls-4" d="M30,81H26a1,1,0,0,1-1-1.15l3.12-20.23a1,1,0,0,1,1.14-.83l3.95.62a1,1,0,0,1,.83,1.15l-3.11,19.6A1,1,0,0,1,30,81Zm-2.78-2H29.1l2.82-17.77-2-.31Z"/><path class="cls-4" d="M33.07,61.36h-.16L29,60.72a1,1,0,0,1-.65-.39,1,1,0,0,1-.18-.75l.62-3.95a3,3,0,0,1,1.2-2,3,3,0,0,1,2.23-.54h0a3,3,0,0,1,2.5,3.43l-.63,3.95A1,1,0,0,1,33.07,61.36ZM30.26,58.9l2,.31.47-3a1,1,0,0,0-.83-1.14h0a1,1,0,0,0-.75.18,1,1,0,0,0-.39.65Z"/><path class="cls-4" d="M29.1,105H17.9a3,3,0,0,1-3-2.85L14,84a1,1,0,0,1,.28-.74A1,1,0,0,1,15,83H32a1,1,0,0,1,.72.31A1,1,0,0,1,33,84l-.91,18.1A3,3,0,0,1,29.1,105Zm-13-20L16.9,102a1,1,0,0,0,1,.95H29.1a1,1,0,0,0,1-.95L31,85Z"/><path class="cls-4" d="M32,85H15a3,3,0,0,1,0-6H32a3,3,0,0,1,0,6ZM15,81a1,1,0,0,0,0,2H32a1,1,0,0,0,0-2Z"/><path class="cls-4" d="M97,115H31a1,1,0,0,1,0-2H97a1,1,0,0,1,0,2Z"/><path class="cls-4" d="M100.1,115H100a1,1,0,0,1,0-2h.1a1,1,0,0,1,0,2Z"/><path class="cls-4" d="M28,115H26a1,1,0,0,1,0-2h2a1,1,0,0,1,0,2Z"/><g class="cls-17"><path class="cls-4" d="M96,70H90a1,1,0,0,1,0-2h6a1,1,0,0,1,0,2Z"/><path class="cls-4" d="M96,83H90a1,1,0,0,1,0-2h6a1,1,0,0,1,0,2Z"/></g><g class="cls-17"><path class="cls-4" d="M102,70H96a1,1,0,0,1,0-2h6a1,1,0,0,1,0,2Z"/><path class="cls-4" d="M102,83H96a1,1,0,0,1,0-2h6a1,1,0,0,1,0,2Z"/><path class="cls-18" d="M102,70H96a1,1,0,0,1,0-2h6a1,1,0,0,1,0,2Z"/><path class="cls-18" d="M102,83H96a1,1,0,0,1,0-2h6a1,1,0,0,1,0,2Z"/></g><g class="cls-17"><path class="cls-4" d="M90,70H84a1,1,0,0,1,0-2h6a1,1,0,0,1,0,2Z"/><path class="cls-4" d="M90,83H84a1,1,0,0,1,0-2h6a1,1,0,0,1,0,2Z"/><path class="cls-18" d="M90,70H84a1,1,0,0,1,0-2h6a1,1,0,0,1,0,2Z"/><path class="cls-18" d="M90,83H84a1,1,0,0,1,0-2h6a1,1,0,0,1,0,2Z"/></g><g class="cls-17"><path class="cls-4" d="M114,70h-6a1,1,0,0,1,0-2h6a1,1,0,0,1,0,2Z"/><path class="cls-4" d="M114,83h-6a1,1,0,0,1,0-2h6a1,1,0,0,1,0,2Z"/></g><g class="cls-17"><path class="cls-4" d="M120,70h-6a1,1,0,0,1,0-2h6a1,1,0,0,1,0,2Z"/><path class="cls-4" d="M120,83h-6a1,1,0,0,1,0-2h6a1,1,0,0,1,0,2Z"/><path class="cls-18" d="M120,70h-6a1,1,0,0,1,0-2h6a1,1,0,0,1,0,2Z"/><path class="cls-18" d="M120,83h-6a1,1,0,0,1,0-2h6a1,1,0,0,1,0,2Z"/></g><g class="cls-17"><path class="cls-4" d="M108,70h-6a1,1,0,0,1,0-2h6a1,1,0,0,1,0,2Z"/><path class="cls-4" d="M108,83h-6a1,1,0,0,1,0-2h6a1,1,0,0,1,0,2Z"/><path class="cls-18" d="M108,70h-6a1,1,0,0,1,0-2h6a1,1,0,0,1,0,2Z"/><path class="cls-18" d="M108,83h-6a1,1,0,0,1,0-2h6a1,1,0,0,1,0,2Z"/></g><rect class="cls-5" height="6" width="39" x="75" y="40"/><path class="cls-4" d="M114,47H75a1,1,0,0,1-1-1V40a1,1,0,0,1,1-1h39a1,1,0,0,1,1,1v6A1,1,0,0,1,114,47ZM76,45h37V41H76Z"/><rect class="cls-6" height="12" width="15" x="96" y="28"/><path class="cls-4" d="M111,41H96a1,1,0,0,1-1-1V28a1,1,0,0,1,1-1h15a1,1,0,0,1,1,1V40A1,1,0,0,1,111,41ZM97,39h13V29H97Z"/><rect class="cls-6" height="5" width="17" x="95" y="23"/><path class="cls-4" d="M112,29H95a1,1,0,0,1-1-1V23a1,1,0,0,1,1-1h17a1,1,0,0,1,1,1v5A1,1,0,0,1,112,29ZM96,27h15V24H96Z"/><path class="cls-4" d="M106,33h-5a1,1,0,0,1,0-2h5a1,1,0,0,1,0,2Z"/><path class="cls-19" d="M87.73,28A26.48,26.48,0,0,0,89,19.73C89,14.44,86.09,11,82.5,11S76,14.5,76,19.73A26.48,26.48,0,0,0,77.27,28Z"/><path class="cls-10" d="M84.51,11.38a5.48,5.48,0,0,0-2-.38c-3.59,0-6.5,3.5-6.5,8.73A26.48,26.48,0,0,0,77.27,28h4A26.48,26.48,0,0,1,80,19.73C80,15.51,81.89,12.42,84.51,11.38Z"/><path class="cls-4" d="M87.73,29H77.27a1,1,0,0,1-1-.68A27.44,27.44,0,0,1,75,19.73C75,14.09,78.15,10,82.5,10S90,14.09,90,19.73a27.44,27.44,0,0,1-1.32,8.59A1,1,0,0,1,87.73,29ZM78,27h9a25.91,25.91,0,0,0,1-7.27C88,15.25,85.69,12,82.5,12S77,15.25,77,19.73A25.91,25.91,0,0,0,78,27Z"/><path class="cls-4" d="M77.5,16.5a1,1,0,0,1-.55-.17l-1.5-1a1,1,0,0,1-.28-1.39,1,1,0,0,1,1.38-.27l1.5,1a1,1,0,0,1-.55,1.83Z"/><path class="cls-4" d="M80.25,13.31a1,1,0,0,1-.73-.31l-1.23-1.31a1,1,0,1,1,1.45-1.38L81,11.62a1,1,0,0,1,0,1.42A1,1,0,0,1,80.25,13.31Z"/><path class="cls-4" d="M84.75,13.31A1,1,0,0,1,84,13a1,1,0,0,1,0-1.41l1.32-1.23a1,1,0,0,1,1.42.06,1,1,0,0,1-.06,1.41L85.43,13A1,1,0,0,1,84.75,13.31Z"/><path class="cls-4" d="M76.5,22a1.25,1.25,0,0,1-.32-.05l-1.5-.5a1,1,0,1,1,.64-1.9l1.5.5A1,1,0,0,1,76.5,22Z"/><path class="cls-4" d="M76,27a1,1,0,0,1-.32-1.95l1.5-.5a1,1,0,0,1,.64,1.9l-1.5.5A1.25,1.25,0,0,1,76,27Z"/><path class="cls-4" d="M88,18a1,1,0,0,1-.55-1.83l1.5-1a1,1,0,0,1,1.38.27,1,1,0,0,1-.28,1.39l-1.5,1A1,1,0,0,1,88,18Z"/><path class="cls-4" d="M89.5,21h-1a1,1,0,0,1,0-2h1a1,1,0,0,1,0,2Z"/><path class="cls-4" d="M80.5,24.5a1,1,0,0,1-.71-.29l-.5-.5a1,1,0,0,1,1.42-1.42l.5.5a1,1,0,0,1,0,1.42A1,1,0,0,1,80.5,24.5Z"/><path class="cls-4" d="M80.5,18.5a1,1,0,0,1-.71-.29l-.5-.5a1,1,0,0,1,1.42-1.42l.5.5a1,1,0,0,1,0,1.42A1,1,0,0,1,80.5,18.5Z"/><path class="cls-4" d="M84.5,21.5a1,1,0,0,1-.71-.29,1,1,0,0,1,0-1.42l.5-.5a1,1,0,0,1,1.42,1.42l-.5.5A1,1,0,0,1,84.5,21.5Z"/><path class="cls-4" d="M84.5,16.5a1,1,0,0,1-.71-.29,1,1,0,0,1,0-1.42l.5-.5a1,1,0,0,1,1.42,1.42l-.5.5A1,1,0,0,1,84.5,16.5Z"/><path class="cls-4" d="M84.5,26.5a1,1,0,0,1-.71-.29,1,1,0,0,1,0-1.42l.5-.5a1,1,0,0,1,1.42,1.42l-.5.5A1,1,0,0,1,84.5,26.5Z"/><path class="cls-4" d="M89.5,25.5a1.25,1.25,0,0,1-.32-.05l-1.5-.5a1,1,0,0,1,.64-1.9l1.5.5a1,1,0,0,1-.32,1.95Z"/><polygon class="cls-20" points="88.5 40 76.5 40 75 31 90 31 88.5 40"/><polygon class="cls-21" points="81 40 79 40 78 31 80 31 81 40"/><polygon class="cls-22" points="89.5 34 90 31 75 31 75.5 34 89.5 34"/><path class="cls-4" d="M88.5,41h-12a1,1,0,0,1-1-.84l-1.5-9a1,1,0,0,1,.23-.81A1,1,0,0,1,75,30H90a1,1,0,0,1,.76.35,1,1,0,0,1,.23.81l-1.5,9A1,1,0,0,1,88.5,41ZM77.35,39h10.3l1.17-7H76.18Z"/><rect class="cls-2" height="3" width="17" x="74" y="28"/><rect class="cls-10" height="3" width="2" x="77" y="28"/><path class="cls-4" d="M91,32H74a1,1,0,0,1-1-1V28a1,1,0,0,1,1-1H91a1,1,0,0,1,1,1v3A1,1,0,0,1,91,32ZM75,30H90V29H75Z"/></g><path class="cls-4" d="M22.47,73a9.34,9.34,0,0,1-3.09-.55,6.55,6.55,0,0,1-4-8.34,5.52,5.52,0,0,1,2.89-3.18,5.19,5.19,0,0,1,4.07-.14,3.63,3.63,0,0,1,2.25,4.5,3.48,3.48,0,0,1-4.22,2.41,1,1,0,0,1,.43-1.95,1.49,1.49,0,0,0,1.88-1,1.65,1.65,0,0,0-1.07-2.07,3.16,3.16,0,0,0-2.5.1,3.49,3.49,0,0,0-1.84,2A4.54,4.54,0,0,0,20,70.57a6.06,6.06,0,0,0,4.82-.11,5.74,5.74,0,0,0,2.74-3.28,1,1,0,0,1,1.27-.61,1,1,0,0,1,.62,1.27,7.71,7.71,0,0,1-3.72,4.4A7.31,7.31,0,0,1,22.47,73Z"/><path class="cls-23" d="M41,107.94c-.14-6.09,0-15.88,1.71-21.79.43-5.48,4.84-9.58,9.8-9.1h0c5,.48,8.66,5.35,8.23,10.83.72,6.15-.63,15.82-1.71,21.79C58.09,115.06,41.16,113.44,41,107.94Z"/><path class="cls-23" d="M74,109.85c-1.2-5.94-2.73-15.58-2.13-21.74-.53-5.47,3.08-10.43,8-11h0c5-.59,9.44,3.39,10,8.86-.87,6.93.88,15.43,2.13,21.75C93.07,113.1,75.09,115.22,74,109.85Z"/><path class="cls-24" d="M90.56,100.06c-.63-4.3-1.19-10.14-.69-14.11-.54-5.47-5-9.45-10-8.86s-8.55,5.55-8,11c-.56,5.74.74,14.5,1.89,20.48C80.36,106.73,86.3,104.61,90.56,100.06Z"/><path class="cls-24" d="M52.55,77.05h0c-5-.48-9.37,3.62-9.8,9.1-1.32,4.7-1.59,13.06-1.63,18.85,5.09,3.36,11.14,4.35,17.87,4.94a2.76,2.76,0,0,0,.08-.27c1.08-6,2.43-15.64,1.71-21.79C61.21,82.4,57.51,77.53,52.55,77.05Z"/><path class="cls-4" d="M51.68,114c-.56,0-1.12,0-1.67-.06-4.91-.39-9.89-2.38-10-6h0c-.1-4.4-.13-15.31,1.72-22a11.31,11.31,0,0,1,3.9-7.68,9.37,9.37,0,0,1,7-2.23c5.48.52,9.56,5.81,9.14,11.8.78,6.93-.95,17.68-1.74,22C59.49,112.93,55.5,114,51.68,114ZM42,107.92c0,1.89,3.61,3.65,8.13,4,4.2.33,7.6-.71,7.91-2.43.77-4.24,2.48-14.84,1.71-21.49a.67.67,0,0,1,0-.2c.38-5-2.9-9.33-7.34-9.75A7.42,7.42,0,0,0,47,79.82a9.32,9.32,0,0,0-3.2,6.41,1.29,1.29,0,0,1,0,.19c-1.8,6.41-1.77,17.17-1.67,21.5Z"/><path class="cls-4" d="M81.18,114c-4.05,0-7.6-1.18-8.16-3.93h0c-.86-4.29-2.8-15-2.15-21.94-.54-6,3.44-11.36,8.91-12a9.43,9.43,0,0,1,7,2.08,11.3,11.3,0,0,1,4,7.68c.2,2.45.34,4.64.48,6.68a112.74,112.74,0,0,0,1.64,15c.53,2.72-2.28,5-7.32,6A22.77,22.77,0,0,1,81.18,114ZM75,109.66c.41,2,5.31,2.9,10.29,1.91,3.66-.72,6-2.24,5.75-3.68a114.26,114.26,0,0,1-1.68-15.23c-.13-2-.28-4.21-.47-6.63a9.23,9.23,0,0,0-3.32-6.3A7.4,7.4,0,0,0,80,78.08c-4.42.53-7.63,5-7.14,9.93v.19c-.65,6.68,1.26,17.23,2.11,21.46Z"/><path class="cls-23" d="M74.37,66.5c-6.11-3.76-7.67-12.35-3.47-19.18S83.47,38,89.59,41.77C89.54,51,80.49,70.26,74.37,66.5Z"/><path class="cls-24" d="M85.57,40.24c-5.37-1-11.33,1.66-14.67,7.08-3.74,6.09-.28,9,4.27,13.26C81,59.69,86.92,47.75,85.57,40.24Z"/><path class="cls-4" d="M76,68a4.08,4.08,0,0,1-2.18-.63h0a13.2,13.2,0,0,1-6.06-9.11A16.31,16.31,0,0,1,70.05,46.8c4.49-7.29,13.48-9.93,20.06-5.88a1,1,0,0,1,.47.85c0,7.89-6.09,22.2-12,25.49A5.17,5.17,0,0,1,76,68ZM74.9,65.65a2.51,2.51,0,0,0,2.7-.14c5-2.79,10.65-15.89,11-23.18-5.59-3-13-.65-16.81,5.52a14.3,14.3,0,0,0-2,10,11.28,11.28,0,0,0,5.15,7.76Z"/><path class="cls-23" d="M101.73,66.05H95.41c-5-11.69-18-20-33.35-20-19.61,0-35.5,13.66-35.5,30.5a27.64,27.64,0,0,0,6.92,18.1A127.11,127.11,0,0,0,33,108.94c.12,5.5,17.05,7.12,18,1.73.26-1.46.54-3.14.81-4.94A40.79,40.79,0,0,0,62.06,107c1.08,0,2.15-.05,3.2-.13.25,1.44.5,2.78.74,4,1.09,5.37,18,3.35,18-2.15,0-2.3-.92-5.2-.2-8.08A32,32,0,0,0,94.44,89h7.29c2.66,0,4.81-5.14,4.81-11.48S104.39,66.05,101.73,66.05Z"/><circle class="cls-25" cx="75.2" cy="85.57" r="5.33"/><path class="cls-4" d="M82.54,74a1,1,0,0,1-1-1,2.5,2.5,0,0,0-5,0,1,1,0,0,1-2,0,4.5,4.5,0,0,1,9,0A1,1,0,0,1,82.54,74Z"/><g class="cls-26"><path class="cls-27" d="M99,83H94c-5.56,10.61-17.52,18-31.94,18-18.43,0-33.57-12.06-35.33-27.49a27.15,27.15,0,0,0-.17,3c0,16.85,15.89,30.5,35.5,30.5,14.42,0,26.82-7.39,32.38-18h7.29c2.66,0,4.81-5.14,4.81-11.48a26.2,26.2,0,0,0-.17-3C106,78,103,83,99,83Z"/><path class="cls-27" d="M48.67,100.67c-1.06,1.82-1.92,7.41-2,9.91-.1,2.88-5.36,2.73-9.92,2.15,5.07,2,13.63,1.73,14.32-2.06.47-2.61,1-5.92,1.38-9.34Z"/><path class="cls-27" d="M78.92,100.5c.18,3.11,1.41,6.17,1.33,8.83s-4.15,4-8.36,4.63c5.26.33,12.1-1.76,12.11-5.26,0-2.92-.55-6.43-.83-10.2Z"/></g><path class="cls-24" d="M68.74,46.58C66.5,52.56,67.83,58.82,73,62c4-2,9-6,11-9A31.54,31.54,0,0,0,68.74,46.58Z"/><path class="cls-10" d="M62.06,49c15.32,0,27.68,8.35,32.65,20h7c2.44,0,4.46,4.35,4.77,10,0-.49,0-1,0-1.5,0-6.34-2.15-11.48-4.81-11.48H95.41c-5-11.69-18-20-33.35-20-19.61,0-35.5,13.66-35.5,30.5,0,.5,0,1,0,1.5C27.51,61.86,43,49,62.06,49Z"/><path class="cls-28" d="M101.86,66.05h-.17C99.1,66.05,97,71.19,97,77.53S99.1,89,101.69,89h.17c2.58,0,4.68-5.14,4.68-11.48S104.44,66.05,101.86,66.05Z"/><path class="cls-4" d="M73,115c-3.66,0-7.39-1-8-4-.19-1-.39-2-.59-3.11-.81,0-1.6.07-2.37.07A42,42,0,0,1,52.7,107c-.2,1.32-.42,2.62-.65,3.89-.64,3.54-5.81,4.41-10,4.07-4.91-.39-9.89-2.38-10-6a127.4,127.4,0,0,1,.41-14,28.47,28.47,0,0,1-6.89-18.43c0-17.37,16.37-31.5,36.5-31.5,14.81,0,28.05,7.63,33.72,19.43a1,1,0,0,0,.92.61h5c3.31,0,5.81,5.37,5.81,12.48S105,90,101.73,90H95.62a1,1,0,0,0-.89.54,33.09,33.09,0,0,1-10.12,10.72,13.13,13.13,0,0,0,.13,4.5A26.14,26.14,0,0,1,85,108.7c0,3.61-5,5.71-10,6.2C74.39,115,73.7,115,73,115Zm-7.75-9.12a1,1,0,0,1,1,.83c.24,1.42.5,2.76.73,4,.35,1.71,3.66,2.66,7.88,2.25,4.56-.45,8.13-2.3,8.14-4.21a23,23,0,0,0-.25-2.68c-.28-2.16-.56-4.39.15-5.84a1.1,1.1,0,0,1,.34-.4A31.26,31.26,0,0,0,93,89.55,3,3,0,0,1,95.62,88h6.11c1.59,0,3.81-4,3.81-10.48s-2.22-10.48-3.81-10.48h-5A3,3,0,0,1,94,65.31C88.64,54.2,76.1,47,62.06,47c-19,0-34.5,13.24-34.5,29.5A26.56,26.56,0,0,0,34.24,94a1,1,0,0,1,.24.75A124.65,124.65,0,0,0,34,108.92c0,1.89,3.61,3.65,8.13,4,4.2.33,7.6-.71,7.91-2.43s.56-3.25.81-4.9a1,1,0,0,1,1.23-.83A39.94,39.94,0,0,0,62.06,106c1,0,2,0,3.13-.12Z"/><path class="cls-10" d="M40.92,104.75c-.26,3-.65,4.61-2.46,4.08-1.65-.48-1.87-1.3-1.78-4.76.07-2.65,1.49-3.52,2.49-3.24C40.5,101.21,41.08,102.83,40.92,104.75Z"/><path class="cls-10" d="M73.6,108.7c.11,1.18-.18,2.09-1.78,2.18a2.27,2.27,0,0,1-2.5-1.9c-.27-1.46,1-2.06,2.07-2.07A1.91,1.91,0,0,1,73.6,108.7Z"/><path class="cls-4" d="M100,79a1,1,0,0,1-1-1V77a1,1,0,0,1,2,0v1A1,1,0,0,1,100,79Z"/><path class="cls-4" d="M103,79a1,1,0,0,1-1-1V77a1,1,0,0,1,2,0v1A1,1,0,0,1,103,79Z"/><path class="cls-29" d="M70,39a12,12,0,0,1-4.37,9.26c-2.86-.17-8.48.74-13.1,1.43A12,12,0,1,1,70,39Z"/><path class="cls-30" d="M58,48A12,12,0,0,1,46.1,37.5,12.32,12.32,0,0,0,46,39a12,12,0,0,0,7.19,11c4.62-1.41,11.12-.34,13.3-2.51A12,12,0,0,0,70,39a12.32,12.32,0,0,0-.1-1.5A12,12,0,0,1,58,48Z"/><g class="cls-17"><path class="cls-12" d="M58,27A12,12,0,0,0,46,39a11.87,11.87,0,0,0,2.12,6.8L64.8,29.12A11.94,11.94,0,0,0,58,27Z"/><path class="cls-12" d="M68.74,33.67A11.87,11.87,0,0,0,67,31.13L50.12,48a12.19,12.19,0,0,0,2.55,1.7Z"/></g><path class="cls-4" d="M52.93,50.88a1.06,1.06,0,0,1-.42-.09A13,13,0,1,1,71,39a12.93,12.93,0,0,1-3.42,8.79,1,1,0,1,1-1.47-1.35A11,11,0,1,0,53.36,49a1,1,0,0,1-.43,1.9Z"/><path class="cls-4" d="M58,46a4,4,0,0,1-4-4,1,1,0,1,1,2,0,2,2,0,0,0,4,0c0-1.53-2.25-2.2-2.27-2.21S54,38.74,54,35.7a4,4,0,0,1,8,0,1,1,0,0,1-2,0,2,2,0,0,0-4,0c0,1.53,2.25,2.2,2.28,2.21S62,39,62,42A4,4,0,0,1,58,46Z"/><path class="cls-4" d="M58,48a1,1,0,0,1-1-1V45a1,1,0,0,1,2,0v2A1,1,0,0,1,58,48Z"/><path class="cls-4" d="M58,33a1,1,0,0,1-1-1V31a1,1,0,0,1,2,0v1A1,1,0,0,1,58,33Z"/><path class="cls-4" d="M51,40a1,1,0,0,1-.71-.29,1.15,1.15,0,0,1-.21-.33A.84.84,0,0,1,50,39a1.05,1.05,0,0,1,.29-.71,1,1,0,0,1,1.09-.21,1,1,0,0,1,.33.21A1.05,1.05,0,0,1,52,39a1,1,0,0,1-.29.71A1,1,0,0,1,51,40Z"/><path class="cls-4" d="M65,40a1,1,0,0,1-.71-.29,1.15,1.15,0,0,1-.21-.33.94.94,0,0,1,0-.76.93.93,0,0,1,.21-.33,1,1,0,0,1,1.42,0,.93.93,0,0,1,.21.33.94.94,0,0,1,0,.76,1.15,1.15,0,0,1-.21.33A1,1,0,0,1,65,40Z"/><path class="cls-4" d="M49,52.75a1,1,0,0,1-.92-.6,1,1,0,0,1,.52-1.32A34,34,0,0,1,61,48.21a1,1,0,0,1,1,1,1,1,0,0,1-1,1A32.47,32.47,0,0,0,49.4,52.67,1.14,1.14,0,0,1,49,52.75Z"/><path class="cls-23" d="M65.91,65.5c-6.12-3.76-7.67-12.35-3.47-19.18S75,37,81.12,40.77C81.12,50,72,69.26,65.91,65.5Z"/><path class="cls-4" d="M73,63.29a1,1,0,0,1-.62-.22,1,1,0,0,1-.16-1.4c4-5,7.66-14.51,7.89-20.33-5.59-3.05-13-.66-16.82,5.51a1,1,0,1,1-1.7-1.05c4.48-7.29,13.48-9.93,20-5.88a1,1,0,0,1,.48.85c0,6.23-3.9,16.58-8.34,22.15A1,1,0,0,1,73,63.29Z"/><path class="cls-10" d="M72,47.42C69.34,50,66.5,52,65.33,50.83s-.74-4,1.92-6.58,7.09-3.6,8.25-2.42S74.66,44.8,72,47.42Z"/><ellipse class="cls-10" cx="48.62" cy="65.84" rx="15.12" ry="11.72" transform="translate(-22.52 25.36) rotate(-23.91)"/><path class="cls-4" d="M95,90c-3.68,0-4.9-3.53-5-3.68a1,1,0,0,1,1.9-.64h0A3.44,3.44,0,0,0,95,88a1,1,0,0,1,0,2Z"/><path class="cls-2" d="M104,9.81A3.26,3.26,0,0,0,106.19,12q1.62.54,0,1.08A3.26,3.26,0,0,0,104,15.19q-.54,1.62-1.08,0A3.26,3.26,0,0,0,100.81,13q-1.62-.54,0-1.08A3.26,3.26,0,0,0,103,9.81Q103.5,8.19,104,9.81Z"/><path class="cls-2" d="M110.62,103.92a3.7,3.7,0,0,0,2.46,2.46c1.23.41,1.23.83,0,1.24a3.7,3.7,0,0,0-2.46,2.46c-.41,1.23-.83,1.23-1.24,0a3.7,3.7,0,0,0-2.46-2.46c-1.23-.41-1.23-.83,0-1.24a3.7,3.7,0,0,0,2.46-2.46C109.79,102.69,110.21,102.69,110.62,103.92Z"/><path class="cls-15" d="M18.19,108A4.18,4.18,0,0,0,21,110.81q2.09.69,0,1.38A4.18,4.18,0,0,0,18.19,115q-.69,2.08-1.38,0A4.18,4.18,0,0,0,14,112.19q-2.08-.69,0-1.38A4.18,4.18,0,0,0,16.81,108Q17.5,106,18.19,108Z"/></svg>