<?xml version="1.0" ?><svg data-name="scenarium 10" height="128" id="scenarium_10" viewBox="0 0 128 128" width="128" xmlns="http://www.w3.org/2000/svg" xmlns:xlink="http://www.w3.org/1999/xlink"><defs><clipPath id="clip-path"><path d="M9.21589,86.12344A27.65468,27.65468,0,0,0,33.56957,106.372a18.20907,18.20907,0,0,1,10.757,4.7595,34.289,34.289,0,0,0,9.17378,6.055c15.2514,6.88473,34.39394.43283,44.00787-13.21941,6.38157-9.06213,5.44994-15.10359,14.01929-23.85894,10.34739-10.572,15.046-30.44438,1.21071-45.3737a15.33308,15.33308,0,0,0-6.37317-3.77436,18.96623,18.96623,0,0,1-10.401-8.81427,26.375,26.375,0,0,0-40.50455-6.77912,18.60091,18.60091,0,0,1-14.92138,4.54528A26.75621,26.75621,0,0,0,11.24068,54.80448a18.40975,18.40975,0,0,1-.72962,13.1879A27.35164,27.35164,0,0,0,9.21589,86.12344Z" style="fill:#c9c1f5"/></clipPath><clipPath id="clip-path-2"><path d="M9.21589,86.12344A27.65468,27.65468,0,0,0,33.56957,106.372a18.20907,18.20907,0,0,1,10.757,4.7595,34.289,34.289,0,0,0,9.17378,6.055c15.2514,6.88473,34.39394.43283,44.00787-13.21941,6.38157-9.06213,5.44994-15.10359,14.01929-23.85894,10.34739-10.572,15.046-30.44438,1.21071-45.3737a15.33308,15.33308,0,0,0-6.37317-3.77436,18.96623,18.96623,0,0,1-10.401-8.81427,26.375,26.375,0,0,0-40.50455-6.77912,18.60091,18.60091,0,0,1-14.92138,4.54528A26.75621,26.75621,0,0,0,11.24068,54.80448a18.40975,18.40975,0,0,1-.72962,13.1879A27.35164,27.35164,0,0,0,9.21589,86.12344Z" style="fill:none"/></clipPath></defs><title/><g style="opacity:0.30000000000000004"><path d="M9.21589,86.12344A27.65468,27.65468,0,0,0,33.56957,106.372a18.20907,18.20907,0,0,1,10.757,4.7595,34.289,34.289,0,0,0,9.17378,6.055c15.2514,6.88473,34.39394.43283,44.00787-13.21941,6.38157-9.06213,5.44994-15.10359,14.01929-23.85894,10.34739-10.572,15.046-30.44438,1.21071-45.3737a15.33308,15.33308,0,0,0-6.37317-3.77436,18.96623,18.96623,0,0,1-10.401-8.81427,26.375,26.375,0,0,0-40.50455-6.77912,18.60091,18.60091,0,0,1-14.92138,4.54528A26.75621,26.75621,0,0,0,11.24068,54.80448a18.40975,18.40975,0,0,1-.72962,13.1879A27.35164,27.35164,0,0,0,9.21589,86.12344Z" style="fill:#c9c1f5"/><g style="clip-path:url(#clip-path)"><path d="M131.13113,69.2609V63.95385l-4.56321-1.52107a15.163,15.163,0,0,0-1.34612-3.25041l2.151-4.30181L123.62023,51.128l-4.30189,2.151a15.15337,15.15337,0,0,0-3.25034-1.34612l-1.52107-4.56321h-5.30705l-1.52107,4.56321a15.15337,15.15337,0,0,0-3.25034,1.34612l-4.30189-2.151L96.414,54.88055l2.151,4.30181a15.15552,15.15552,0,0,0-1.34612,3.25041l-4.56314,1.52107V69.2609L97.21889,70.782A15.15492,15.15492,0,0,0,98.565,74.03231l-2.151,4.30181,3.75259,3.75266,4.30189-2.15109a15.15359,15.15359,0,0,0,3.25034,1.34619l1.52107,4.56314h5.30705l1.52107-4.56314a15.15359,15.15359,0,0,0,3.25034-1.34619l4.30189,2.15109,3.75259-3.75266-2.151-4.30181a15.1624,15.1624,0,0,0,1.34612-3.25034Zm-19.23769.9535a3.60707,3.60707,0,1,1,3.60707-3.60707A3.60706,3.60706,0,0,1,111.89344,70.2144Z" style="fill:#ced8ee"/><g style="opacity:0.5"><path d="M127.37282,54.88055l-.576-.576L115.37832,65.723a3.56531,3.56531,0,0,1-4.36918,4.36918L99.59058,81.51078l.576.576,4.30189-2.15109c.39063.2181.80079.4034,1.21153.58687l20.12867-20.12867c-.18354-.41081-.36884-.8209-.58687-1.21153Z" style="fill:#fff"/><path d="M108.28638,66.60734a3.55849,3.55849,0,0,1,4.56776-3.46118L124.24628,51.754l-.62606-.62606-4.30189,2.151a15.15337,15.15337,0,0,0-3.25034-1.34612l-1.52107-4.56321h-5.30705l-1.52107,4.56321a15.15337,15.15337,0,0,0-3.25034,1.34612l-4.30189-2.151L96.414,54.88055l2.151,4.30181a15.15552,15.15552,0,0,0-1.34612,3.25041l-4.56314,1.52107V69.2609L97.21889,70.782A15.15492,15.15492,0,0,0,98.565,74.03231l-2.151,4.30181.62606.62606L108.43227,67.568A3.57093,3.57093,0,0,1,108.28638,66.60734Z" style="fill:#fff"/></g><path d="M111.89337,73.82154a9.61387,9.61387,0,0,1-9.30358-7.21413,9.61892,9.61892,0,1,0,18.60716,0A9.61387,9.61387,0,0,1,111.89337,73.82154Z" style="fill:#2c4b75;opacity:0.2"/><g style="opacity:0.75"><path d="M98.565,62.78943l-.86706-1.734c-.17635.45118-.34535.90632-.47906,1.37731l-4.56314,1.52107v3.60707l4.56314-1.52107A15.15552,15.15552,0,0,1,98.565,62.78943Z" style="fill:#fff"/><path d="M126.56792,62.43278c-.13371-.47092-.30279-.92606-.47914-1.37723l-.867,1.73389a15.163,15.163,0,0,1,1.34612,3.25041l4.56321,1.52107V63.95385Z" style="fill:#fff"/><path d="M98.24842,59.83594a20.35085,20.35085,0,0,1,27.29.00007c-.10766-.21671-.19895-.44288-.31659-.65365l2.151-4.30181L123.62023,51.128l-4.30189,2.151a15.15337,15.15337,0,0,0-3.25034-1.34612l-1.52107-4.56321h-5.30705l-1.52107,4.56321a15.15337,15.15337,0,0,0-3.25034,1.34612l-4.30189-2.151L96.414,54.88055l2.151,4.30181C98.44737,59.39305,98.35608,59.61923,98.24842,59.83594Z" style="fill:#fff"/></g><g style="opacity:0.2"><path d="M98.24842,73.37881a20.35085,20.35085,0,0,0,27.29-.00007c-.10766.21671-.19895.44288-.31659.65365l2.151,4.30181-3.75259,3.75259-4.30189-2.151a15.15337,15.15337,0,0,1-3.25034,1.34612l-1.52107,4.56321h-5.30705l-1.52107-4.56321a15.15337,15.15337,0,0,1-3.25034-1.34612l-4.30189,2.151L96.414,78.33419l2.151-4.30181C98.44737,73.82169,98.35608,73.59551,98.24842,73.37881Z" style="fill:#2c4b75"/></g><path d="M111.89344,58.19085a8.41649,8.41649,0,1,0,8.41649,8.41649A8.41648,8.41648,0,0,0,111.89344,58.19085Zm0,12.02356a3.60707,3.60707,0,1,1,3.60707-3.60707A3.60706,3.60706,0,0,1,111.89344,70.2144Z" style="fill:#eef6ff"/><g style="opacity:0.2"><path d="M111.89344,71.41683a8.416,8.416,0,0,1-8.21791-6.613,8.4165,8.4165,0,1,0,16.43582,0A8.4161,8.4161,0,0,1,111.89344,71.41683Z" style="fill:#2c4b75"/></g><path d="M114.54688,86.84521h-5.30713a1,1,0,0,1-.94873-.68359l-1.35742-4.07227a16.155,16.155,0,0,1-2.48145-1.02783l-3.83838,1.91992a1.00267,1.00267,0,0,1-1.1543-.1875L95.707,79.041a.99956.99956,0,0,1-.1875-1.1543L97.439,74.04834a16.19542,16.19542,0,0,1-1.02783-2.48145l-4.07178-1.35742a1,1,0,0,1-.68359-.94873V63.95361a1,1,0,0,1,.68359-.94873l4.07178-1.35742A16.19542,16.19542,0,0,1,97.439,59.166l-1.91943-3.83838a1.00033,1.00033,0,0,1,.1875-1.1543l3.75244-3.75244a1.00111,1.00111,0,0,1,1.1543-.1875l3.83838,1.91943a16.20162,16.20162,0,0,1,2.48145-1.02734l1.35742-4.07227a1,1,0,0,1,.94873-.68359h5.30713a1,1,0,0,1,.94873.68359l1.35742,4.07227a16.20162,16.20162,0,0,1,2.48145,1.02734l3.83838-1.91943a1,1,0,0,1,1.1543.1875l3.75293,3.75244a.99968.99968,0,0,1,.1875,1.1543L126.34766,59.166a16.19541,16.19541,0,0,1,1.02783,2.48145l4.07227,1.35742a1,1,0,0,1,.68359.94873v5.30713a1,1,0,0,1-.68359.94873l-4.07227,1.35742a16.19541,16.19541,0,0,1-1.02783,2.48145l1.91992,3.83838a.99968.99968,0,0,1-.1875,1.1543l-3.75293,3.75293a1.00384,1.00384,0,0,1-1.1543.1875l-3.83838-1.91992a16.155,16.155,0,0,1-2.48145,1.02783l-1.35742,4.07227A1,1,0,0,1,114.54688,86.84521Zm-4.58643-2h3.86572l1.293-3.87988a.99984.99984,0,0,1,.67578-.64551,14.16123,14.16123,0,0,0,3.03564-1.25732,1.00114,1.00114,0,0,1,.93506-.02148l3.65723,1.8291,2.7334-2.7334-1.8291-3.65723a.99876.99876,0,0,1,.02148-.93457,14.19184,14.19184,0,0,0,1.25732-3.03613.99984.99984,0,0,1,.64551-.67578l3.87988-1.293V64.67432l-3.87988-1.293a.99984.99984,0,0,1-.64551-.67578,14.21257,14.21257,0,0,0-1.25732-3.03613.99879.99879,0,0,1-.02148-.93457l1.8291-3.65723-2.7334-2.73291-3.65723,1.82861a.99744.99744,0,0,1-.93457-.02148,14.22939,14.22939,0,0,0-3.03662-1.25732,1.00009,1.00009,0,0,1-.67529-.64551l-1.293-3.87939h-3.86572l-1.293,3.87939a1.00009,1.00009,0,0,1-.67529.64551,14.22939,14.22939,0,0,0-3.03662,1.25732,1.003,1.003,0,0,1-.93457.02148l-3.65723-1.82861-2.73291,2.73291,1.82861,3.65723a1.00019,1.00019,0,0,1-.02148.93457,14.21258,14.21258,0,0,0-1.25732,3.03613.99984.99984,0,0,1-.64551.67578l-3.87939,1.293V68.54l3.87939,1.293a.99984.99984,0,0,1,.64551.67578A14.19185,14.19185,0,0,0,99.438,73.54492a1.00016,1.00016,0,0,1,.02148.93457l-1.82861,3.65723,2.73291,2.7334L104.021,79.041a.99978.99978,0,0,1,.93506.02148,14.16123,14.16123,0,0,0,3.03564,1.25732.99984.99984,0,0,1,.67578.64551Zm21.1709-15.58447h0Zm-19.23779,1.95361a4.60693,4.60693,0,1,1,4.60693-4.60693A4.61255,4.61255,0,0,1,111.89355,71.21436Zm0-7.21387a2.60693,2.60693,0,1,0,2.60693,2.60693A2.61026,2.61026,0,0,0,111.89355,64.00049Z" style="fill:#6d6daa"/><path d="M111.89355,76.02393a9.4165,9.4165,0,1,1,9.4165-9.4165A9.427,9.427,0,0,1,111.89355,76.02393Zm0-16.833a7.4165,7.4165,0,1,0,7.4165,7.4165A7.42506,7.42506,0,0,0,111.89355,59.19092Zm0,12.02344a4.60693,4.60693,0,1,1,4.60693-4.60693A4.61255,4.61255,0,0,1,111.89355,71.21436Zm0-7.21387a2.60693,2.60693,0,1,0,2.60693,2.60693A2.61026,2.61026,0,0,0,111.89355,64.00049Z" style="fill:#6d6daa"/><path d="M64.31,115.98755V111.883l-3.52922-1.17647a11.72912,11.72912,0,0,0-1.04111-2.51385l1.66367-3.327L58.501,101.96339l-3.32707,1.66367A11.72067,11.72067,0,0,0,52.66,102.58582l-1.17642-3.52913H47.37911l-1.17638,3.52913a11.721,11.721,0,0,0-2.5139,1.04125l-3.32707-1.66367-2.90235,2.90235,1.66367,3.327a11.7245,11.7245,0,0,0-1.04111,2.51385L34.55275,111.883v4.10451l3.52922,1.17638a11.72523,11.72523,0,0,0,1.04111,2.51394l-1.66367,3.327,2.90235,2.90235,3.32707-1.66367a11.72077,11.72077,0,0,0,2.5139,1.04116l1.17638,3.52922h4.10451L52.66,125.28469a11.7204,11.7204,0,0,0,2.51385-1.04116L58.501,125.9072l2.90235-2.90235-1.66367-3.327a11.72986,11.72986,0,0,0,1.04111-2.51394Zm-14.87861.92347a2.97572,2.97572,0,1,1,2.97572-2.97572A2.97575,2.97575,0,0,1,49.43136,116.911Z" style="fill:#eef6ff"/><g style="opacity:0.2"><path d="M38.487,119.024a15.98165,15.98165,0,0,0,21.431-.00006c-.08454.17018-.15624.3478-.24862.51331l1.68921,3.37824-2.94693,2.94693-3.3783-1.68921a11.9,11.9,0,0,1-2.55251,1.05712l-1.19451,3.58352H47.11863l-1.19451-3.58352a11.9,11.9,0,0,1-2.55251-1.05712l-3.3783,1.68921-2.94693-2.94693,1.68921-3.37824C38.6432,119.37185,38.57151,119.19423,38.487,119.024Z" style="fill:#2c4b75"/></g><path d="M49.43136,106.496a7.4393,7.4393,0,1,0,7.4393,7.4393A7.43935,7.43935,0,0,0,49.43136,106.496Zm0,10.415a2.97572,2.97572,0,1,1,2.97572-2.97572A2.97575,2.97575,0,0,1,49.43136,116.911Z" style="fill:#ced8ee"/><path d="M51.4834,129.814H47.37891a1,1,0,0,1-.94873-.68359l-1.01318-3.041a12.76826,12.76826,0,0,1-1.7417-.7207l-2.86621,1.43311a1,1,0,0,1-1.1543-.1875l-2.90234-2.90234a1.00033,1.00033,0,0,1-.1875-1.1543l1.43311-2.86621a12.76824,12.76824,0,0,1-.7207-1.7417l-3.041-1.01318a1,1,0,0,1-.68359-.94873v-4.105a1,1,0,0,1,.68359-.94873l3.041-1.01318a12.76825,12.76825,0,0,1,.7207-1.7417L36.56494,105.313a1.00033,1.00033,0,0,1,.1875-1.1543l2.90234-2.90234a.9993.9993,0,0,1,1.1543-.1875l2.86621,1.43311a12.76826,12.76826,0,0,1,1.7417-.7207l1.01318-3.041a1,1,0,0,1,.94873-.68359H51.4834a1.00043,1.00043,0,0,1,.94873.68359l1.01367,3.041a12.79391,12.79391,0,0,1,1.7417.7207l2.86621-1.43311a1,1,0,0,1,1.1543.1875l2.90234,2.90234a1.00033,1.00033,0,0,1,.1875,1.1543l-1.43359,2.8667a12.72235,12.72235,0,0,1,.72119,1.74072l3.041,1.01367a1,1,0,0,1,.68359.94873v4.105a1,1,0,0,1-.68359.94873l-3.041,1.01367a12.72235,12.72235,0,0,1-.72119,1.74072l1.43359,2.8667a1.00033,1.00033,0,0,1-.1875,1.1543L59.208,126.61426a1.002,1.002,0,0,1-1.1543.1875l-2.86621-1.43311a12.79391,12.79391,0,0,1-1.7417.7207l-1.01367,3.041A1.00043,1.00043,0,0,1,51.4834,129.814Zm-3.38379-2H50.7627l.94873-2.8457a.99984.99984,0,0,1,.67578-.64551,10.71806,10.71806,0,0,0,2.29883-.95215.99965.99965,0,0,1,.93506-.02148l2.68262,1.34131,1.88281-1.88281L58.84521,120.125a1.00019,1.00019,0,0,1,.02148-.93457,10.76543,10.76543,0,0,0,.95215-2.2998,1.00009,1.00009,0,0,1,.64551-.67529l2.8457-.94824v-2.66357l-2.8457-.94824a1.00009,1.00009,0,0,1-.64551-.67529,10.76543,10.76543,0,0,0-.95215-2.2998,1.00019,1.00019,0,0,1-.02148-.93457l1.34131-2.68262-1.88281-1.88281-2.68262,1.34131A1.00385,1.00385,0,0,1,54.686,104.5a10.718,10.718,0,0,0-2.29883-.95215.99984.99984,0,0,1-.67578-.64551l-.94873-2.8457H48.09961l-.94824,2.8457a.99984.99984,0,0,1-.67578.64551,10.718,10.718,0,0,0-2.29883.95215,1.00394,1.00394,0,0,1-.93506.02148l-2.68262-1.34131L38.67627,105.063l1.34131,2.68262a1.00117,1.00117,0,0,1-.02148.93506,10.71805,10.71805,0,0,0-.95215,2.29883.99984.99984,0,0,1-.64551.67578l-2.8457.94824v2.66357l2.8457.94824a.99984.99984,0,0,1,.64551.67578,10.71805,10.71805,0,0,0,.95215,2.29883,1.00117,1.00117,0,0,1,.02148.93506l-1.34131,2.68262,1.88281,1.88281,2.68262-1.34131a.99974.99974,0,0,1,.93506.02148,10.71806,10.71806,0,0,0,2.29883.95215.99984.99984,0,0,1,.67578.64551Zm16.21045-11.82617h0Zm-14.87891,1.92334a3.97583,3.97583,0,1,1,3.97607-3.97607A3.9802,3.9802,0,0,1,49.43115,117.91113Zm0-5.95166a1.97583,1.97583,0,1,0,1.97607,1.97559A1.97781,1.97781,0,0,0,49.43115,111.95947Z" style="fill:#6d6daa"/><path d="M76.13816,21.446v-2.7729l-2.38424-.79479A7.92387,7.92387,0,0,0,73.05057,16.18l1.12393-2.24762-1.96075-1.96075-2.24768,1.12393a7.91816,7.91816,0,0,0-1.69829-.70344L67.473,10.00793h-2.7729l-.79473,2.38418a7.91841,7.91841,0,0,0-1.69832.70344l-2.24768-1.12393-1.96075,1.96075L59.12259,16.18a7.92075,7.92075,0,0,0-.70335,1.69829l-2.38424.79479V21.446l2.38424.79473a7.92124,7.92124,0,0,0,.70335,1.69835l-1.12393,2.24762,1.96075,1.96075,2.24768-1.12393a7.91823,7.91823,0,0,0,1.69832.70338l.79473,2.38424H67.473l.79476-2.38424a7.918,7.918,0,0,0,1.69829-.70338l2.24768,1.12393,1.96075-1.96075L73.05057,23.939a7.92437,7.92437,0,0,0,.70335-1.69835Zm-10.05158.62387a2.01032,2.01032,0,1,1,2.01032-2.01032A2.01034,2.01034,0,0,1,66.08658,22.06983Z" style="fill:#eef6ff"/><path d="M66.08658,15.03373a5.02579,5.02579,0,1,0,5.02579,5.02579A5.02582,5.02582,0,0,0,66.08658,15.03373Zm0,7.03611a2.01032,2.01032,0,1,1,2.01032-2.01032A2.01034,2.01034,0,0,1,66.08658,22.06983Z" style="fill:#ced8ee"/><path d="M67.47314,31.11133H64.7002a1.00043,1.00043,0,0,1-.94873-.68359l-.63379-1.90186a8.92949,8.92949,0,0,1-.91846-.38037l-1.79248.89648a1.00293,1.00293,0,0,1-1.1543-.1875L57.2915,26.89355a.99968.99968,0,0,1-.1875-1.1543l.89648-1.79248a8.97484,8.97484,0,0,1-.38037-.91846l-1.90137-.63379a1.00043,1.00043,0,0,1-.68359-.94873V18.67285a.99977.99977,0,0,1,.68408-.94873l1.90088-.6333a8.92949,8.92949,0,0,1,.38037-.91846l-.89648-1.793a1.00033,1.00033,0,0,1,.1875-1.1543l1.96094-1.96045a.99943.99943,0,0,1,1.1543-.1875l1.79248.89648a8.92949,8.92949,0,0,1,.91846-.38037l.63379-1.90186a1.00043,1.00043,0,0,1,.94873-.68359h2.77295a.99977.99977,0,0,1,.94873.68408l.63379,1.90137a8.97484,8.97484,0,0,1,.91846.38037l1.79248-.89648a1.001,1.001,0,0,1,1.1543.1875l1.96045,1.96045a1.00033,1.00033,0,0,1,.1875,1.1543l-.896,1.793a9.07467,9.07467,0,0,1,.37988.918l1.90137.63379a.99977.99977,0,0,1,.68408.94873V21.4458a1.00043,1.00043,0,0,1-.68359.94873l-1.90186.63379a9.02065,9.02065,0,0,1-.38037.91846l.89648,1.79248a1.00033,1.00033,0,0,1-.1875,1.1543L72.9209,28.85449a1.00462,1.00462,0,0,1-1.1543.1875l-1.79248-.89648a8.97484,8.97484,0,0,1-.91846.38037l-.63379,1.90137A.99977.99977,0,0,1,67.47314,31.11133Zm-2.05225-2h1.33154l.56641-1.7002a.99976.99976,0,0,1,.67529-.646,6.94023,6.94023,0,0,0,1.48486-.61475,1.003,1.003,0,0,1,.93457-.02148l1.603.80176.94092-.94141-.80127-1.603a1.00055,1.00055,0,0,1,.021-.93408,6.95669,6.95669,0,0,0,.61475-1.48486,1.00009,1.00009,0,0,1,.64551-.67529l1.70068-.56689V19.39355l-1.7002-.56641a.99976.99976,0,0,1-.646-.67529,6.97027,6.97027,0,0,0-.61426-1.48437,1.00019,1.00019,0,0,1-.02148-.93457l.80127-1.603-.94092-.94141-1.603.80176a1.00279,1.00279,0,0,1-.93457-.02148,6.94023,6.94023,0,0,0-1.48486-.61475.99976.99976,0,0,1-.67529-.646l-.56641-1.7002H65.4209L64.854,12.7085a1.00009,1.00009,0,0,1-.67529.64551,6.9424,6.9424,0,0,0-1.48437.61475.99873.99873,0,0,1-.93457.02148l-1.603-.80176-.94141.94141.80176,1.603a1.00117,1.00117,0,0,1-.02148.93506,6.90212,6.90212,0,0,0-.61426,1.4834.99946.99946,0,0,1-.646.67578l-1.7002.56641V20.7251l1.70068.56689a.99979.99979,0,0,1,.64551.67578,6.93264,6.93264,0,0,0,.61426,1.48389.99876.99876,0,0,1,.02148.93457l-.80176,1.603.94141.94141,1.603-.80176a.9987.9987,0,0,1,.93457.02148,6.9424,6.9424,0,0,0,1.48438.61475,1.00009,1.00009,0,0,1,.67529.64551ZM76.13818,21.4458h0Zm-10.05176,1.624a3.01025,3.01025,0,1,1,3.01025-3.01025A3.01391,3.01391,0,0,1,66.08643,23.06982Zm0-4.02051a1.01025,1.01025,0,1,0,1.01025,1.01025A1.0113,1.0113,0,0,0,66.08643,19.04932Z" style="fill:#6d6daa"/></g><path d="M60.04168,40.95036,57.09389,40.868a22.86689,22.86689,0,0,0-1.18535-3.42887l2.26271-1.88674a1.5,1.5,0,0,0,.33364-1.91027l-.73725-1.25858a1.50021,1.50021,0,0,0-1.82947-.64314l-2.75235,1.051a23.01829,23.01829,0,0,0-2.41192-2.70923L52.14439,27.469a1.5,1.5,0,0,0-.42274-1.89246l-1.16281-.8806a1.5,1.5,0,0,0-1.93621.10592l-2.14391,2.02733a23.02137,23.02137,0,0,0-3.26153-1.58754l.2659-2.93413a1.50018,1.50018,0,0,0-1.11484-1.58673L40.957,20.35218a1.50014,1.50014,0,0,0-1.74838.83883l-1.203,2.68933a22.87476,22.87476,0,0,0-3.62185-.21179l-.87812-2.81516a1.49987,1.49987,0,0,0-1.63708-1.0392l-1.44491.19951a1.5,1.5,0,0,0-1.29427,1.444L29.047,24.40545a22.874,22.874,0,0,0-3.42887,1.18535l-1.88674-2.26271a1.50014,1.50014,0,0,0-1.91027-.33364l-1.25857.73731a1.50018,1.50018,0,0,0-.64314,1.82947L20.9705,28.3135a23.0132,23.0132,0,0,0-2.70928,2.412L15.64808,29.355a1.5,1.5,0,0,0-1.89246.42274L12.875,30.9405a1.5,1.5,0,0,0,.10592,1.93621l2.02734,2.144a23.0248,23.0248,0,0,0-1.58755,3.26147l-2.93412-.26584a1.50018,1.50018,0,0,0-1.58673,1.11484l-.36865,1.41128a1.50009,1.50009,0,0,0,.83889,1.74837l2.68927,1.203a22.8811,22.8811,0,0,0-.2118,3.62179l-2.8151.87811a1.49993,1.49993,0,0,0-1.03925,1.63715l.19951,1.44491a1.49987,1.49987,0,0,0,1.444,1.2942l2.94773.08238a22.88187,22.88187,0,0,0,1.18536,3.42893L11.50719,57.768a1.50009,1.50009,0,0,0-.3337,1.91028l.73729,1.25845a1.5,1.5,0,0,0,1.82935.64315l2.75242-1.051a23.02954,23.02954,0,0,0,2.412,2.70928L17.534,65.85126a1.5,1.5,0,0,0,.42274,1.89246l1.16276.88067a1.5,1.5,0,0,0,1.9362-.106l2.144-2.02728a23.027,23.027,0,0,0,3.26153,1.58748l-.26589,2.93419a1.5,1.5,0,0,0,1.11483,1.58661l1.41134.36859a1.49994,1.49994,0,0,0,1.74832-.83882l1.203-2.68921a22.874,22.874,0,0,0,3.62179.2118l.87812,2.81516a1.5,1.5,0,0,0,1.63715,1.03925l1.44491-.19951a1.49987,1.49987,0,0,0,1.2942-1.444l.08237-2.94779a22.87476,22.87476,0,0,0,3.42893-1.18536L45.947,69.99209a1.49988,1.49988,0,0,0,1.91015.33366l1.2587-.73726a1.5,1.5,0,0,0,.64315-1.82935l-1.05108-2.75234a23.03114,23.03114,0,0,0,2.70929-2.41193l2.61307,1.37043a1.5,1.5,0,0,0,1.89247-.42268l.88066-1.16282a1.5,1.5,0,0,0-.10592-1.93621l-2.02733-2.14391a23.023,23.023,0,0,0,1.58748-3.26153l2.93423.26576a1.50007,1.50007,0,0,0,1.58667-1.11483l.36861-1.41116a1.5,1.5,0,0,0-.83883-1.74838l-2.68933-1.203a22.86765,22.86765,0,0,0,.21179-3.62185l2.81516-.87812a1.49987,1.49987,0,0,0,1.03926-1.63709l-.19951-1.44491A1.49993,1.49993,0,0,0,60.04168,40.95036ZM35.24957,49.632A3,3,0,1,1,37.811,46.24983,3,3,0,0,1,35.24957,49.632Z" style="fill:#eef6ff"/><path d="M60.04168,40.95036,57.09389,40.868a22.86689,22.86689,0,0,0-1.18535-3.42887l2.26271-1.88674a1.5,1.5,0,0,0,.33364-1.91027l-.73725-1.25858a1.50021,1.50021,0,0,0-1.82947-.64314l-2.75235,1.051a23.01829,23.01829,0,0,0-2.41192-2.70923L52.14439,27.469a1.5,1.5,0,0,0-.42274-1.89246l-1.16281-.8806a1.5,1.5,0,0,0-1.93621.10592l-2.14391,2.02733a23.02137,23.02137,0,0,0-3.26153-1.58754l.2659-2.93413a1.50018,1.50018,0,0,0-1.11484-1.58673L40.957,20.35218a1.50014,1.50014,0,0,0-1.74838.83883l-1.203,2.68933a22.87476,22.87476,0,0,0-3.62185-.21179l-.87812-2.81516a1.49987,1.49987,0,0,0-1.63708-1.0392l-1.44491.19951a1.5,1.5,0,0,0-1.29427,1.444L29.047,24.40545a22.874,22.874,0,0,0-3.42887,1.18535l-1.88674-2.26271a1.50014,1.50014,0,0,0-1.91027-.33364l-1.25857.73731a1.50018,1.50018,0,0,0-.64314,1.82947L20.9705,28.3135a23.0132,23.0132,0,0,0-2.70928,2.412L15.64808,29.355a1.5,1.5,0,0,0-1.89246.42274L12.875,30.9405a1.5,1.5,0,0,0,.10592,1.93621l2.02734,2.144a23.0248,23.0248,0,0,0-1.58755,3.26147l-2.93412-.26584a1.50018,1.50018,0,0,0-1.58673,1.11484l-.36865,1.41128a1.50009,1.50009,0,0,0,.83889,1.74837l2.68927,1.203a22.8811,22.8811,0,0,0-.2118,3.62179l-2.8151.87811a1.49993,1.49993,0,0,0-1.03925,1.63715l.19951,1.44491a1.49987,1.49987,0,0,0,1.444,1.2942l2.94773.08238a22.88187,22.88187,0,0,0,1.18536,3.42893L11.50719,57.768a1.50009,1.50009,0,0,0-.3337,1.91028l.73729,1.25845a1.5,1.5,0,0,0,1.82935.64315l2.75242-1.051a23.02954,23.02954,0,0,0,2.412,2.70928L17.534,65.85126a1.5,1.5,0,0,0,.42274,1.89246l1.16276.88067a1.5,1.5,0,0,0,1.9362-.106l2.144-2.02728a23.027,23.027,0,0,0,3.26153,1.58748l-.26589,2.93419a1.5,1.5,0,0,0,1.11483,1.58661l1.41134.36859a1.49994,1.49994,0,0,0,1.74832-.83882l1.203-2.68921a22.874,22.874,0,0,0,3.62179.2118l.87812,2.81516a1.5,1.5,0,0,0,1.63715,1.03925l1.44491-.19951a1.49987,1.49987,0,0,0,1.2942-1.444l.08237-2.94779a22.87476,22.87476,0,0,0,3.42893-1.18536L45.947,69.99209a1.49988,1.49988,0,0,0,1.91015.33366l1.2587-.73726a1.5,1.5,0,0,0,.64315-1.82935l-1.05108-2.75234a23.03114,23.03114,0,0,0,2.70929-2.41193l2.61307,1.37043a1.5,1.5,0,0,0,1.89247-.42268l.88066-1.16282a1.5,1.5,0,0,0-.10592-1.93621l-2.02733-2.14391a23.023,23.023,0,0,0,1.58748-3.26153l2.93423.26576a1.50007,1.50007,0,0,0,1.58667-1.11483l.36861-1.41116a1.5,1.5,0,0,0-.83883-1.74838l-2.68933-1.203a22.86765,22.86765,0,0,0,.21179-3.62185l2.81516-.87812a1.49987,1.49987,0,0,0,1.03926-1.63709l-.19951-1.44491A1.49993,1.49993,0,0,0,60.04168,40.95036ZM35.24957,49.632A3,3,0,1,1,37.811,46.24983,3,3,0,0,1,35.24957,49.632Z" style="fill:#ced8ee"/><path d="M33.33462,35.76356a11,11,0,1,0,12.40121,9.392A11,11,0,0,0,33.33462,35.76356ZM35.24957,49.632A3,3,0,1,1,37.811,46.24983,3,3,0,0,1,35.24957,49.632Z" style="fill:#eef6ff"/><path d="M36.34382,57.55679a11.99482,11.99482,0,0,1-13.22076-8.77411,12.00024,12.00024,0,1,0,23.5691-3.25441A11.99487,11.99487,0,0,1,36.34382,57.55679Z" style="fill:#2c4b75;opacity:0.2"/><g style="opacity:0.2"><path d="M35.93348,54.585a10.99358,10.99358,0,0,1-12.083-7.92172,11.00031,11.00031,0,1,0,21.56722-2.978A10.99363,10.99363,0,0,1,35.93348,54.585Z" style="fill:#2c4b75"/></g><g style="opacity:0.5"><path d="M33.745,38.73537a10.99357,10.99357,0,0,1,12.083,7.92172,11.00031,11.00031,0,1,0-21.56722,2.978A10.99353,10.99353,0,0,1,33.745,38.73537Z" style="fill:#fff"/></g><path d="M9.37011,42.29081l2.68927,1.203a22.97991,22.97991,0,0,0-.187,2.31744A24.00182,24.00182,0,0,1,56.71663,39.619a22.96027,22.96027,0,0,0-.80809-2.17992l2.26271-1.88674a1.5,1.5,0,0,0,.33364-1.91027l-.73725-1.25858a1.50021,1.50021,0,0,0-1.82947-.64314l-2.75235,1.051a23.01829,23.01829,0,0,0-2.41192-2.70923L52.14439,27.469a1.5,1.5,0,0,0-.42274-1.89246l-1.16281-.8806a1.5,1.5,0,0,0-1.93621.10592l-2.14391,2.02733a23.02137,23.02137,0,0,0-3.26153-1.58754l.2659-2.93413a1.50018,1.50018,0,0,0-1.11484-1.58673L40.957,20.35218a1.50014,1.50014,0,0,0-1.74838.83883l-1.203,2.68933a22.87476,22.87476,0,0,0-3.62185-.21179l-.87812-2.81516a1.49987,1.49987,0,0,0-1.63708-1.0392l-1.44491.19951a1.5,1.5,0,0,0-1.29427,1.444L29.047,24.40545a22.874,22.874,0,0,0-3.42887,1.18535l-1.88674-2.26271a1.50014,1.50014,0,0,0-1.91027-.33364l-1.25857.73731a1.50018,1.50018,0,0,0-.64314,1.82947L20.9705,28.3135a23.0132,23.0132,0,0,0-2.70928,2.412L15.64808,29.355a1.5,1.5,0,0,0-1.89246.42274L12.875,30.9405a1.5,1.5,0,0,0,.10592,1.93621l2.02734,2.144a23.0248,23.0248,0,0,0-1.58755,3.26147l-2.93412-.26584a1.50018,1.50018,0,0,0-1.58673,1.11484l-.36865,1.41128A1.50009,1.50009,0,0,0,9.37011,42.29081Z" style="fill:#fff"/><g style="opacity:0.2"><path d="M11.5096,57.7854l2.26265-1.88673a22.97991,22.97991,0,0,1-.808-2.18,24.00182,24.00182,0,0,0,44.84431-6.192A22.96027,22.96027,0,0,1,57.6214,49.844l2.68933,1.203a1.5,1.5,0,0,1,.83883,1.74838L60.781,54.20661a1.50021,1.50021,0,0,1-1.58673,1.11484l-2.93418-.26583a23.01828,23.01828,0,0,1-1.58749,3.26147l2.02734,2.144a1.5,1.5,0,0,1,.10592,1.93621L55.92517,63.56a1.5,1.5,0,0,1-1.89246.42274l-2.61308-1.37049a23.02137,23.02137,0,0,1-2.70928,2.412l1.05107,2.75228a1.50018,1.50018,0,0,1-.64314,1.82947l-1.25857.73731a1.50014,1.50014,0,0,1-1.91027-.33364L44.0627,67.747a22.87476,22.87476,0,0,1-3.42893,1.18536l-.08237,2.94779a1.49987,1.49987,0,0,1-1.29421,1.444l-1.44491.19951a1.5,1.5,0,0,1-1.63714-1.03919L35.297,69.66922a22.874,22.874,0,0,1-3.62179-.2118l-1.203,2.68933a1.50014,1.50014,0,0,1-1.74838.83883l-1.41128-.36865a1.50018,1.50018,0,0,1-1.11484-1.58673l.2659-2.93413a23.0132,23.0132,0,0,1-3.26153-1.58754l-2.144,2.02734a1.5,1.5,0,0,1-1.93621.10592l-1.16275-.88061a1.5,1.5,0,0,1-.42274-1.89246l1.37048-2.61314a23.0248,23.0248,0,0,1-2.412-2.70922l-2.75229,1.051a1.50018,1.50018,0,0,1-1.82947-.64314l-.73731-1.25857A1.50009,1.50009,0,0,1,11.5096,57.7854Z" style="fill:#2c4b75"/></g><g style="opacity:0.5"><path d="M50.77391,30.08218,52.14439,27.469a1.5,1.5,0,0,0-.42274-1.89246l-.48957-.37072L36.73564,44.34694a2.99076,2.99076,0,0,1-3.60919,4.76557L18.63,68.25359l.48952.37079a1.5,1.5,0,0,0,1.9362-.106l2.144-2.02728c.12245.072.25191.13188.37571.2016L51.06979,30.3892C50.96907,30.28893,50.8764,30.18053,50.77391,30.08218Z" style="fill:#fff"/><path d="M33.00844,44.29942,46.30857,26.73794a22.99672,22.99672,0,0,0-3.09138-1.49625l.2659-2.93413a1.50018,1.50018,0,0,0-1.11484-1.58673L40.957,20.35218a1.50014,1.50014,0,0,0-1.74838.83883l-1.203,2.68933a22.87476,22.87476,0,0,0-3.62185-.21179l-.87812-2.81516a1.49987,1.49987,0,0,0-1.63708-1.0392l-1.44491.19951a1.5,1.5,0,0,0-1.29427,1.444L29.047,24.40545a22.874,22.874,0,0,0-3.42887,1.18535l-1.88674-2.26271a1.50014,1.50014,0,0,0-1.91027-.33364l-1.25857.73731a1.50018,1.50018,0,0,0-.64314,1.82947L20.9705,28.3135a23.0132,23.0132,0,0,0-2.70928,2.412L15.64808,29.355a1.5,1.5,0,0,0-1.89246.42274L12.875,30.9405a1.5,1.5,0,0,0,.10592,1.93621l2.02734,2.144a23.0248,23.0248,0,0,0-1.58755,3.26147l-2.93412-.26584a1.50018,1.50018,0,0,0-1.58673,1.11484l-.36865,1.41128a1.50009,1.50009,0,0,0,.83889,1.74837l2.68927,1.203a22.8811,22.8811,0,0,0-.2118,3.62179l-2.8151.87811a1.49993,1.49993,0,0,0-1.03925,1.63715l.19951,1.44491a1.49987,1.49987,0,0,0,1.444,1.2942l2.94773.08238a22.88187,22.88187,0,0,0,1.18536,3.42893L11.50719,57.768a1.50009,1.50009,0,0,0-.3337,1.91028l.73729,1.25845a1.5,1.5,0,0,0,1.82935.64315l2.75242-1.051a23.00126,23.00126,0,0,0,2.278,2.57023L32.07067,45.53765A2.99225,2.99225,0,0,1,33.00844,44.29942Z" style="fill:#fff"/></g><path d="M37.6001,74.521a2.49119,2.49119,0,0,1-2.38184-1.75684l-.6582-2.10889c-.75879-.00781-1.52051-.05273-2.27588-.13281l-.90186,2.01514A2.49483,2.49483,0,0,1,28.46924,73.936l-1.41162-.36865a2.49387,2.49387,0,0,1-1.8584-2.64453l.19971-2.19971c-.69531-.29834-1.38037-.63184-2.04932-.99756l-1.60693,1.51953a2.49336,2.49336,0,0,1-3.22656.17676L17.353,68.541a2.4914,2.4914,0,0,1-.7041-3.15479l1.02637-1.958c-.53223-.54395-1.03857-1.11328-1.51514-1.70215l-2.063.78809a2.49339,2.49339,0,0,1-3.04932-1.07227l-.7373-1.2583A2.49178,2.49178,0,0,1,10.86719,57l1.69531-1.41406c-.28223-.70605-.53125-1.42627-.74512-2.15479l-2.2085-.06152A2.49149,2.49149,0,0,1,7.20215,51.2124l-.19971-1.44482a2.49274,2.49274,0,0,1,1.73193-2.72852l2.10986-.65771c.00781-.75928.05273-1.52051.13281-2.27637L8.96191,43.2041A2.49391,2.49391,0,0,1,7.56348,40.29l.36914-1.41162a2.48944,2.48944,0,0,1,2.644-1.8584l2.19971.19971c.29883-.69531.63232-1.38086.99756-2.04932L12.25439,33.564a2.49108,2.49108,0,0,1-.17627-3.22754l.88086-1.1626a2.49093,2.49093,0,0,1,3.15332-.70459l1.9585,1.02734c.54443-.53271,1.11377-1.03955,1.70264-1.51562l-.78809-2.063a2.49134,2.49134,0,0,1,1.07178-3.04883l1.25879-.7373a2.49416,2.49416,0,0,1,3.18359.55566l1.41406,1.6958c.70557-.28223,1.42627-.53125,2.1543-.74512l.062-2.2085a2.49149,2.49149,0,0,1,2.15723-2.40674l1.44482-.19971a2.49686,2.49686,0,0,1,2.72852,1.73291l.65771,2.10889c.75928.00781,1.52051.05273,2.27588.13281l.90186-2.01514a2.4952,2.4952,0,0,1,2.91357-1.39844l1.41162.36914A2.49253,2.49253,0,0,1,44.479,22.39795l-.19922,2.19922c.69531.29883,1.38086.63232,2.04883.99756l1.60693-1.51953a2.49388,2.49388,0,0,1,3.22656-.17676l1.16357.88135a2.49322,2.49322,0,0,1,.70459,3.15381l-1.02734,1.9585q.7998.81738,1.51563,1.70215l2.0625-.78809a2.49359,2.49359,0,0,1,3.04932,1.07129l.7373,1.25928a2.4929,2.4929,0,0,1-.55566,3.18359l-1.6958,1.41406c.28223.70605.53125,1.42676.74463,2.15479l2.2085.06152a2.49315,2.49315,0,0,1,2.40723,2.15674l.19922,1.44482a2.49137,2.49137,0,0,1-1.73242,2.729l-2.10889.65771c-.0083.75928-.05322,1.52051-.1333,2.27637l2.01514.90088a2.49264,2.49264,0,0,1,1.39795,2.91455l-.36865,1.41113a2.48812,2.48812,0,0,1-2.64453,1.85791l-2.19873-.19922c-.29932.69629-.63281,1.38184-.99756,2.04932l1.519,1.60693a2.49039,2.49039,0,0,1,.17627,3.22705L56.72021,64.146a2.49066,2.49066,0,0,1-3.15479.70459l-1.958-1.02686c-.54443.53223-1.11328,1.03955-1.70215,1.51563l.7876,2.06348a2.49091,2.49091,0,0,1-1.07178,3.04834l-1.2583.7373a2.49393,2.49393,0,0,1-3.18408-.55566L43.76465,68.937c-.70557.28223-1.42578.53125-2.1543.74512l-.062,2.2085a2.49053,2.49053,0,0,1-2.15674,2.40674l-1.44482.19971A2.52808,2.52808,0,0,1,37.6001,74.521Zm-2.30566-5.86914a.99955.99955,0,0,1,.95459.70215l.87842,2.81494a.49768.49768,0,0,0,.5459.34668l1.44482-.19971a.49715.49715,0,0,0,.43115-.48047l.08252-2.94824a1.0003,1.0003,0,0,1,.74854-.94043,21.94816,21.94816,0,0,0,3.2793-1.1333.99681.99681,0,0,1,1.16846.27539l1.88672,2.2627a.49835.49835,0,0,0,.63721.11133l1.2583-.7373a.498.498,0,0,0,.21436-.60937l-1.05078-2.75293a1.00032,1.00032,0,0,1,.33008-1.15381,22.01053,22.01053,0,0,0,2.59131-2.30713,1.0017,1.0017,0,0,1,1.186-.19336l2.61328,1.37061a.49677.49677,0,0,0,.63135-.14111l.87988-1.16211a.49773.49773,0,0,0-.03467-.645l-2.02734-2.14453a1.001,1.001,0,0,1-.13574-1.19385,22.1706,22.1706,0,0,0,1.519-3.12012,1.002,1.002,0,0,1,1.021-.63086l2.93408.26563a.50492.50492,0,0,0,.52832-.37109l.36914-1.41162a.49931.49931,0,0,0-.28027-.583l-2.68848-1.20215a1.00057,1.00057,0,0,1-.58252-1.05029,21.99194,21.99194,0,0,0,.20264-3.46436,1.00068,1.00068,0,0,1,.70215-.9751l2.81494-.87793a.4978.4978,0,0,0,.34619-.54541v-.00049l-.19922-1.44482a.499.499,0,0,0-.48145-.43164l-2.94775-.082a1.00019,1.00019,0,0,1-.94043-.749,21.89717,21.89717,0,0,0-1.1333-3.2793,1.0009,1.0009,0,0,1,.27588-1.16846l2.2627-1.88672a.49847.49847,0,0,0,.11133-.63672l-.7373-1.25879a.50046.50046,0,0,0-.61035-.21387L53.543,33.72559a1.00133,1.00133,0,0,1-1.1543-.33057,22.1034,22.1034,0,0,0-2.30713-2.5918.99965.99965,0,0,1-.19336-1.18555l1.37061-2.61279a.49935.49935,0,0,0-.14111-.63135l-1.1626-.88086a.49734.49734,0,0,0-.64551.03613l-2.144,2.02686a.99706.99706,0,0,1-1.19385.13525,22.07436,22.07436,0,0,0-3.11963-1.51807,1.00106,1.00106,0,0,1-.63086-1.02148l.26563-2.93408a.49843.49843,0,0,0-.37158-.5293l-1.41113-.36865a.50106.50106,0,0,0-.58252.27979L38.918,24.28857a.99852.99852,0,0,1-1.05029.58252,21.45688,21.45688,0,0,0-3.46289-.20264,1.01606,1.01606,0,0,1-.97559-.70215l-.87793-2.81494a.49911.49911,0,0,0-.5459-.34668l-1.44482.19971a.49808.49808,0,0,0-.43164.481l-.08252,2.94775a.99973.99973,0,0,1-.74854.94043,21.93321,21.93321,0,0,0-3.2793,1.13379,1.00275,1.00275,0,0,1-1.16846-.27588l-1.88672-2.2627a.50069.50069,0,0,0-.63672-.11133l-1.25879.7373a.498.498,0,0,0-.21436.60938l1.05127,2.75244a1.00032,1.00032,0,0,1-.33057,1.1543A22.04477,22.04477,0,0,0,18.98291,31.418a.99906.99906,0,0,1-1.186.19336l-2.61328-1.37061a.49931.49931,0,0,0-.63037.14063l-.88135,1.16309a.49853.49853,0,0,0,.03564.64551l2.02734,2.14355a1.00028,1.00028,0,0,1,.13574,1.19385,22.05407,22.05407,0,0,0-1.51855,3.12012,1.0117,1.0117,0,0,1-1.02148.63086l-2.93408-.26611a.50259.50259,0,0,0-.5293.37207l-.36865,1.41113a.49984.49984,0,0,0,.28027.583l2.689,1.20215a1.00029,1.00029,0,0,1,.58252,1.05029,21.86952,21.86952,0,0,0-.20264,3.46387.99967.99967,0,0,1-.70215.97559l-2.81543.87793a.49836.49836,0,0,0-.34619.5459L9.18359,50.939a.49808.49808,0,0,0,.481.43164l2.94775.082a.99973.99973,0,0,1,.94043.74854A21.939,21.939,0,0,0,14.68652,55.481a1.0009,1.0009,0,0,1-.27588,1.16846l-2.2627,1.88672a.498.498,0,0,0-.11182.63672l.7373,1.2583a.50019.50019,0,0,0,.61035.21436l2.752-1.05078a.99982.99982,0,0,1,1.1543.33008,22.1082,22.1082,0,0,0,2.30664,2.59229A.99965.99965,0,0,1,19.79,63.70264l-1.37012,2.61279a.49816.49816,0,0,0,.14014.63086l1.16309.88086a.50084.50084,0,0,0,.64551-.03516l2.144-2.02734a1.00246,1.00246,0,0,1,1.19385-.13574,22.04574,22.04574,0,0,0,3.11963,1.51855,1.00082,1.00082,0,0,1,.63135,1.02148L27.19141,71.103a.49925.49925,0,0,0,.37158.5293l1.41113.36816a.50083.50083,0,0,0,.583-.2793l1.20313-2.68945a1.00421,1.00421,0,0,1,1.0498-.58252,21.84987,21.84987,0,0,0,3.46338.20264Z" style="fill:#6d6daa"/><path d="M34.814,58.66211A12.00094,12.00094,0,1,1,46.72656,45.019h0A12.00071,12.00071,0,0,1,36.48047,58.54736,12.22419,12.22419,0,0,1,34.814,58.66211Zm.03223-22.00244a10.00031,10.00031,0,1,0,9.89893,8.63281h0A10.01562,10.01562,0,0,0,34.84619,36.65967Z" style="fill:#6d6daa"/><path d="M34.83643,50.66016a4.0002,4.0002,0,1,1,.5498-.0376A4.00695,4.00695,0,0,1,34.83643,50.66016Zm.00684-6a2.04878,2.04878,0,0,0-.27783.019,2,2,0,1,0,2.25488,1.70752h0a1.99975,1.99975,0,0,0-1.97705-1.72656Z" style="fill:#6d6daa"/></g><path d="M80.80987,78.38133S97.52268,95.125,97.91554,97.80357C98.91554,104.58929,90.862,109,82.862,109l-8.612,3c-2.875-2.75-22.971-25.74368-22.971-25.74368-4.30357,0-8.58929-3.375-11.375-6.66071-2.39286-2.83929-3.36792-4.77976-5.11792-6.22619L66.20275,44.51525C74.45275,43.45275,75.78765,73.62541,80.80987,78.38133Z" style="fill:#f9e2dc"/><g style="opacity:0.2"><path d="M56.0067,84.03833A4.03376,4.03376,0,0,0,52.472,81.18586l-.9609-.08356c-4.30352,0-8.82143-3.57819-11.60714-6.86384-.45983-.54561-.94822-1.08109-1.44392-1.60719l-2.674,1.57147c.83333,1.75,1.725,2.55352,4.11792,5.39286,2.78571,3.28565,7.07147,6.66068,11.375,6.66068,0,0,20.221,20.49371,22.971,25.74371l5-1.75S56.93985,87.19354,56.0067,84.03833Z" style="fill:#cc7e54"/><path d="M64.34791,76.7432a1.537,1.537,0,0,1-1.332,2.18252c-5.86425.251-19.55329.52758-22.89645-2.13963-1.54006-1.22868-4.89361-2.9144-5.85417-3.70833l28.853-.44643H63.154a.78589.78589,0,0,1-.03571-.17857A15.43188,15.43188,0,0,0,64.34791,76.7432Z" style="fill:#cc7e54"/><path d="M70.45275,58.167V56.38132H67.202c-5.37422,1.32143-7.37422,6.82143-8.37422,10.07143-.53524,1.73954-1.8125,6.0625-6.1875,6.4375-.97037.08317,8.07543.50633,9.04834.46166a1.83178,1.83178,0,0,0,.86168-.23852c1.03461-.6224.46833-2.79892.61413-3.9028a17.78632,17.78632,0,0,1,1.19728-4.44687C65.51549,61.97061,67.49617,59.2077,70.45275,58.167Z" style="fill:#cc7e54"/><path d="M59.18848,49.91053c5.1267,5.77939,7.42684-.52326,6.162,5.72674-1.35469,6.69374,4.8791,1.19048,5.10232,1.19048s.14881-7.21726.14881-7.21726a6.87513,6.87513,0,0,1-3.08631-3.22024C66.58676,44.36941,61.311,50.033,59.18848,49.91053Z" style="fill:#cc7e54"/><path d="M50.64025,80.70275c-1.8092,1.41272-3.42364,1.61425-4.62291.66444s-1.01619-3.17852.40895-4.978,8.5131-3.079,9.90147-2.43647C58.02618,74.73884,53.58172,78.40589,50.64025,80.70275Z" style="fill:#cc7e54"/></g><path d="M56.06494,87.25635H51.27881c-5.58691,0-10.34961-4.90479-12.1377-7.01367-1.96338-2.33008-2.18945-2.8877-2.51367-3.92578-.0625-.19922-.13184-.42187-.23633-.70068a1.00016,1.00016,0,0,1,1.873-.70215c.12012.3208.20068.57715.272.80615.23145.74121.34766,1.11328,2.13232,3.231,1.25293,1.47754,5.72607,6.30518,10.61035,6.30518h4.78613a1,1,0,0,1,0,2Z" style="fill:#6d6daa"/><path d="M36.61639,75.069l37.728-37.728a9.7859,9.7859,0,0,0,2.85493-7.887c-.50512-4.96046,1.32632-9.57815,6.23013-11.98165,3.53787-1.73408,10.59151-2.75081,15.98461.36365L89.10283,22.88983l-.53739,8.46161,7.0172,4.75889,10.28678-5.04188c-.84988,6.162-5.946,11.11256-9.48029,12.84487a10.80835,10.80835,0,0,1-7.51582.893,10.10314,10.10314,0,0,0-9.65476,2.53308L44.05678,82.50122a11.40817,11.40817,0,0,0-3.1838,7.15032A10.51666,10.51666,0,1,1,29.63855,78.23537,10.954,10.954,0,0,0,36.61639,75.069ZM24.2465,87.15957l.84534,1.65016L24.2465,90.4598l1.55711,1.00638.093,1.85168,1.85168.093L28.75467,94.968l1.65011-.8453,1.65011.8453,1.00638-1.55711,1.85172-.093.093-1.85172,1.55711-1.00638-.84534-1.65007.84534-1.65016L35.0059,86.15324l-.093-1.85172-1.85172-.093L32.05489,82.6514l-1.65011.84539-1.65011-.84539-1.00633,1.55716-1.85172.093-.093,1.85172Z" style="fill:#ced8ee"/><g style="opacity:0.75"><path d="M72.08226,39.60311l2.26216-2.26216a9.88353,9.88353,0,0,0,2.80943-5.62548c.013.20867.02413.417.04551.627.29725,2.91939.07022,6.12415-2.00478,8.19915l-.96191.96191Z" style="fill:#fff"/><path d="M37.46656,78.26963c-1.866,1.866-5.19568,2.66662-7.828,2.8543a10.487,10.487,0,0,0-9.64389,9.03353,10.49388,10.49388,0,0,1,9.64389-11.92211,10.98343,10.98343,0,0,0,6.1852-2.44857l1.17067-1.209,2.54167,1.86667Z" style="fill:#fff"/><path d="M94.86342,39.14214l-6.72663-4.67627a1.54785,1.54785,0,0,1-.66138-1.36631l.166-2.68884,7.94118,5.69962,10.28679-5.04188a18.87184,18.87184,0,0,1-1.00777,3.82052L96.43,39.24464A1.52133,1.52133,0,0,1,94.86342,39.14214Z" style="fill:#fff"/><path d="M83.42949,20.36085a10.8442,10.8442,0,0,0-6.2361,9.01036c-.47634-4.92891,1.35969-9.50884,6.2361-11.89893,3.53784-1.7341,10.59149-2.75083,15.98461.36362L96.247,19.38827A19.27328,19.27328,0,0,0,83.42949,20.36085Z" style="fill:#fff"/></g><g style="opacity:0.2"><path d="M58.45606,55.7593A4.11541,4.11541,0,0,0,61.738,57.29a5.18445,5.18445,0,0,0,3.65625-1.60651,6.02184,6.02184,0,0,0,.91683-7.60088.845.845,0,0,0-.11632-.17334l-5.84013-7.19579a4.16347,4.16347,0,0,0-3.33144-1.59252,5.25744,5.25744,0,0,0-3.66868,1.61894,6.04991,6.04991,0,0,0-1.03062,7.40272l5.8897,7.25774A1.81813,1.81813,0,0,1,58.45606,55.7593Z" style="fill:#2c4b75"/><path d="M23.864,93.79954a10.57161,10.57161,0,0,0,13.19412-.09134,9.01006,9.01006,0,0,0,3.26282-6.81725c.2348-2.68844.70279-5.405,2.611-7.31319l35.875-35.5a10.82642,10.82642,0,0,1,10.0664-2.42634,10.80837,10.80837,0,0,0,7.51581-.893,19.26919,19.26919,0,0,0,8.44473-9.18232l1.03554-.5076c-.84985,6.162-5.946,11.11257-9.48028,12.84487a10.80837,10.80837,0,0,1-7.51581.893,10.10314,10.10314,0,0,0-9.6548,2.533L44.05679,82.50121A11.40784,11.40784,0,0,0,40.873,89.65153a10.5132,10.5132,0,1,1-20.86475-2.51712A10.49793,10.49793,0,0,0,23.864,93.79954Z" style="fill:#2c4b75"/><path d="M88.75753,28.32674l-.70042-5.1374.15767-2.1971a1.96532,1.96532,0,0,1,1.15429-1.65177l7.69281-1.47511c1.21552.321,1.23343-.67558,2.35222-.02946l-10.31125,5.054Z" style="fill:#2c4b75"/><path d="M69.36942,52.36942c-1-.91666-1.33057-1.24014-4.5-.5-3.26215.7618-3.33333-8.83333-3.33333-8.83333s5.16667-6.08333,8.75-.83333S72.20273,51.70276,69.36942,52.36942Z" style="fill:#2c4b75"/><path d="M52.082,63.46668a3.97921,3.97921,0,0,0,3.33769,1.4749,5.70775,5.70775,0,0,0,3.8238-1.77407c2.23288-2.23288,2.74946-5.71276,1.188-7.87206a.80062.80062,0,0,0-.1145-.17515l-5.797-7.239a4.02159,4.02159,0,0,0-3.3868-1.53716,5.78986,5.78986,0,0,0-3.837,1.78729c-2.16683,2.16683-2.6993,5.50662-1.29912,7.67122L51.84325,63.104A1.72217,1.72217,0,0,1,52.082,63.46668Z" style="fill:#2c4b75"/><path d="M45.91609,71.04927a3.88924,3.88924,0,0,0,3.38058,1.432,6.13223,6.13223,0,0,0,3.95269-1.903c2.3357-2.3357,2.9443-5.9076,1.39662-8.08067a.77018.77018,0,0,0-.11311-.17655L48.76911,55.049a3.92756,3.92756,0,0,0-3.42939-1.49457,6.22175,6.22175,0,0,0-3.96653,1.91679c-2.26661,2.26661-2.88824,5.69556-1.50566,7.87776l5.81264,7.3348A1.65635,1.65635,0,0,1,45.91609,71.04927Z" style="fill:#2c4b75"/><path d="M38.79205,78.09a3.78865,3.78865,0,0,0,3.43634,1.37625,6.71258,6.71258,0,0,0,4.12025-2.07051c2.46937-2.46937,3.19759-6.16089,1.6678-8.35185a.73471.73471,0,0,0-.11129-.17836l-5.72061-7.31532A3.822,3.822,0,0,0,38.69978,60.111a6.81223,6.81223,0,0,0-4.13487,2.08514c-2.39633,2.39633-3.13386,5.94118-1.77416,8.14626l5.76909,7.37835A1.57964,1.57964,0,0,1,38.79205,78.09Z" style="fill:#2c4b75"/></g><path d="M30.40039,100.23389a11.43934,11.43934,0,0,1-7.16162-2.49854,11.51107,11.51107,0,0,1,6.32861-20.49756,9.9601,9.9601,0,0,0,6.3418-2.876.99989.99989,0,0,1,1.41406,1.41406,11.959,11.959,0,0,1-7.61328,3.457A9.5166,9.5166,0,1,0,39.877,89.56445a12.31171,12.31171,0,0,1,3.47266-7.77051L78.51172,46.63232a11.05729,11.05729,0,0,1,10.60352-2.79639,9.80321,9.80321,0,0,0,6.834-.8208A18.06464,18.06464,0,0,0,104.45557,32.875l-8.43311,4.1333A.99923.99923,0,0,1,95.021,36.938l-7.0166-4.75879a.99932.99932,0,0,1-.437-.89111l.5376-8.46191a1.00044,1.00044,0,0,1,.55811-.83447l8.459-4.146a18.08892,18.08892,0,0,0-13.25244.52441C78.23975,21.12988,77.897,26.43555,78.19385,29.353a10.72919,10.72919,0,0,1-3.14258,8.69482l-9.26221,9.26221A.99989.99989,0,0,1,64.375,45.896l9.26221-9.26221a8.74171,8.74171,0,0,0,2.56738-7.07812c-.59521-5.84473,1.87793-10.57617,6.78516-12.98145,3.53027-1.73047,10.95068-3.05371,16.92432.39551a1,1,0,0,1-.06006,1.76416l-9.78955,4.79834-.46484,7.3125,6.064,4.1123,9.76611-4.78662a.9999.9999,0,0,1,1.43066,1.03467c-.94336,6.83838-6.51562,11.8833-10.03125,13.606a11.74018,11.74018,0,0,1-8.19775.96533,9.06791,9.06791,0,0,0-8.70557,2.27L44.76367,83.208a10.342,10.342,0,0,0-2.89453,6.53027,11.50058,11.50058,0,0,1-11.46875,10.49561Zm1.65381-4.26611a1.00015,1.00015,0,0,1-.45557-.10986l-1.19385-.61182-1.19385.61182a1.00243,1.00243,0,0,1-1.2959-.34717l-.72852-1.127-1.33984-.06738a.99919.99919,0,0,1-.94873-.94873l-.06738-1.33984-1.127-.728a1.00049,1.00049,0,0,1-.34717-1.2959l.61182-1.19434-.61182-1.19385a1.00049,1.00049,0,0,1,.34717-1.2959l1.127-.728.06738-1.33984a.99912.99912,0,0,1,.94824-.94873l1.34033-.06787.72852-1.127a1.0009,1.0009,0,0,1,1.2959-.34717l1.19385.61182,1.19385-.61182a1.00062,1.00062,0,0,1,1.2959.34717l.72852,1.127,1.34033.06787a.99912.99912,0,0,1,.94824.94873L35.979,85.5918l1.127.728a1.00049,1.00049,0,0,1,.34717,1.2959l-.61182,1.19385.61182,1.19434a1.00049,1.00049,0,0,1-.34717,1.2959l-1.127.728-.06738,1.33984a.99919.99919,0,0,1-.94873.94873l-1.34033.06738-.728,1.127A.99942.99942,0,0,1,32.0542,95.96777Zm-5.2041-3.60352.94775.04785a1.00073,1.00073,0,0,1,.79.45557l.51563.79785.84521-.43311a1.0015,1.0015,0,0,1,.91211,0l.84473.43311.51563-.79785a1.00073,1.00073,0,0,1,.79-.45557l.94824-.04785.04785-.94775a1.00073,1.00073,0,0,1,.45557-.79l.79785-.51562-.43311-.84521a1.0015,1.0015,0,0,1,0-.91211l.43311-.84473-.79785-.51562a1.00073,1.00073,0,0,1-.45557-.79l-.04785-.94824-.94873-.04785a.99911.99911,0,0,1-.78955-.45557l-.51563-.79785-.84473.43311a1.0015,1.0015,0,0,1-.91211,0l-.84473-.43311-.51562.79785a.99911.99911,0,0,1-.78955.45557l-.94873.04785-.04785.94824a1.00073,1.00073,0,0,1-.45557.79l-.79785.51563.43311.84473a1.0015,1.0015,0,0,1,0,.91211l-.43311.84521.79785.51563a1.00073,1.00073,0,0,1,.45557.79Z" style="fill:#6d6daa"/><path d="M57.04856,52.90161a4.39786,4.39786,0,0,0,6.57644.28589,5.56431,5.56431,0,0,0,.47753-7.16158c-.029-.06012-6.82924-8.31448-6.82924-8.31448a4.39983,4.39983,0,0,0-6.63773-.336,5.56017,5.56017,0,0,0-.59568,6.96777S56.98062,52.76911,57.04856,52.90161Z" style="fill:#f9e2dc"/><path d="M56.84863,52.5834a4.39341,4.39341,0,0,0,3.19161,1.621,4.73589,4.73589,0,0,0,3.616-1.14188,5.8174,5.8174,0,0,0,.24635-7.35479.9313.9313,0,0,0-.11926-.1704l-7.18321,6.69311A2.00454,2.00454,0,0,1,56.84863,52.5834Z" style="fill:#cc7e54;opacity:0.2"/><path d="M50.77072,59.67224a1.39874,1.39874,0,0,1,.14932.2071,4.37728,4.37728,0,0,0,6.455.16232,5.57726,5.57726,0,0,0,.60677-6.979L49.1639,43.54929a2.00543,2.00543,0,0,1-.24856-.35305,4.39335,4.39335,0,0,0-3.19155-1.6209,4.43973,4.43973,0,0,0-3.396,1.34616,5.5518,5.5518,0,0,0-.49644,7.11372,1.34832,1.34832,0,0,1,.17162.1848ZM44.795,67.87935a4.35511,4.35511,0,0,0,6.07839.49429c.13257-.11026.254-.20944.37657-.332a5.56827,5.56827,0,0,0,.50759-7.12487c-.06129-.05008-10.07077-10.61308-10.10976-10.68546A4.38185,4.38185,0,0,0,38.57775,48.734a4.46478,4.46478,0,0,0-3.396,1.34616A5.56966,5.56966,0,0,0,34.8346,57.401l.99307,1.21265C37.49647,59.97779,37.23561,60.05719,44.795,67.87935Zm.09375-.07517-7.94061-8.23964a4.32348,4.32348,0,0,0-3.07008-1.49733,4.38046,4.38046,0,0,0-3.38482,1.33509,5.58521,5.58521,0,0,0-.35827,7.332l3.15666,4.22407,4.61227,3.8307a4.71874,4.71874,0,0,0,.84258.80613,4.30443,4.30443,0,0,0,2.39925.876A4.43946,4.43946,0,0,0,44.54167,75.125,5.56959,5.56959,0,0,0,44.88879,67.80418Z" style="fill:#f9e2dc"/><g style="opacity:0.5"><path d="M33.5026,63.077a4.38046,4.38046,0,0,1,3.38482-1.33509,4.26158,4.26158,0,0,1,2.4994.96719A5.17645,5.17645,0,0,0,38.795,61.795L37.802,60.58234a1.34832,1.34832,0,0,1-.17162-.1848l-.68217-.833a4.32348,4.32348,0,0,0-3.07008-1.49733,4.38046,4.38046,0,0,0-3.38482,1.33509,5.58521,5.58521,0,0,0-.35827,7.332l1.67517,2.04558a4.72621,4.72621,0,0,0,.74047.70848A5.60267,5.60267,0,0,1,33.5026,63.077Z" style="fill:#fff"/><path d="M36.80407,73.16944a19.546,19.546,0,0,0,1.31821,1.626,4.32348,4.32348,0,0,0,3.07008,1.49733,4.38046,4.38046,0,0,0,3.38482-1.33509,5.58521,5.58521,0,0,0,.35827-7.332s-1.03013-1.02637-1.2952-1.23545C39.94683,68.43882,38.44818,70.72135,36.80407,73.16944Z" style="fill:#fff"/><path d="M43.69991,66.08611a19.546,19.546,0,0,0,1.31821,1.626,4.32348,4.32348,0,0,0,3.07008,1.49733A4.38046,4.38046,0,0,0,51.473,67.87434a5.58521,5.58521,0,0,0,.35827-7.332s-1.03013-1.02637-1.2952-1.23545C46.84267,61.35549,45.344,63.638,43.69991,66.08611Z" style="fill:#fff"/><path d="M49.44991,58.23194a19.546,19.546,0,0,0,1.31821,1.626,4.32348,4.32348,0,0,0,3.07008,1.49733A4.38046,4.38046,0,0,0,57.223,60.02017a5.58521,5.58521,0,0,0,.35827-7.332s-1.03013-1.02637-1.2952-1.23545C52.59267,53.50132,51.094,55.78385,49.44991,58.23194Z" style="fill:#fff"/><path d="M43.52145,52.25643a1.39874,1.39874,0,0,1,.14932.2071,4.531,4.531,0,0,0,.60083.55669,5.54793,5.54793,0,0,1,.90875-6.43324,4.43973,4.43973,0,0,1,3.396-1.34616,4.29143,4.29143,0,0,1,2.43729.90419,5.09382,5.09382,0,0,0-.28119-.49816L49.00719,43.54a2.00543,2.00543,0,0,1-.24856-.35305,4.39335,4.39335,0,0,0-3.19155-1.6209,4.43973,4.43973,0,0,0-3.396,1.34616A5.5518,5.5518,0,0,0,41.6746,50.026a1.34832,1.34832,0,0,1,.17162.1848Z" style="fill:#fff"/><path d="M51.8027,46.47518a1.39874,1.39874,0,0,1,.14932.2071,4.531,4.531,0,0,0,.60083.55669,5.54793,5.54793,0,0,1,.90875-6.43324,4.43973,4.43973,0,0,1,3.396-1.34616,4.29143,4.29143,0,0,1,2.43729.90419,5.09382,5.09382,0,0,0-.28119-.49816L57.28844,37.7588a2.00543,2.00543,0,0,1-.24856-.35305,4.39335,4.39335,0,0,0-3.19155-1.6209,4.43973,4.43973,0,0,0-3.396,1.34616,5.5518,5.5518,0,0,0-.49644,7.11372,1.34832,1.34832,0,0,1,.17162.1848Z" style="fill:#fff"/><path d="M36.61447,59.64484a4.58361,4.58361,0,0,0,.57074.53021,5.581,5.581,0,0,1,.93885-6.40676,4.46478,4.46478,0,0,1,3.396-1.34616,4.35325,4.35325,0,0,1,2.46781.93935,5.17131,5.17131,0,0,0-.41089-.67919,1.34832,1.34832,0,0,1-.17162-.1848l-1.67523-2.04565a1.39874,1.39874,0,0,1-.14932-.2071,4.38185,4.38185,0,0,0-3.07008-1.49733,4.46478,4.46478,0,0,0-3.396,1.34616,5.56966,5.56966,0,0,0-.34712,7.32082l.99307,1.21265a1.34987,1.34987,0,0,1,.17168.18488Z" style="fill:#fff"/></g><path d="M48.29248,70.21826c-.1084,0-.21631-.00342-.32471-.01025a5.29345,5.29345,0,0,1-3.71631-1.78906c-.23682-.21191-1.24609-1.12158-5.78369-5.22559a1.03561,1.03561,0,0,1-.08838-.09082l-4.34668-5.124a6.601,6.601,0,0,1,.41357-8.66162,5.49941,5.49941,0,0,1,4.15576-1.6377,5.36657,5.36657,0,0,1,3.729,1.791,2.78926,2.78926,0,0,1,.2373.26025l4.08984,4.80078c4.98242,4.56592,5.85205,5.36865,6.06592,5.625l.00293-.00244a6.58544,6.58544,0,0,1-.60352,8.42822c-.13721.1377-.27246.25146-.41943.37354A5.35364,5.35364,0,0,1,48.29248,70.21826Zm-8.436-8.46582c.541.48926,5.57031,5.0376,5.76074,5.20508a1.14381,1.14381,0,0,1,.09473.09375,3.32658,3.32658,0,0,0,2.36133,1.15967,3.28833,3.28833,0,0,0,2.33105-.77588c.12109-.1001.21289-.1748.30518-.26709a4.55083,4.55083,0,0,0,.45068-5.769c-.44189-.42627-3.72412-3.44238-5.89893-5.43506a1.04922,1.04922,0,0,1-.08545-.08887l-4.21533-4.94922a.67528.67528,0,0,1-.09033-.08887,3.38842,3.38842,0,0,0-2.373-1.16064A3.46872,3.46872,0,0,0,35.86084,50.731a4.556,4.556,0,0,0-.28076,5.98l.99268,1.2124Z" style="fill:#6d6daa"/><path d="M54.33545,62.314q-.16333,0-.32715-.01025a5.53484,5.53484,0,0,1-3.09668-1.126A1.0002,1.0002,0,0,1,52.105,59.57227a3.60023,3.60023,0,0,0,2.01758.73486A3.41433,3.41433,0,0,0,56.748,59.26367a4.57509,4.57509,0,0,0,.4917-5.70166,1.00029,1.00029,0,0,1,1.64355-1.14062,6.5409,6.5409,0,0,1-.72119,8.25635A5.38082,5.38082,0,0,1,54.33545,62.314Z" style="fill:#6d6daa"/><path d="M41.69141,51.104a.99894.99894,0,0,1-.80371-.40381,6.57676,6.57676,0,0,1,.5918-8.417,5.717,5.717,0,0,1,4.25537-1.6377,6.13346,6.13346,0,0,1,4.30566,1.877.99992.99992,0,0,1-1.53223,1.28516,4.218,4.218,0,0,0-2.86865-1.16455,3.66721,3.66721,0,0,0-2.74609,1.0542,4.54063,4.54063,0,0,0-.40039,5.81055,1,1,0,0,1-.80176,1.59619Z" style="fill:#6d6daa"/><path d="M41.6167,77.292c-.03076,0-.06152,0-.09229-.00049a5.27556,5.27556,0,0,1-2.98047-.96729c-.31494-.21582-4.66553-3.65186-5.9917-4.69971a1.02008,1.02008,0,0,1-.16943-.1709L29.36523,67.5708a6.59419,6.59419,0,0,1,.15527-8.63525,6.21584,6.21584,0,0,1,4.09326-1.77246,5.12027,5.12027,0,0,1,3.7207,1.69873.9999.9999,0,0,1-1.45117,1.376,3.14025,3.14025,0,0,0-2.30225-1.0752,4.33137,4.33137,0,0,0-2.59668,1.13574,4.56693,4.56693,0,0,0-.0791,5.998l2.98193,3.834c2.13672,1.68848,5.521,4.355,5.79492,4.54883a3.29234,3.29234,0,0,0,1.86182.6123A3.50726,3.50726,0,0,0,44.15576,74.144a4.288,4.288,0,0,0-.04443-5.77051.99984.99984,0,0,1,1.501-1.32129,6.28051,6.28051,0,0,1,.00732,8.45508A5.43173,5.43173,0,0,1,41.6167,77.292Z" style="fill:#6d6daa"/><path d="M61.15479,55.16016q-.1626,0-.32666-.01025a5.36053,5.36053,0,0,1-3.68994-1.7583,29.21713,29.21713,0,0,1-4.42432-4.19629c-2.72852-3.3208-3.37646-4.11475-3.55811-4.35645l-.00244.002a6.57676,6.57676,0,0,1,.5918-8.417,5.39808,5.39808,0,0,1,8.061.33936c.0293.03564,1.93457,2.377,3.96631,4.55469,1.3042,1.39746,2.69287,2.72754,3.36035,3.3667a3.4783,3.4783,0,0,1,.60449.63232,6.54136,6.54136,0,0,1-.75537,8.207A5.3836,5.3836,0,0,1,61.15479,55.16016ZM50.76416,43.65527c.15674.2002,1.645,2.01953,3.49463,4.27051a27.76631,27.76631,0,0,0,4.14844,3.91895,1.22458,1.22458,0,0,1,.16211.14795,3.37754,3.37754,0,0,0,4.99854.1167,4.57671,4.57671,0,0,0,.53174-5.64355c-.06641-.06543-.187-.18066-.3501-.33691-.68066-.65186-2.09668-2.0083-3.439-3.44678-2.06006-2.20752-4.02979-4.625-4.04834-4.64795a3.39436,3.39436,0,0,0-2.457-1.25049,3.48817,3.48817,0,0,0-2.646,1.0542,4.54063,4.54063,0,0,0-.40039,5.81055Z" style="fill:#6d6daa"/><path d="M33.57813,71.70264a1.029,1.029,0,0,1-1.00244-.84277c-.17236-.99951,2.00732-2.98389,2.748-3.231a1.0001,1.0001,0,1,1,.63281,1.89746A6.48335,6.48335,0,0,0,34.54443,70.959a1.00082,1.00082,0,0,1-.94629.74365Z" style="fill:#6d6daa"/><path d="M39.51416,62.89014a1,1,0,0,1-.83105-1.55469,6.37852,6.37852,0,0,1,2.231-2.23047.99971.99971,0,1,1,.82715,1.82031,4.74559,4.74559,0,0,0-1.394,1.51953A.99908.99908,0,0,1,39.51416,62.89014Z" style="fill:#6d6daa"/><path d="M47.20166,56.14014a.99663.99663,0,0,1-.541-.15967,1.023,1.023,0,0,1-.42578-1.11328c.12354-.46289,1.67676-2.36572,2.604-2.41309a1.00021,1.00021,0,0,1,.3584,1.95068,8.15484,8.15484,0,0,0-1.07568,1.13037,1.01573,1.01573,0,0,1-.07861.147A.99934.99934,0,0,1,47.20166,56.14014Zm1.74121-1.689h0Z" style="fill:#6d6daa"/><path d="M54.01611,49.45264a1.002,1.002,0,0,1-1.00391-1.00293c-.001-.71,1.86816-2.67578,2.51025-2.79346a1.00034,1.00034,0,0,1,.606,1.88916,12.50077,12.50077,0,0,0-1.2085,1.334A1.00182,1.00182,0,0,1,54.01611,49.45264Z" style="fill:#6d6daa"/><path d="M63.45275,72.63134c-.0625-3.36609,1.56249-11.49109,7.21912-14.46429,0-.64288-.84412-1.91072-.84412-2.46429a15.74823,15.74823,0,0,1,.84411-6.46429,9.0271,9.0271,0,0,1-3.15661-2.84821c-2.25-.1875-5.49383,2.536-5.49383,2.536-3.20776,2.40087-7.63314,2.47561-10.30422-.50624l-.20427-.22457c-.8447-.9271-.36932-1.9405.5746-2.77919l5.2048-4.43745,1.04453-1.9708,3.11589-.74276c2.625-1.5,7.5-4.375,9.0625-2.8125,3.91636,3.91636,8.4545,8.50328,10.1875,10.5l5,8.3125c.42857,4.41071-.83929,15.04464-4.875,24.08036,0,.01786-.01788.01786-.01788.03572C73.30749,79.98239,67.428,78.258,63.45275,72.63134Z" style="fill:#f9e2dc"/><g style="opacity:0.2"><path d="M85.20275,52.76525c-.132.57064-5.814-8.05523-5.66667-7.47917.91667,3.58333,3.91667,11.66667,1.79167,16.41667-.986,2.204.61881,2.67519.375,3.41667C78.31441,75.42412,73.15269,81.25,66.78311,84.28311c0,0,3.29241,1.22768,5.13393.78125a14.23715,14.23715,0,0,0,9.05767-7.20089C83.90845,72.48808,86.795,64.45458,85.20275,52.76525Z" style="fill:#cc7e54"/><path d="M98,96.625c-.17151-1.16925-12.88428-13.1869-14.048-14.67408-1.29633-1.4563-2.56018-2.86816-2.97974-3.4032-.097-.1001-.16235-.16638-.16235-.16638l-.00055-.00061C79.8612,80.542,74.22717,84.844,67.73175,85.39916c-.24274.19421,20.15009,20.27314,21.68409,22.58783C94.66919,106.31934,98.71869,101.502,98,96.625Z" style="fill:#cc7e54"/><path d="M61.708,49.30544c1.03283-.346,2.90518-3.98652,6.05722-2.72769,1.14153.45589,1.10093,2.80047,3,3.75,3.25-1.9375-.25-4.5625-2.25-6.4375-1.91991-1.79992-9.12239,5.20841-9.12239,5.20841C58.03278,50.11665,60.30116,49.7767,61.708,49.30544Z" style="fill:#cc7e54"/></g><g style="opacity:0.5"><path d="M81.95275,48.07775l-2.5625-3.375c-4.6875-4.9375-9.56634-11.9896-12.75-9.125l-8.5,3.875-6.25,5.875a1.89572,1.89572,0,0,0-.37736,2.86772l.20433.22451a7.7094,7.7094,0,0,0,5.85226,2.54528,7.66268,7.66268,0,0,1-.80672-.74486l-.20433-.22451a1.77617,1.77617,0,0,1,.21989-2.74147L60.784,43.83953l-.63946-1.55538,7.87071-3.14389C70.51525,38.01525,81.95275,48.07775,81.95275,48.07775Z" style="fill:#fff"/><path d="M64.79236,74.96391c2.04617-7.34747,7.23707-8.98363,8.74372-15.17783-.16667-1.83333.08333-4.5,0-6.25s-2.16667-4-3.33333-.41667c-.49468.17412.21991,5.066-.25,5.33333-4.68683,2.66683-7.37007,9.99116-6.83446,14a.78508.78508,0,0,0,.03575.17853h-.03575A6.962,6.962,0,0,1,64.79236,74.96391Z" style="fill:#fff"/></g><path d="M80.81006,79.38135a1,1,0,0,1-1-1,1.03161,1.03161,0,0,1,.1123-.46045c3.1333-7.01953,4.80566-13.62988,4.709-18.61523a9.26835,9.26835,0,0,1,.252-2.06934,4.9265,4.9265,0,0,0,.15771-1.187.98277.98277,0,0,1,.00146-.20752,9.22863,9.22863,0,0,0-.74121-2.11475c-.106-.24463-.20312-.46777-.27734-.65332-1.603-4.00781-4.01416-6.45557-7.66309-10.16113-1.78418-1.81152-3.80322-3.86133-6.123-6.5-1.41113-.83691-2.4873-.3457-4.90674.90967A27.55368,27.55368,0,0,1,59.00928,39.875l-.833,1.57227a1.01091,1.01091,0,0,1-.23486.293l-5.20508,4.4375a1.24627,1.24627,0,0,0-.084,1.76416l.1499.165c2.63916,2.0625,6.59619,1.26025,8.62646.01025.53125-.44971,3.30225-2.70166,5.75146-2.91113a.99538.99538,0,0,1,.73438.23633,5.04275,5.04275,0,0,1,1.08789,1.47852A3.20288,3.20288,0,0,0,70.69336,48.647a.99932.99932,0,0,1,.60742,1.16016c-.792,3.36377-.76611,5.541.09668,8.03271a1.00068,1.00068,0,0,1-.34424,1.127c-4.18945,3.14551-6.103,6.68066-6.60449,12.20117a7.49669,7.49669,0,0,0,.31885,3.23438.99983.99983,0,1,1-1.87012.708,9.44719,9.44719,0,0,1-.44092-4.12354c.52881-5.81543,2.582-9.79834,6.82959-13.18164a14.76609,14.76609,0,0,1-.104-7.68457,5.51515,5.51515,0,0,1-1.92676-2.22607c-.12891-.231-.24756-.44385-.36963-.61963a12.30145,12.30145,0,0,0-4.21094,2.4082,1.01212,1.01212,0,0,1-.11963.08887c-2.95215,1.86328-7.833,2.44482-11.06445-.15283a.98015.98015,0,0,1-.11377-.10693l-.2041-.22461a3.2453,3.2453,0,0,1,.25049-4.61865l5.0752-4.32715.95459-1.80225a.9991.9991,0,0,1,.66113-.50635,25.24186,25.24186,0,0,0,6.29541-2.48633c2.42285-1.25684,4.51563-2.34326,7.01758-.75049a1.02087,1.02087,0,0,1,.21484.18457c2.32324,2.64941,4.353,4.71,6.14355,6.52832,3.68213,3.73877,6.34277,6.43994,8.0957,10.82178.06787.16992.15674.37451.25391.59863a7.79325,7.79325,0,0,1,.90381,3.02051,6.44555,6.44555,0,0,1-.19629,1.68506,7.601,7.601,0,0,0-.21143,1.63135c.103,5.354-1.58789,12.09277-4.89062,19.48682h-.00049l-.02295.04932A1.00019,1.00019,0,0,1,80.81006,79.38135Z" style="fill:#6d6daa"/><path d="M73.37549,112.625a.99665.99665,0,0,1-.75635-.34521c-.69971-.80713-1.915-2.27441-3.439-4.11426C63.88086,101.76807,54.0166,89.85938,50.4585,87.34082A1.00009,1.00009,0,0,1,51.61377,85.708c3.77393,2.67188,13.37207,14.25879,19.10645,21.18164,1.51123,1.82471,2.7168,3.27979,3.41064,4.08057a1,1,0,0,1-.75537,1.65479Z" style="fill:#6d6daa"/><path d="M98.749,97.25a.99588.99588,0,0,1-.57861-.18506c-3.45654-2.458-17.49268-17.36523-18.08887-17.99854a1,1,0,1,1,1.457-1.37012c.14453.15332,14.49463,15.395,17.791,17.73877A1,1,0,0,1,98.749,97.25Z" style="fill:#6d6daa"/><path d="M70.68506,85.917h-2.875a1,1,0,0,1,0-2h2.875a8.362,8.362,0,0,0,6.15527-2.69336l3.35938-3.67871a.99975.99975,0,1,1,1.50586,1.31543l-.125.14307-3.26514,3.5708A10.36885,10.36885,0,0,1,70.68506,85.917Z" style="fill:#6d6daa"/><path d="M71.70215,60.53613a.99531.99531,0,0,1-.63672-.22949,8.87108,8.87108,0,0,1-1.4043-1.44824,1,1,0,0,1,1.61475-1.18018h0a6.97806,6.97806,0,0,0,1.064,1.0874,1,1,0,0,1-.6377,1.77051Z" style="fill:#6d6daa"/><path d="M70.38916,50.76514a1.00012,1.00012,0,0,1-.17334-1.98486,2.69913,2.69913,0,0,0,1.0127-.38965.99976.99976,0,1,1,1.32324,1.499A4.4904,4.4904,0,0,1,70.562,50.75.99669.99669,0,0,1,70.38916,50.76514Z" style="fill:#6d6daa"/><g style="clip-path:url(#clip-path-2)"><path d="M69.24409,114.83309l7.52655,8.69a2.66466,2.66466,0,0,0,3.39435.57941,179.48965,179.48965,0,0,0,25.05338-18.16027,2.6551,2.6551,0,0,0,.31519-3.72575L96.645,91.89918a2.65486,2.65486,0,0,0-3.73991-.3319L69.576,111.09318A2.65486,2.65486,0,0,0,69.24409,114.83309Z" style="fill:#97c1ff;fill-rule:evenodd"/><path d="M96.645,91.89917l8.88854,10.31724a2.65518,2.65518,0,0,1-.31518,3.72581c-.90143.76842-3.91559,3.27927-3.78915,3.17143a2.65516,2.65516,0,0,0,.31512-3.72576L92.8558,95.07065a2.65484,2.65484,0,0,0-3.73991-.3319l3.78921-3.17148A2.65484,2.65484,0,0,1,96.645,91.89917Z" style="fill:#fff;fill-rule:evenodd;opacity:0.5"/><path d="M80.165,124.10244a2.66464,2.66464,0,0,1-3.39437-.57938l-7.52655-8.69a2.65484,2.65484,0,0,1,.3319-3.73991l3.56882-2.987a2.65484,2.65484,0,0,0-.3319,3.73991l7.52655,8.69a2.66464,2.66464,0,0,0,3.39437.57938Z" style="fill:#2c4b75;fill-rule:evenodd;opacity:0.2"/><path d="M78.80469,125.47363a3.6435,3.6435,0,0,1-2.80127-1.30908l-7.51514-8.67676-.01074-.0127a3.65384,3.65384,0,0,1,.457-5.14893l23.3291-19.52539a3.65341,3.65341,0,0,1,5.14844.457l8.87939,10.30566a3.67086,3.67086,0,0,1-.42432,5.13965,175.55272,175.55272,0,0,1-25.19775,18.2627A3.68838,3.68838,0,0,1,78.80469,125.47363Zm-8.79883-11.28857,7.52051,8.68311a1.66939,1.66939,0,0,0,2.13428.37109,173.59147,173.59147,0,0,0,24.90869-18.05811,1.66082,1.66082,0,0,0,.19727-2.32324L95.88721,92.55225a1.65228,1.65228,0,0,0-1.13184-.59766,1.63521,1.63521,0,0,0-1.208.37939L70.21777,111.86035a1.65392,1.65392,0,0,0-.21191,2.32471Z" style="fill:#6d6daa"/><path d="M78.0498,114.36963a1.0508,1.0508,0,0,1-.39014-.07959.99.99,0,0,1-.31982-.21045,1.00645,1.00645,0,0,1-.29-.71.9894.9894,0,0,1,.06982-.37988,1.071,1.071,0,0,1,.22021-.33008,1.01164,1.01164,0,0,1,1.41016,0,.915.915,0,0,1,.21973.33008.99038.99038,0,0,1,.08008.37988,1.007,1.007,0,0,1-1,1Z" style="fill:#6d6daa"/></g></svg>